<svg width="356" height="356" viewBox="0 0 356 356" fill="none" xmlns="http://www.w3.org/2000/svg">
<g clip-path="url(#clip0_39_3)">
<path d="M5 14L-4.37114e-07 10L10 4.37114e-07L14 5L5 14Z" fill="url(#paint0_linear_39_3)"/>
<path d="M14 351L10 356L-4.37114e-07 346L5 342L14 351Z" fill="url(#paint1_linear_39_3)"/>
<path d="M351 342L356 346L346 356L342 351L351 342Z" fill="url(#paint2_linear_39_3)"/>
<path d="M342 5L346 -4.37114e-07L356 10L351 14L342 5Z" fill="url(#paint3_linear_39_3)"/>
<path d="M5 14L5 342L0 346L0 10L5 14Z" fill="url(#paint4_linear_39_3)"/>
<path d="M351 342L351 14L356 10L356 346L351 342Z" fill="url(#paint5_linear_39_3)"/>
<path d="M14 351L342 351L346 356L10 356L14 351Z" fill="url(#paint6_linear_39_3)"/>
<path d="M342 5L14 5L10 4.00676e-06L346 3.7866e-06L342 5Z" fill="url(#paint7_linear_39_3)"/>
<path d="M355 11L351 14L342 5.00002L345 1.00001L355 11Z" fill="url(#paint8_radial_39_3)"/>
<path d="M345 355L342 351L351 342L355 345L345 355Z" fill="url(#paint9_radial_39_3)"/>
<path d="M1 345L5 342L14 351L11 355L1 345Z" fill="url(#paint10_radial_39_3)"/>
<path d="M11 1.00001L14 5.00002L5 14L1 11L11 1.00001Z" fill="url(#paint11_radial_39_3)"/>
<path d="M342 5.00003L222 5.00003L220.5 1.00001L345 1.00003L342 5.00003Z" fill="url(#paint12_radial_39_3)"/>
<path d="M222 5L14 5.00001L11 1.00002L220.5 1.00002L222 5Z" fill="url(#paint13_radial_39_3)"/>
<path d="M351 342L350 128L355 125L355 345L351 342Z" fill="url(#paint14_radial_39_3)"/>
<path d="M350 128L351 14L355 11L355 125L350 128Z" fill="url(#paint15_radial_39_3)"/>
<path d="M14 351L150.5 351L152 355L11 355L12.5 353L14 351Z" fill="url(#paint16_radial_39_3)"/>
<path d="M5 14L5 162L1 163L1 11L5 14Z" fill="url(#paint17_radial_39_3)"/>
<path d="M150.5 351L342 351L345 355L152 355L151.289 353.5L150.5 351Z" fill="url(#paint18_radial_39_3)"/>
<path d="M5 162L5 342L1 345L1 163L5 162Z" fill="url(#paint19_radial_39_3)"/>
<ellipse cx="14.9377" cy="101.926" rx="11.8543" ry="12.3045" fill="url(#paint20_radial_39_3)" fill-opacity="0.25"/>
<ellipse cx="67.9614" cy="89.6218" rx="20.1346" ry="17.8974" fill="url(#paint21_radial_39_3)" fill-opacity="0.2"/>
<ellipse cx="75.7918" cy="28.0994" rx="30.2019" ry="27.9647" fill="url(#paint22_radial_39_3)" fill-opacity="0.25"/>
<ellipse cx="88.0961" cy="122.061" rx="11.1859" ry="10.0673" fill="url(#paint23_radial_39_3)" fill-opacity="0.2"/>
<ellipse cx="63.4873" cy="39.2853" rx="17.8974" ry="16.7788" fill="url(#paint24_radial_39_3)" fill-opacity="0.25"/>
<ellipse cx="283.849" cy="33.6923" rx="19.016" ry="15.6603" fill="url(#paint25_radial_39_3)" fill-opacity="0.15"/>
<ellipse cx="32.1801" cy="70.6058" rx="11.8543" ry="12.3045" fill="url(#paint26_radial_39_3)" fill-opacity="0.25"/>
<ellipse cx="108.231" cy="23.625" rx="33.5577" ry="27.9647" fill="url(#paint27_radial_39_3)" fill-opacity="0.35"/>
<ellipse cx="70.1988" cy="7.96475" rx="33.5577" ry="27.9647" fill="url(#paint28_radial_39_3)" fill-opacity="0.35"/>
<ellipse cx="130.753" cy="166.804" rx="11.8543" ry="12.3045" fill="url(#paint29_radial_39_3)" fill-opacity="0.25"/>
<ellipse cx="30.366" cy="41.5224" rx="47.4173" ry="43.625" fill="url(#paint30_radial_39_3)" fill-opacity="0.5"/>
<ellipse cx="337.596" cy="301.035" rx="28.0193" ry="27.9647" fill="url(#paint31_radial_39_3)" fill-opacity="0.2"/>
<ellipse cx="338.019" cy="16.9647" rx="28.0193" ry="27.9647" fill="url(#paint32_radial_39_3)" fill-opacity="0.15"/>
<ellipse cx="48.9454" cy="16.9135" rx="43.625" ry="34.6763" fill="url(#paint33_radial_39_3)"/>
<ellipse cx="13.2053" cy="146.67" rx="28.0193" ry="27.9647" fill="url(#paint34_radial_39_3)" fill-opacity="0.2"/>
<ellipse cx="2.01931" cy="79.5545" rx="28.0193" ry="27.9647" fill="url(#paint35_radial_39_3)" fill-opacity="0.2"/>
<ellipse cx="129.539" cy="97.4519" rx="28.0193" ry="27.9647" fill="url(#paint36_radial_39_3)" fill-opacity="0.15"/>
<ellipse cx="87.0321" cy="52.7083" rx="28.0193" ry="27.9647" fill="url(#paint37_radial_39_3)" fill-opacity="0.2"/>
<ellipse cx="69.1348" cy="166.805" rx="28.0193" ry="27.9647" fill="url(#paint38_radial_39_3)" fill-opacity="0.2"/>
</g>
<defs>
<linearGradient id="paint0_linear_39_3" x1="4.99994" y1="5" x2="9.49994" y2="10" gradientUnits="userSpaceOnUse">
<stop stop-color="#AED1F0"/>
<stop offset="1" stop-color="#AED1F0"/>
</linearGradient>
<linearGradient id="paint1_linear_39_3" x1="4.99995" y1="351" x2="9.49995" y2="346.5" gradientUnits="userSpaceOnUse">
<stop stop-color="#68A2D8"/>
<stop offset="1" stop-color="#68A2D8"/>
</linearGradient>
<linearGradient id="paint2_linear_39_3" x1="350.5" y1="351" x2="346.5" y2="346" gradientUnits="userSpaceOnUse">
<stop stop-color="#4386C3"/>
<stop offset="1" stop-color="#4386C3"/>
</linearGradient>
<linearGradient id="paint3_linear_39_3" x1="350.5" y1="4.5" x2="346.5" y2="9.5" gradientUnits="userSpaceOnUse">
<stop stop-color="#89B5DC"/>
<stop offset="1" stop-color="#89B5DC"/>
</linearGradient>
<linearGradient id="paint4_linear_39_3" x1="17.1687" y1="338.721" x2="17.1686" y2="34.2827" gradientUnits="userSpaceOnUse">
<stop stop-color="#74AAE1"/>
<stop offset="1" stop-color="#A1CBF2"/>
</linearGradient>
<linearGradient id="paint5_linear_39_3" x1="342.364" y1="34.2829" x2="342.364" y2="330.813" gradientUnits="userSpaceOnUse">
<stop stop-color="#669CD0"/>
<stop offset="1" stop-color="#5692CC"/>
</linearGradient>
<linearGradient id="paint6_linear_39_3" x1="299.861" y1="350.582" x2="52.7524" y2="350.582" gradientUnits="userSpaceOnUse">
<stop stop-color="#4889C7"/>
<stop offset="1" stop-color="#5998D1"/>
</linearGradient>
<linearGradient id="paint7_linear_39_3" x1="327.537" y1="14.5147" x2="36.9374" y2="14.5147" gradientUnits="userSpaceOnUse">
<stop stop-color="#7CB3E2"/>
<stop offset="1" stop-color="#B2D5F2"/>
</linearGradient>
<radialGradient id="paint8_radial_39_3" cx="0" cy="0" r="1" gradientUnits="userSpaceOnUse" gradientTransform="translate(350 4.99984) rotate(175.236) scale(6.0208 9.94256)">
<stop stop-color="#95BEE4" stop-opacity="0.7"/>
<stop offset="0.548077" stop-color="#95BEE4" stop-opacity="0.9"/>
<stop offset="0.860577" stop-color="#BCD5ED" stop-opacity="0.9"/>
<stop offset="1" stop-color="#EDF3F9" stop-opacity="0.9"/>
</radialGradient>
<radialGradient id="paint9_radial_39_3" cx="0" cy="0" r="1" gradientUnits="userSpaceOnUse" gradientTransform="translate(348.5 348.5) rotate(-135) scale(2.12132 7.69983)">
<stop stop-color="#BED0E9" stop-opacity="0.7"/>
<stop offset="0.610577" stop-color="#BED0E9" stop-opacity="0.826971"/>
<stop offset="1" stop-color="#DBECF9" stop-opacity="0.9"/>
</radialGradient>
<radialGradient id="paint10_radial_39_3" cx="0" cy="0" r="1" gradientUnits="userSpaceOnUse" gradientTransform="translate(6 350) rotate(-48.8141) scale(5.31507 7.59296)">
<stop stop-color="#8EBDE6" stop-opacity="0.7"/>
<stop offset="0.769231" stop-color="#8EBDE6" stop-opacity="0.865385"/>
<stop offset="1" stop-color="#8EBDE6" stop-opacity="0.9"/>
</radialGradient>
<radialGradient id="paint11_radial_39_3" cx="0" cy="0" r="1" gradientUnits="userSpaceOnUse" gradientTransform="translate(7 6.50001) rotate(45) scale(4.24264 8.83594)">
<stop stop-color="#D7E8F9" stop-opacity="0.6"/>
<stop offset="0.649038" stop-color="#D7E8F9" stop-opacity="0.634615"/>
<stop offset="1" stop-color="#EEF6FB" stop-opacity="0.9"/>
</radialGradient>
<radialGradient id="paint12_radial_39_3" cx="0" cy="0" r="1" gradientUnits="userSpaceOnUse" gradientTransform="translate(268.231 22.421) rotate(-89.9999) scale(6.91905 100.326)">
<stop offset="0.00480769" stop-color="#DFE9F5"/>
<stop offset="0.504808" stop-color="#9DC7EE" stop-opacity="0.865385"/>
<stop offset="1" stop-color="#9DC7EE" stop-opacity="0.7"/>
</radialGradient>
<radialGradient id="paint13_radial_39_3" cx="0" cy="0" r="1" gradientUnits="userSpaceOnUse" gradientTransform="translate(141.711 22.4209) rotate(-90) scale(8.89591 128.99)">
<stop stop-color="#FCFEFE"/>
<stop offset="0.298077" stop-color="#9DC7EE" stop-opacity="0.865385"/>
<stop offset="1" stop-color="#9DC7EE" stop-opacity="0.9"/>
</radialGradient>
<radialGradient id="paint14_radial_39_3" cx="0" cy="0" r="1" gradientUnits="userSpaceOnUse" gradientTransform="translate(347.891 234.696) scale(6.91905 148.945)">
<stop stop-color="#D2E1F3"/>
<stop offset="0.423077" stop-color="#76ABDE" stop-opacity="0.772115"/>
<stop offset="1" stop-color="#76ABDE" stop-opacity="0.7"/>
</radialGradient>
<radialGradient id="paint15_radial_39_3" cx="0" cy="0" r="1" gradientUnits="userSpaceOnUse" gradientTransform="translate(346.903 94.3378) scale(6.91905 47.0651)">
<stop stop-color="#A2C6EC" stop-opacity="0.8"/>
<stop offset="0.548077" stop-color="#76ABDE" stop-opacity="0.772115"/>
<stop offset="1" stop-color="#76ABDE" stop-opacity="0.7"/>
</radialGradient>
<radialGradient id="paint16_radial_39_3" cx="0" cy="0" r="1" gradientUnits="userSpaceOnUse" gradientTransform="translate(76.4748 342.675) rotate(90) scale(6.91905 131.155)">
<stop stop-color="#C1D8F1" stop-opacity="0.9"/>
<stop offset="0.346154" stop-color="#71A8DB" stop-opacity="0.865385"/>
<stop offset="1" stop-color="#71A8DB" stop-opacity="0.7"/>
</radialGradient>
<radialGradient id="paint17_radial_39_3" cx="0" cy="0" r="1" gradientUnits="userSpaceOnUse" gradientTransform="translate(21.1225 96.5536) rotate(-180) scale(7.90754 145.909)">
<stop offset="0.0432692" stop-color="#E8F3FC" stop-opacity="0.9"/>
<stop offset="0.168269" stop-color="#D2E7F9" stop-opacity="0.876923"/>
<stop offset="1" stop-color="#D2E7F9" stop-opacity="0.7"/>
</radialGradient>
<radialGradient id="paint18_radial_39_3" cx="0" cy="0" r="1" gradientUnits="userSpaceOnUse" gradientTransform="translate(256.37 347.617) rotate(-90) scale(18.7804 246.232)">
<stop stop-color="#C1D8F1" stop-opacity="0.9"/>
<stop offset="0.129808" stop-color="#71A8DB" stop-opacity="0.865385"/>
<stop offset="1" stop-color="#71A8DB" stop-opacity="0.7"/>
</radialGradient>
<radialGradient id="paint19_radial_39_3" cx="0" cy="0" r="1" gradientUnits="userSpaceOnUse" gradientTransform="translate(20.134 254.703) rotate(180) scale(6.91905 26.5849)">
<stop stop-color="#E8F3FC" stop-opacity="0.9"/>
<stop offset="0.298077" stop-color="#D2E7F9" stop-opacity="0.876923"/>
<stop offset="1" stop-color="#D2E7F9" stop-opacity="0.7"/>
</radialGradient>
<radialGradient id="paint20_radial_39_3" cx="0" cy="0" r="1" gradientUnits="userSpaceOnUse" gradientTransform="translate(14.9377 101.926) rotate(90) scale(12.3045 11.8543)">
<stop stop-color="white"/>
<stop offset="1" stop-color="white" stop-opacity="0"/>
</radialGradient>
<radialGradient id="paint21_radial_39_3" cx="0" cy="0" r="1" gradientUnits="userSpaceOnUse" gradientTransform="translate(67.9614 89.6218) rotate(90) scale(17.8974 20.1346)">
<stop stop-color="white"/>
<stop offset="1" stop-color="white" stop-opacity="0"/>
</radialGradient>
<radialGradient id="paint22_radial_39_3" cx="0" cy="0" r="1" gradientUnits="userSpaceOnUse" gradientTransform="translate(75.7918 28.0994) rotate(90) scale(27.9647 30.2019)">
<stop stop-color="white"/>
<stop offset="1" stop-color="white" stop-opacity="0"/>
</radialGradient>
<radialGradient id="paint23_radial_39_3" cx="0" cy="0" r="1" gradientUnits="userSpaceOnUse" gradientTransform="translate(88.0961 122.061) rotate(90) scale(10.0673 11.1859)">
<stop stop-color="white"/>
<stop offset="1" stop-color="white" stop-opacity="0"/>
</radialGradient>
<radialGradient id="paint24_radial_39_3" cx="0" cy="0" r="1" gradientUnits="userSpaceOnUse" gradientTransform="translate(63.4873 39.2853) rotate(90) scale(16.7788 17.8974)">
<stop stop-color="white"/>
<stop offset="1" stop-color="white" stop-opacity="0"/>
</radialGradient>
<radialGradient id="paint25_radial_39_3" cx="0" cy="0" r="1" gradientUnits="userSpaceOnUse" gradientTransform="translate(283.849 33.6923) rotate(90) scale(15.6603 19.016)">
<stop stop-color="white"/>
<stop offset="1" stop-color="white" stop-opacity="0"/>
</radialGradient>
<radialGradient id="paint26_radial_39_3" cx="0" cy="0" r="1" gradientUnits="userSpaceOnUse" gradientTransform="translate(32.1801 70.6058) rotate(90) scale(12.3045 11.8543)">
<stop stop-color="white"/>
<stop offset="1" stop-color="white" stop-opacity="0"/>
</radialGradient>
<radialGradient id="paint27_radial_39_3" cx="0" cy="0" r="1" gradientUnits="userSpaceOnUse" gradientTransform="translate(108.231 23.625) rotate(90) scale(27.9647 33.5577)">
<stop stop-color="white"/>
<stop offset="1" stop-color="white" stop-opacity="0"/>
</radialGradient>
<radialGradient id="paint28_radial_39_3" cx="0" cy="0" r="1" gradientUnits="userSpaceOnUse" gradientTransform="translate(70.1988 7.96475) rotate(90) scale(27.9647 33.5577)">
<stop stop-color="white"/>
<stop offset="1" stop-color="white" stop-opacity="0"/>
</radialGradient>
<radialGradient id="paint29_radial_39_3" cx="0" cy="0" r="1" gradientUnits="userSpaceOnUse" gradientTransform="translate(130.753 166.804) rotate(90) scale(12.3045 11.8543)">
<stop stop-color="white"/>
<stop offset="1" stop-color="white" stop-opacity="0"/>
</radialGradient>
<radialGradient id="paint30_radial_39_3" cx="0" cy="0" r="1" gradientUnits="userSpaceOnUse" gradientTransform="translate(30.366 42.641) rotate(90) scale(42.5064 46.2015)">
<stop stop-color="white"/>
<stop offset="1" stop-color="white" stop-opacity="0"/>
</radialGradient>
<radialGradient id="paint31_radial_39_3" cx="0" cy="0" r="1" gradientUnits="userSpaceOnUse" gradientTransform="translate(337.596 301.752) rotate(90) scale(27.2477 27.3009)">
<stop stop-color="white"/>
<stop offset="1" stop-color="white" stop-opacity="0"/>
</radialGradient>
<radialGradient id="paint32_radial_39_3" cx="0" cy="0" r="1" gradientUnits="userSpaceOnUse" gradientTransform="translate(338.019 17.6818) rotate(90) scale(27.2477 27.3009)">
<stop stop-color="white"/>
<stop offset="1" stop-color="white" stop-opacity="0"/>
</radialGradient>
<radialGradient id="paint33_radial_39_3" cx="0" cy="0" r="1" gradientUnits="userSpaceOnUse" gradientTransform="translate(38.8781 15.7949) rotate(85.2364) scale(26.9392 33.8913)">
<stop stop-color="white" stop-opacity="0.9"/>
<stop offset="0.471154" stop-color="white" stop-opacity="0.826923"/>
<stop offset="1" stop-color="white" stop-opacity="0"/>
</radialGradient>
<radialGradient id="paint34_radial_39_3" cx="0" cy="0" r="1" gradientUnits="userSpaceOnUse" gradientTransform="translate(13.2053 147.387) rotate(90) scale(27.2477 27.3009)">
<stop stop-color="white"/>
<stop offset="1" stop-color="white" stop-opacity="0"/>
</radialGradient>
<radialGradient id="paint35_radial_39_3" cx="0" cy="0" r="1" gradientUnits="userSpaceOnUse" gradientTransform="translate(2.01931 80.2715) rotate(90) scale(27.2477 27.3009)">
<stop stop-color="white"/>
<stop offset="1" stop-color="white" stop-opacity="0"/>
</radialGradient>
<radialGradient id="paint36_radial_39_3" cx="0" cy="0" r="1" gradientUnits="userSpaceOnUse" gradientTransform="translate(129.539 98.169) rotate(90) scale(27.2477 27.3009)">
<stop stop-color="white"/>
<stop offset="1" stop-color="white" stop-opacity="0"/>
</radialGradient>
<radialGradient id="paint37_radial_39_3" cx="0" cy="0" r="1" gradientUnits="userSpaceOnUse" gradientTransform="translate(87.0321 53.4254) rotate(90) scale(27.2477 27.3009)">
<stop stop-color="white"/>
<stop offset="1" stop-color="white" stop-opacity="0"/>
</radialGradient>
<radialGradient id="paint38_radial_39_3" cx="0" cy="0" r="1" gradientUnits="userSpaceOnUse" gradientTransform="translate(69.1348 167.522) rotate(90) scale(27.2477 27.3009)">
<stop stop-color="white"/>
<stop offset="1" stop-color="white" stop-opacity="0"/>
</radialGradient>
<clipPath id="clip0_39_3">
<rect width="356" height="356" fill="white"/>
</clipPath>
</defs>
</svg>
