<svg width="356" height="448" viewBox="0 0 356 448" fill="none" xmlns="http://www.w3.org/2000/svg">
<g clip-path="url(#clip0_63_3)">
<path d="M5 14L-4.37114e-07 10L10 4.37114e-07L14 5L5 14Z" fill="url(#paint0_linear_63_3)"/>
<path d="M14 443L10 448L-4.37114e-07 438L5 434L14 443Z" fill="url(#paint1_linear_63_3)"/>
<path d="M351 434L356 438L346 448L342 443L351 434Z" fill="url(#paint2_linear_63_3)"/>
<path d="M342 5L346 -4.37114e-07L356 10L351 14L342 5Z" fill="url(#paint3_linear_63_3)"/>
<path d="M5 14L5 434L0 438L0 10L5 14Z" fill="url(#paint4_linear_63_3)"/>
<path d="M351 434L351 14L356 10L356 438L351 434Z" fill="url(#paint5_linear_63_3)"/>
<path d="M14 443L342 443L346 448L9.99994 448L14 443Z" fill="url(#paint6_linear_63_3)"/>
<path d="M342 5L14 5L10 4.00676e-06L346 3.7866e-06L342 5Z" fill="url(#paint7_linear_63_3)"/>
<path d="M355 11L351 14L342 5L345 0.999998L355 11Z" fill="url(#paint8_radial_63_3)"/>
<path d="M345 447L342 443L351 434L355 437L345 447Z" fill="url(#paint9_radial_63_3)"/>
<path d="M1 437L5 434L14 443L11 447L1 437Z" fill="url(#paint10_radial_63_3)"/>
<path d="M11 0.999997L14 5L5 14L1 11L11 0.999997Z" fill="url(#paint11_radial_63_3)"/>
<path d="M342 5.00001L222 5.00001L220.5 0.999995L345 1.00001L342 5.00001Z" fill="url(#paint12_radial_63_3)"/>
<path d="M222 4.99998L14 4.99999L11 1L220.5 1L222 4.99998Z" fill="url(#paint13_radial_63_3)"/>
<path d="M351 434L350 220L355 217L355 437L351 434Z" fill="url(#paint14_radial_63_3)"/>
<path d="M350 220L351 13.9999L355 10.9999L355 217L350 220Z" fill="url(#paint15_radial_63_3)"/>
<path d="M14 443L150.5 443L152 447L11 447L12.5 445L14 443Z" fill="url(#paint16_radial_63_3)"/>
<path d="M5.00006 14L5.00006 254L1.00006 255L1.00006 11L5.00006 14Z" fill="url(#paint17_radial_63_3)"/>
<path d="M150.5 443L342 443L345 447L152 447L151.289 445.5L150.5 443Z" fill="url(#paint18_radial_63_3)"/>
<path d="M5.00006 254L5.00006 434L1.00006 437L1.00006 255L5.00006 254Z" fill="url(#paint19_radial_63_3)"/>
<ellipse cx="20" cy="147" rx="17" ry="16" fill="url(#paint20_radial_63_3)" fill-opacity="0.25"/>
<ellipse cx="71.5" cy="131" rx="23.5" ry="23" fill="url(#paint21_radial_63_3)" fill-opacity="0.2"/>
<ellipse cx="85" cy="50.5" rx="39" ry="36.5" fill="url(#paint22_radial_63_3)" fill-opacity="0.25"/>
<ellipse cx="91.5" cy="173" rx="14.5" ry="13" fill="url(#paint23_radial_63_3)" fill-opacity="0.2"/>
<ellipse cx="70.5" cy="65" rx="24.5" ry="22" fill="url(#paint24_radial_63_3)" fill-opacity="0.25"/>
<ellipse cx="290" cy="58" rx="25" ry="20" fill="url(#paint25_radial_63_3)" fill-opacity="0.15"/>
<ellipse cx="36.5" cy="106" rx="16.5" ry="16" fill="url(#paint26_radial_63_3)" fill-opacity="0.25"/>
<ellipse cx="113.5" cy="44.5" rx="38.5" ry="36.5" fill="url(#paint27_radial_63_3)" fill-opacity="0.35"/>
<ellipse cx="78" cy="24.5" rx="41" ry="36.5" fill="url(#paint28_radial_63_3)" fill-opacity="0.35"/>
<ellipse cx="137" cy="231.5" rx="18" ry="16.5" fill="url(#paint29_radial_63_3)" fill-opacity="0.25"/>
<ellipse cx="39" cy="68" rx="56" ry="57" fill="url(#paint30_radial_63_3)" fill-opacity="0.5"/>
<ellipse cx="326" cy="406.5" rx="40" ry="36.5" fill="url(#paint31_radial_63_3)" fill-opacity="0.2"/>
<ellipse cx="328" cy="36.5" rx="38" ry="36.5" fill="url(#paint32_radial_63_3)" fill-opacity="0.15"/>
<ellipse cx="56.5" cy="37" rx="51.5" ry="46" fill="url(#paint33_radial_63_3)"/>
<ellipse cx="24" cy="205.5" rx="39" ry="36.5" fill="url(#paint34_radial_63_3)" fill-opacity="0.2"/>
<ellipse cx="13.5" cy="117.5" rx="39.5" ry="36.5" fill="url(#paint35_radial_63_3)" fill-opacity="0.2"/>
<ellipse cx="139" cy="141.5" rx="37" ry="36.5" fill="url(#paint36_radial_63_3)" fill-opacity="0.15"/>
<ellipse cx="100.5" cy="82.5" rx="41.5" ry="36.5" fill="url(#paint37_radial_63_3)" fill-opacity="0.2"/>
<circle cx="76.5" cy="230.5" r="35.5" fill="url(#paint38_radial_63_3)" fill-opacity="0.2"/>
</g>
<defs>
<linearGradient id="paint0_linear_63_3" x1="4.99994" y1="5" x2="9.49994" y2="10" gradientUnits="userSpaceOnUse">
<stop stop-color="#AED1F0"/>
<stop offset="1" stop-color="#AED1F0"/>
</linearGradient>
<linearGradient id="paint1_linear_63_3" x1="4.99995" y1="443" x2="9.49995" y2="438.5" gradientUnits="userSpaceOnUse">
<stop stop-color="#68A2D8"/>
<stop offset="1" stop-color="#68A2D8"/>
</linearGradient>
<linearGradient id="paint2_linear_63_3" x1="350.5" y1="443" x2="346.5" y2="438" gradientUnits="userSpaceOnUse">
<stop stop-color="#4386C3"/>
<stop offset="1" stop-color="#4386C3"/>
</linearGradient>
<linearGradient id="paint3_linear_63_3" x1="350.5" y1="4.5" x2="346.5" y2="9.5" gradientUnits="userSpaceOnUse">
<stop stop-color="#89B5DC"/>
<stop offset="1" stop-color="#89B5DC"/>
</linearGradient>
<linearGradient id="paint4_linear_63_3" x1="17.1687" y1="430.721" x2="17.1686" y2="126.283" gradientUnits="userSpaceOnUse">
<stop stop-color="#74AAE1"/>
<stop offset="1" stop-color="#A1CBF2"/>
</linearGradient>
<linearGradient id="paint5_linear_63_3" x1="342.364" y1="126.283" x2="342.364" y2="422.813" gradientUnits="userSpaceOnUse">
<stop stop-color="#669CD0"/>
<stop offset="1" stop-color="#5692CC"/>
</linearGradient>
<linearGradient id="paint6_linear_63_3" x1="299.861" y1="442.582" x2="52.7523" y2="442.582" gradientUnits="userSpaceOnUse">
<stop stop-color="#4889C7"/>
<stop offset="1" stop-color="#5998D1"/>
</linearGradient>
<linearGradient id="paint7_linear_63_3" x1="327.537" y1="14.5147" x2="36.9374" y2="14.5147" gradientUnits="userSpaceOnUse">
<stop stop-color="#7CB3E2"/>
<stop offset="1" stop-color="#B2D5F2"/>
</linearGradient>
<radialGradient id="paint8_radial_63_3" cx="0" cy="0" r="1" gradientUnits="userSpaceOnUse" gradientTransform="translate(350 4.99982) rotate(175.236) scale(6.0208 9.94256)">
<stop stop-color="#95BEE4" stop-opacity="0.7"/>
<stop offset="0.548077" stop-color="#95BEE4" stop-opacity="0.9"/>
<stop offset="0.860577" stop-color="#BCD5ED" stop-opacity="0.9"/>
<stop offset="1" stop-color="#EDF3F9" stop-opacity="0.9"/>
</radialGradient>
<radialGradient id="paint9_radial_63_3" cx="0" cy="0" r="1" gradientUnits="userSpaceOnUse" gradientTransform="translate(348.5 440.5) rotate(-135) scale(2.12132 7.69983)">
<stop stop-color="#BED0E9" stop-opacity="0.7"/>
<stop offset="0.610577" stop-color="#BED0E9" stop-opacity="0.826971"/>
<stop offset="1" stop-color="#DBECF9" stop-opacity="0.9"/>
</radialGradient>
<radialGradient id="paint10_radial_63_3" cx="0" cy="0" r="1" gradientUnits="userSpaceOnUse" gradientTransform="translate(6 442) rotate(-48.8141) scale(5.31507 7.59296)">
<stop stop-color="#8EBDE6" stop-opacity="0.7"/>
<stop offset="0.769231" stop-color="#8EBDE6" stop-opacity="0.865385"/>
<stop offset="1" stop-color="#8EBDE6" stop-opacity="0.9"/>
</radialGradient>
<radialGradient id="paint11_radial_63_3" cx="0" cy="0" r="1" gradientUnits="userSpaceOnUse" gradientTransform="translate(7 6.5) rotate(45) scale(4.24264 8.83594)">
<stop stop-color="#D7E8F9" stop-opacity="0.6"/>
<stop offset="0.649038" stop-color="#D7E8F9" stop-opacity="0.634615"/>
<stop offset="1" stop-color="#EEF6FB" stop-opacity="0.9"/>
</radialGradient>
<radialGradient id="paint12_radial_63_3" cx="0" cy="0" r="1" gradientUnits="userSpaceOnUse" gradientTransform="translate(268.231 22.421) rotate(-89.9999) scale(6.91905 100.326)">
<stop offset="0.00480769" stop-color="#DFE9F5"/>
<stop offset="0.504808" stop-color="#9DC7EE" stop-opacity="0.865385"/>
<stop offset="1" stop-color="#9DC7EE" stop-opacity="0.7"/>
</radialGradient>
<radialGradient id="paint13_radial_63_3" cx="0" cy="0" r="1" gradientUnits="userSpaceOnUse" gradientTransform="translate(141.711 22.4209) rotate(-90) scale(8.89591 128.99)">
<stop stop-color="#FCFEFE"/>
<stop offset="0.298077" stop-color="#9DC7EE" stop-opacity="0.865385"/>
<stop offset="1" stop-color="#9DC7EE" stop-opacity="0.9"/>
</radialGradient>
<radialGradient id="paint14_radial_63_3" cx="0" cy="0" r="1" gradientUnits="userSpaceOnUse" gradientTransform="translate(347.891 326.696) scale(6.91905 148.945)">
<stop stop-color="#D2E1F3"/>
<stop offset="0.423077" stop-color="#76ABDE" stop-opacity="0.772115"/>
<stop offset="1" stop-color="#76ABDE" stop-opacity="0.7"/>
</radialGradient>
<radialGradient id="paint15_radial_63_3" cx="0" cy="0" r="1" gradientUnits="userSpaceOnUse" gradientTransform="translate(346.902 94.3378) scale(6.91905 47.065)">
<stop stop-color="#A2C6EC" stop-opacity="0.8"/>
<stop offset="0.548077" stop-color="#76ABDE" stop-opacity="0.772115"/>
<stop offset="1" stop-color="#76ABDE" stop-opacity="0.7"/>
</radialGradient>
<radialGradient id="paint16_radial_63_3" cx="0" cy="0" r="1" gradientUnits="userSpaceOnUse" gradientTransform="translate(76.4748 434.675) rotate(90) scale(6.91905 131.155)">
<stop stop-color="#C1D8F1" stop-opacity="0.9"/>
<stop offset="0.346154" stop-color="#71A8DB" stop-opacity="0.865385"/>
<stop offset="1" stop-color="#71A8DB" stop-opacity="0.7"/>
</radialGradient>
<radialGradient id="paint17_radial_63_3" cx="0" cy="0" r="1" gradientUnits="userSpaceOnUse" gradientTransform="translate(21.1226 96.5536) rotate(-180) scale(7.90754 145.909)">
<stop offset="0.0432692" stop-color="#E8F3FC" stop-opacity="0.9"/>
<stop offset="0.168269" stop-color="#D2E7F9" stop-opacity="0.876923"/>
<stop offset="1" stop-color="#D2E7F9" stop-opacity="0.7"/>
</radialGradient>
<radialGradient id="paint18_radial_63_3" cx="0" cy="0" r="1" gradientUnits="userSpaceOnUse" gradientTransform="translate(256.37 439.617) rotate(-90) scale(18.7804 246.232)">
<stop stop-color="#C1D8F1" stop-opacity="0.9"/>
<stop offset="0.129808" stop-color="#71A8DB" stop-opacity="0.865385"/>
<stop offset="1" stop-color="#71A8DB" stop-opacity="0.7"/>
</radialGradient>
<radialGradient id="paint19_radial_63_3" cx="0" cy="0" r="1" gradientUnits="userSpaceOnUse" gradientTransform="translate(20.1341 346.703) rotate(180) scale(6.91905 26.5849)">
<stop stop-color="#E8F3FC" stop-opacity="0.9"/>
<stop offset="0.298077" stop-color="#D2E7F9" stop-opacity="0.876923"/>
<stop offset="1" stop-color="#D2E7F9" stop-opacity="0.7"/>
</radialGradient>
<radialGradient id="paint20_radial_63_3" cx="0" cy="0" r="1" gradientUnits="userSpaceOnUse" gradientTransform="translate(20 147) rotate(90) scale(16 17)">
<stop stop-color="white"/>
<stop offset="1" stop-color="white" stop-opacity="0"/>
</radialGradient>
<radialGradient id="paint21_radial_63_3" cx="0" cy="0" r="1" gradientUnits="userSpaceOnUse" gradientTransform="translate(71.5 131) rotate(90) scale(23 23.5)">
<stop stop-color="white"/>
<stop offset="1" stop-color="white" stop-opacity="0"/>
</radialGradient>
<radialGradient id="paint22_radial_63_3" cx="0" cy="0" r="1" gradientUnits="userSpaceOnUse" gradientTransform="translate(85 50.5) rotate(90) scale(36.5 39)">
<stop stop-color="white"/>
<stop offset="1" stop-color="white" stop-opacity="0"/>
</radialGradient>
<radialGradient id="paint23_radial_63_3" cx="0" cy="0" r="1" gradientUnits="userSpaceOnUse" gradientTransform="translate(91.5 173) rotate(90) scale(13 14.5)">
<stop stop-color="white"/>
<stop offset="1" stop-color="white" stop-opacity="0"/>
</radialGradient>
<radialGradient id="paint24_radial_63_3" cx="0" cy="0" r="1" gradientUnits="userSpaceOnUse" gradientTransform="translate(70.5 65) rotate(90) scale(22 24.5)">
<stop stop-color="white"/>
<stop offset="1" stop-color="white" stop-opacity="0"/>
</radialGradient>
<radialGradient id="paint25_radial_63_3" cx="0" cy="0" r="1" gradientUnits="userSpaceOnUse" gradientTransform="translate(290 58) rotate(90) scale(20 25)">
<stop stop-color="white"/>
<stop offset="1" stop-color="white" stop-opacity="0"/>
</radialGradient>
<radialGradient id="paint26_radial_63_3" cx="0" cy="0" r="1" gradientUnits="userSpaceOnUse" gradientTransform="translate(36.5 106) rotate(90) scale(16 16.5)">
<stop stop-color="white"/>
<stop offset="1" stop-color="white" stop-opacity="0"/>
</radialGradient>
<radialGradient id="paint27_radial_63_3" cx="0" cy="0" r="1" gradientUnits="userSpaceOnUse" gradientTransform="translate(113.5 44.5) rotate(90) scale(36.5 38.5)">
<stop stop-color="white"/>
<stop offset="1" stop-color="white" stop-opacity="0"/>
</radialGradient>
<radialGradient id="paint28_radial_63_3" cx="0" cy="0" r="1" gradientUnits="userSpaceOnUse" gradientTransform="translate(78 24.5) rotate(90) scale(36.5 41)">
<stop stop-color="white"/>
<stop offset="1" stop-color="white" stop-opacity="0"/>
</radialGradient>
<radialGradient id="paint29_radial_63_3" cx="0" cy="0" r="1" gradientUnits="userSpaceOnUse" gradientTransform="translate(137 231.5) rotate(90) scale(16.5 18)">
<stop stop-color="white"/>
<stop offset="1" stop-color="white" stop-opacity="0"/>
</radialGradient>
<radialGradient id="paint30_radial_63_3" cx="0" cy="0" r="1" gradientUnits="userSpaceOnUse" gradientTransform="translate(39 69.4615) rotate(90) scale(55.5385 54.5641)">
<stop stop-color="white"/>
<stop offset="1" stop-color="white" stop-opacity="0"/>
</radialGradient>
<radialGradient id="paint31_radial_63_3" cx="0" cy="0" r="1" gradientUnits="userSpaceOnUse" gradientTransform="translate(326 407.436) rotate(90) scale(35.5641 38.9744)">
<stop stop-color="white"/>
<stop offset="1" stop-color="white" stop-opacity="0"/>
</radialGradient>
<radialGradient id="paint32_radial_63_3" cx="0" cy="0" r="1" gradientUnits="userSpaceOnUse" gradientTransform="translate(328 37.4359) rotate(90) scale(35.5641 37.0256)">
<stop stop-color="white"/>
<stop offset="1" stop-color="white" stop-opacity="0"/>
</radialGradient>
<radialGradient id="paint33_radial_63_3" cx="0" cy="0" r="1" gradientTransform="matrix(2.64103 35.6129 -39.871 3.73361 44.6154 35.5161)" gradientUnits="userSpaceOnUse">
<stop stop-color="white" stop-opacity="0.9"/>
<stop offset="0.471154" stop-color="white" stop-opacity="0.826923"/>
<stop offset="1" stop-color="white" stop-opacity="0"/>
</radialGradient>
<radialGradient id="paint34_radial_63_3" cx="0" cy="0" r="1" gradientUnits="userSpaceOnUse" gradientTransform="translate(24 206.436) rotate(90) scale(35.5641 38)">
<stop stop-color="white"/>
<stop offset="1" stop-color="white" stop-opacity="0"/>
</radialGradient>
<radialGradient id="paint35_radial_63_3" cx="0" cy="0" r="1" gradientUnits="userSpaceOnUse" gradientTransform="translate(13.5 118.436) rotate(90) scale(35.5641 38.4872)">
<stop stop-color="white"/>
<stop offset="1" stop-color="white" stop-opacity="0"/>
</radialGradient>
<radialGradient id="paint36_radial_63_3" cx="0" cy="0" r="1" gradientUnits="userSpaceOnUse" gradientTransform="translate(139 142.436) rotate(90) scale(35.5641 36.0513)">
<stop stop-color="white"/>
<stop offset="1" stop-color="white" stop-opacity="0"/>
</radialGradient>
<radialGradient id="paint37_radial_63_3" cx="0" cy="0" r="1" gradientUnits="userSpaceOnUse" gradientTransform="translate(100.5 83.4359) rotate(90) scale(35.5641 40.4359)">
<stop stop-color="white"/>
<stop offset="1" stop-color="white" stop-opacity="0"/>
</radialGradient>
<radialGradient id="paint38_radial_63_3" cx="0" cy="0" r="1" gradientUnits="userSpaceOnUse" gradientTransform="translate(76.5 231.41) rotate(90) scale(34.5897)">
<stop stop-color="white"/>
<stop offset="1" stop-color="white" stop-opacity="0"/>
</radialGradient>
<clipPath id="clip0_63_3">
<rect width="356" height="448" fill="white"/>
</clipPath>
</defs>
</svg>
