<svg width="170" height="170" viewBox="0 0 170 170" fill="none" xmlns="http://www.w3.org/2000/svg">
<path d="M5.00006 14L6.0598e-05 10L10.0001 4.37114e-07L14.0001 5L5.00006 14Z" fill="url(#paint0_linear_26_381)"/>
<path d="M14.0001 165L10.0001 170L6.0598e-05 160L5.00006 156L14.0001 165Z" fill="url(#paint1_linear_26_381)"/>
<path d="M164 157L169 161L159 171L155 166L164 157Z" fill="url(#paint2_linear_26_381)"/>
<path d="M156 5L160 -4.37114e-07L170 10L165 14L156 5Z" fill="url(#paint3_linear_26_381)"/>
<path d="M5 14L5.00004 156L4.52614e-05 160L0 10L5 14Z" fill="url(#paint4_linear_26_381)"/>
<path d="M165 156L165 14L170 10L170 160L165 156Z" fill="url(#paint5_linear_26_381)"/>
<path d="M14.0001 165L156 165L160 170L10.0001 170L14.0001 165Z" fill="url(#paint6_linear_26_381)"/>
<path d="M156 5.00003L14 5.00028L9.99998 0.000286244L160 2.66084e-05L156 5.00003Z" fill="url(#paint7_linear_26_381)"/>
<path d="M169 11.0002L165 14.0002L156 5.00018L159 1.00017L169 11.0002Z" fill="url(#paint8_radial_26_381)"/>
<path d="M159 169L156 165L165 156L169 159L159 169Z" fill="url(#paint9_radial_26_381)"/>
<path d="M1 159L5 156L14 165L11 169L1 159Z" fill="url(#paint10_radial_26_381)"/>
<path d="M11 0.999997L14 5L5 14L1 11L11 0.999997Z" fill="url(#paint11_radial_26_381)"/>
<path d="M156 5.00019L110 5.00018L107 1.00018L159 1.00018L156 5.00019Z" fill="url(#paint12_radial_26_381)"/>
<path d="M110 5L14 5.00018L11 1.00018L107 1.00018L110 5Z" fill="url(#paint13_radial_26_381)"/>
<path d="M165 156L165 53.5L169 50.5V159L165 156Z" fill="url(#paint14_radial_26_381)"/>
<path d="M165 53.5L165 14L169 11L169 50.5L165 53.5Z" fill="url(#paint15_radial_26_381)"/>
<path d="M14 165L68.5 165.5L71.5 169.5L11 169L12.5 167L14 165Z" fill="url(#paint16_radial_26_381)"/>
<path d="M5 14L5 72L1 75L1 11L5 14Z" fill="url(#paint17_radial_26_381)"/>
<path d="M68.5 165.5L156 165L159 169L71.5 169.5L70 167.5L68.5 165.5Z" fill="url(#paint18_radial_26_381)"/>
<path d="M5 72L5.00001 156L1 159L1 75L5 72Z" fill="url(#paint19_radial_26_381)"/>
<ellipse cx="14.2988" cy="47.5" rx="5.29878" ry="5.5" fill="url(#paint20_radial_26_381)" fill-opacity="0.25"/>
<ellipse cx="38" cy="42" rx="9" ry="8" fill="url(#paint21_radial_26_381)" fill-opacity="0.2"/>
<ellipse cx="41.5" cy="14.5" rx="13.5" ry="12.5" fill="url(#paint22_radial_26_381)" fill-opacity="0.25"/>
<ellipse cx="47" cy="56.5" rx="5" ry="4.5" fill="url(#paint23_radial_26_381)" fill-opacity="0.2"/>
<ellipse cx="36" cy="19.5" rx="8" ry="7.5" fill="url(#paint24_radial_26_381)" fill-opacity="0.25"/>
<ellipse cx="134.5" cy="17" rx="8.5" ry="7" fill="url(#paint25_radial_26_381)" fill-opacity="0.15"/>
<ellipse cx="22.0061" cy="33.5" rx="5.29878" ry="5.5" fill="url(#paint26_radial_26_381)" fill-opacity="0.25"/>
<ellipse cx="56" cy="12.5" rx="15" ry="12.5" fill="url(#paint27_radial_26_381)" fill-opacity="0.35"/>
<ellipse cx="39" cy="5.5" rx="15" ry="12.5" fill="url(#paint28_radial_26_381)" fill-opacity="0.35"/>
<ellipse cx="66.0671" cy="76.5" rx="5.29878" ry="5.5" fill="url(#paint29_radial_26_381)" fill-opacity="0.25"/>
<ellipse cx="21.1951" cy="20.5" rx="21.1951" ry="19.5" fill="url(#paint30_radial_26_381)" fill-opacity="0.5"/>
<ellipse cx="158.524" cy="136.5" rx="12.5244" ry="12.5" fill="url(#paint31_radial_26_381)" fill-opacity="0.2"/>
<ellipse cx="157.524" cy="15.5" rx="12.5244" ry="12.5" fill="url(#paint32_radial_26_381)" fill-opacity="0.15"/>
<ellipse cx="29.5" cy="9.5" rx="19.5" ry="15.5" fill="url(#paint33_radial_26_381)"/>
<ellipse cx="13.5244" cy="67.5" rx="12.5244" ry="12.5" fill="url(#paint34_radial_26_381)" fill-opacity="0.2"/>
<ellipse cx="8.52439" cy="37.5" rx="12.5244" ry="12.5" fill="url(#paint35_radial_26_381)" fill-opacity="0.2"/>
<ellipse cx="65.5244" cy="45.5" rx="12.5244" ry="12.5" fill="url(#paint36_radial_26_381)" fill-opacity="0.15"/>
<ellipse cx="46.5244" cy="25.5" rx="12.5244" ry="12.5" fill="url(#paint37_radial_26_381)" fill-opacity="0.2"/>
<ellipse cx="38.5244" cy="76.5" rx="12.5244" ry="12.5" fill="url(#paint38_radial_26_381)" fill-opacity="0.2"/>
<defs>
<linearGradient id="paint0_linear_26_381" x1="5" y1="5" x2="9.5" y2="10" gradientUnits="userSpaceOnUse">
<stop stop-color="#AED1F0"/>
<stop offset="1" stop-color="#AED1F0"/>
</linearGradient>
<linearGradient id="paint1_linear_26_381" x1="5.00002" y1="165" x2="9.50002" y2="160.5" gradientUnits="userSpaceOnUse">
<stop stop-color="#68A2D8"/>
<stop offset="1" stop-color="#68A2D8"/>
</linearGradient>
<linearGradient id="paint2_linear_26_381" x1="163.5" y1="166" x2="159.5" y2="161" gradientUnits="userSpaceOnUse">
<stop stop-color="#4386C3"/>
<stop offset="1" stop-color="#4386C3"/>
</linearGradient>
<linearGradient id="paint3_linear_26_381" x1="164.5" y1="4.5" x2="160.5" y2="9.5" gradientUnits="userSpaceOnUse">
<stop stop-color="#89B5DC"/>
<stop offset="1" stop-color="#89B5DC"/>
</linearGradient>
<linearGradient id="paint4_linear_26_381" x1="3" y1="164" x2="3" y2="10" gradientUnits="userSpaceOnUse">
<stop stop-color="#74AAE1"/>
<stop offset="1" stop-color="#A1CBF2"/>
</linearGradient>
<linearGradient id="paint5_linear_26_381" x1="167.5" y1="10" x2="167.5" y2="160" gradientUnits="userSpaceOnUse">
<stop stop-color="#669CD0"/>
<stop offset="1" stop-color="#5692CC"/>
</linearGradient>
<linearGradient id="paint6_linear_26_381" x1="146" y1="170" x2="21" y2="170" gradientUnits="userSpaceOnUse">
<stop stop-color="#4889C7"/>
<stop offset="1" stop-color="#5998D1"/>
</linearGradient>
<linearGradient id="paint7_linear_26_381" x1="160" y1="3.05176e-05" x2="13" y2="5.92007e-05" gradientUnits="userSpaceOnUse">
<stop stop-color="#7CB3E2"/>
<stop offset="1" stop-color="#B2D5F2"/>
</linearGradient>
<radialGradient id="paint8_radial_26_381" cx="0" cy="0" r="1" gradientUnits="userSpaceOnUse" gradientTransform="translate(164 5) rotate(175.236) scale(6.0208 9.94256)">
<stop stop-color="#95BEE4" stop-opacity="0.7"/>
<stop offset="0.548077" stop-color="#95BEE4" stop-opacity="0.9"/>
<stop offset="0.860577" stop-color="#BCD5ED" stop-opacity="0.9"/>
<stop offset="1" stop-color="#EDF3F9" stop-opacity="0.9"/>
</radialGradient>
<radialGradient id="paint9_radial_26_381" cx="0" cy="0" r="1" gradientUnits="userSpaceOnUse" gradientTransform="translate(162.5 162.5) rotate(-135) scale(2.12132 7.69983)">
<stop stop-color="#BED0E9" stop-opacity="0.7"/>
<stop offset="0.610577" stop-color="#BED0E9" stop-opacity="0.826971"/>
<stop offset="1" stop-color="#DBECF9" stop-opacity="0.9"/>
</radialGradient>
<radialGradient id="paint10_radial_26_381" cx="0" cy="0" r="1" gradientUnits="userSpaceOnUse" gradientTransform="translate(6 164) rotate(-48.8141) scale(5.31507 7.59296)">
<stop stop-color="#8EBDE6" stop-opacity="0.7"/>
<stop offset="0.769231" stop-color="#8EBDE6" stop-opacity="0.865385"/>
<stop offset="1" stop-color="#8EBDE6" stop-opacity="0.9"/>
</radialGradient>
<radialGradient id="paint11_radial_26_381" cx="0" cy="0" r="1" gradientUnits="userSpaceOnUse" gradientTransform="translate(7 6.5) rotate(45) scale(4.24264 8.83594)">
<stop stop-color="#D7E8F9" stop-opacity="0.6"/>
<stop offset="0.649038" stop-color="#D7E8F9" stop-opacity="0.634615"/>
<stop offset="1" stop-color="#EEF6FB" stop-opacity="0.9"/>
</radialGradient>
<radialGradient id="paint12_radial_26_381" cx="0" cy="0" r="1" gradientUnits="userSpaceOnUse" gradientTransform="translate(130 4) rotate(-89.9999) scale(3.5 50.7499)">
<stop offset="0.00480769" stop-color="#DFE9F5"/>
<stop offset="0.504808" stop-color="#9DC7EE" stop-opacity="0.865385"/>
<stop offset="1" stop-color="#9DC7EE" stop-opacity="0.7"/>
</radialGradient>
<radialGradient id="paint13_radial_26_381" cx="0" cy="0" r="1" gradientUnits="userSpaceOnUse" gradientTransform="translate(66 3.99999) rotate(-90) scale(4.49999 65.2498)">
<stop stop-color="#FCFEFE"/>
<stop offset="0.298077" stop-color="#9DC7EE" stop-opacity="0.865385"/>
<stop offset="1" stop-color="#9DC7EE" stop-opacity="0.9"/>
</radialGradient>
<radialGradient id="paint14_radial_26_381" cx="0" cy="0" r="1" gradientUnits="userSpaceOnUse" gradientTransform="translate(166.5 106) scale(3.5 75.3438)">
<stop stop-color="#D2E1F3"/>
<stop offset="0.423077" stop-color="#76ABDE" stop-opacity="0.772115"/>
<stop offset="1" stop-color="#76ABDE" stop-opacity="0.7"/>
</radialGradient>
<radialGradient id="paint15_radial_26_381" cx="0" cy="0" r="1" gradientUnits="userSpaceOnUse" gradientTransform="translate(166 35) scale(3.5 23.8078)">
<stop stop-color="#A2C6EC" stop-opacity="0.8"/>
<stop offset="0.548077" stop-color="#76ABDE" stop-opacity="0.772115"/>
<stop offset="1" stop-color="#76ABDE" stop-opacity="0.7"/>
</radialGradient>
<radialGradient id="paint16_radial_26_381" cx="0" cy="0" r="1" gradientUnits="userSpaceOnUse" gradientTransform="translate(33 166) rotate(90) scale(3.5 66.3448)">
<stop stop-color="#C1D8F1" stop-opacity="0.9"/>
<stop offset="0.346154" stop-color="#71A8DB" stop-opacity="0.865385"/>
<stop offset="1" stop-color="#71A8DB" stop-opacity="0.7"/>
</radialGradient>
<radialGradient id="paint17_radial_26_381" cx="0" cy="0" r="1" gradientUnits="userSpaceOnUse" gradientTransform="translate(5.00003 41.5) rotate(-180) scale(4.00003 73.8081)">
<stop offset="0.0432692" stop-color="#E8F3FC" stop-opacity="0.9"/>
<stop offset="0.168269" stop-color="#D2E7F9" stop-opacity="0.876923"/>
<stop offset="1" stop-color="#D2E7F9" stop-opacity="0.7"/>
</radialGradient>
<radialGradient id="paint18_radial_26_381" cx="0" cy="0" r="1" gradientUnits="userSpaceOnUse" gradientTransform="translate(124 168.5) rotate(-90) scale(9.50005 124.556)">
<stop stop-color="#C1D8F1" stop-opacity="0.9"/>
<stop offset="0.129808" stop-color="#71A8DB" stop-opacity="0.865385"/>
<stop offset="1" stop-color="#71A8DB" stop-opacity="0.7"/>
</radialGradient>
<radialGradient id="paint19_radial_26_381" cx="0" cy="0" r="1" gradientUnits="userSpaceOnUse" gradientTransform="translate(4.5 121.5) rotate(180) scale(3.5 13.448)">
<stop stop-color="#E8F3FC" stop-opacity="0.9"/>
<stop offset="0.298077" stop-color="#D2E7F9" stop-opacity="0.876923"/>
<stop offset="1" stop-color="#D2E7F9" stop-opacity="0.7"/>
</radialGradient>
<radialGradient id="paint20_radial_26_381" cx="0" cy="0" r="1" gradientUnits="userSpaceOnUse" gradientTransform="translate(14.2988 47.5) rotate(90) scale(5.5 5.29878)">
<stop stop-color="white"/>
<stop offset="1" stop-color="white" stop-opacity="0"/>
</radialGradient>
<radialGradient id="paint21_radial_26_381" cx="0" cy="0" r="1" gradientUnits="userSpaceOnUse" gradientTransform="translate(38 42) rotate(90) scale(8 9)">
<stop stop-color="white"/>
<stop offset="1" stop-color="white" stop-opacity="0"/>
</radialGradient>
<radialGradient id="paint22_radial_26_381" cx="0" cy="0" r="1" gradientUnits="userSpaceOnUse" gradientTransform="translate(41.5 14.5) rotate(90) scale(12.5 13.5)">
<stop stop-color="white"/>
<stop offset="1" stop-color="white" stop-opacity="0"/>
</radialGradient>
<radialGradient id="paint23_radial_26_381" cx="0" cy="0" r="1" gradientUnits="userSpaceOnUse" gradientTransform="translate(47 56.5) rotate(90) scale(4.5 5)">
<stop stop-color="white"/>
<stop offset="1" stop-color="white" stop-opacity="0"/>
</radialGradient>
<radialGradient id="paint24_radial_26_381" cx="0" cy="0" r="1" gradientUnits="userSpaceOnUse" gradientTransform="translate(36 19.5) rotate(90) scale(7.5 8)">
<stop stop-color="white"/>
<stop offset="1" stop-color="white" stop-opacity="0"/>
</radialGradient>
<radialGradient id="paint25_radial_26_381" cx="0" cy="0" r="1" gradientUnits="userSpaceOnUse" gradientTransform="translate(134.5 17) rotate(90) scale(7 8.5)">
<stop stop-color="white"/>
<stop offset="1" stop-color="white" stop-opacity="0"/>
</radialGradient>
<radialGradient id="paint26_radial_26_381" cx="0" cy="0" r="1" gradientUnits="userSpaceOnUse" gradientTransform="translate(22.0061 33.5) rotate(90) scale(5.5 5.29878)">
<stop stop-color="white"/>
<stop offset="1" stop-color="white" stop-opacity="0"/>
</radialGradient>
<radialGradient id="paint27_radial_26_381" cx="0" cy="0" r="1" gradientUnits="userSpaceOnUse" gradientTransform="translate(56 12.5) rotate(90) scale(12.5 15)">
<stop stop-color="white"/>
<stop offset="1" stop-color="white" stop-opacity="0"/>
</radialGradient>
<radialGradient id="paint28_radial_26_381" cx="0" cy="0" r="1" gradientUnits="userSpaceOnUse" gradientTransform="translate(39 5.5) rotate(90) scale(12.5 15)">
<stop stop-color="white"/>
<stop offset="1" stop-color="white" stop-opacity="0"/>
</radialGradient>
<radialGradient id="paint29_radial_26_381" cx="0" cy="0" r="1" gradientUnits="userSpaceOnUse" gradientTransform="translate(66.0671 76.5) rotate(90) scale(5.5 5.29878)">
<stop stop-color="white"/>
<stop offset="1" stop-color="white" stop-opacity="0"/>
</radialGradient>
<radialGradient id="paint30_radial_26_381" cx="0" cy="0" r="1" gradientUnits="userSpaceOnUse" gradientTransform="translate(21.1951 21) rotate(90) scale(19 20.6517)">
<stop stop-color="white"/>
<stop offset="1" stop-color="white" stop-opacity="0"/>
</radialGradient>
<radialGradient id="paint31_radial_26_381" cx="0" cy="0" r="1" gradientUnits="userSpaceOnUse" gradientTransform="translate(158.524 136.821) rotate(90) scale(12.1795 12.2033)">
<stop stop-color="white"/>
<stop offset="1" stop-color="white" stop-opacity="0"/>
</radialGradient>
<radialGradient id="paint32_radial_26_381" cx="0" cy="0" r="1" gradientUnits="userSpaceOnUse" gradientTransform="translate(157.524 15.8205) rotate(90) scale(12.1795 12.2033)">
<stop stop-color="white"/>
<stop offset="1" stop-color="white" stop-opacity="0"/>
</radialGradient>
<radialGradient id="paint33_radial_26_381" cx="0" cy="0" r="1" gradientUnits="userSpaceOnUse" gradientTransform="translate(25 9) rotate(85.2364) scale(12.0416 15.1491)">
<stop stop-color="white" stop-opacity="0.9"/>
<stop offset="0.471154" stop-color="white" stop-opacity="0.826923"/>
<stop offset="1" stop-color="white" stop-opacity="0"/>
</radialGradient>
<radialGradient id="paint34_radial_26_381" cx="0" cy="0" r="1" gradientUnits="userSpaceOnUse" gradientTransform="translate(13.5244 67.8205) rotate(90) scale(12.1795 12.2033)">
<stop stop-color="white"/>
<stop offset="1" stop-color="white" stop-opacity="0"/>
</radialGradient>
<radialGradient id="paint35_radial_26_381" cx="0" cy="0" r="1" gradientUnits="userSpaceOnUse" gradientTransform="translate(8.52439 37.8205) rotate(90) scale(12.1795 12.2033)">
<stop stop-color="white"/>
<stop offset="1" stop-color="white" stop-opacity="0"/>
</radialGradient>
<radialGradient id="paint36_radial_26_381" cx="0" cy="0" r="1" gradientUnits="userSpaceOnUse" gradientTransform="translate(65.5244 45.8205) rotate(90) scale(12.1795 12.2033)">
<stop stop-color="white"/>
<stop offset="1" stop-color="white" stop-opacity="0"/>
</radialGradient>
<radialGradient id="paint37_radial_26_381" cx="0" cy="0" r="1" gradientUnits="userSpaceOnUse" gradientTransform="translate(46.5244 25.8205) rotate(90) scale(12.1795 12.2033)">
<stop stop-color="white"/>
<stop offset="1" stop-color="white" stop-opacity="0"/>
</radialGradient>
<radialGradient id="paint38_radial_26_381" cx="0" cy="0" r="1" gradientUnits="userSpaceOnUse" gradientTransform="translate(38.5244 76.8205) rotate(90) scale(12.1795 12.2033)">
<stop stop-color="white"/>
<stop offset="1" stop-color="white" stop-opacity="0"/>
</radialGradient>
</defs>
</svg>
