<svg width="260" height="80" viewBox="0 0 260 80" fill="none" xmlns="http://www.w3.org/2000/svg">
<path d="M5.00006 14L6.0598e-05 10L10.0001 4.37114e-07L14.0001 5L5.00006 14Z" fill="#D0C6EC"/>
<path d="M14.0001 75L10.0001 80L6.0598e-05 70L5.00006 66L14.0001 75Z" fill="#B5A9E1"/>
<path d="M255 66L260 70L250 80L246 75L255 66Z" fill="#A495D0"/>
<path d="M246 5L250 -4.37114e-07L260 10L255 14L246 5Z" fill="#A69CDA"/>
<path d="M5 14L5.00004 66L4.52614e-05 70L0 10L5 14Z" fill="url(#paint0_linear_26_379)"/>
<path d="M255 66L255 14L260 9.99998L260 70L255 66Z" fill="url(#paint1_linear_26_379)"/>
<path d="M14.0001 75L246 75L250 80L10.0001 80L14.0001 75Z" fill="url(#paint2_linear_26_379)"/>
<path d="M246 5.00001L14 5.00003L9.99998 2.64661e-05L250 0L246 5.00001Z" fill="url(#paint3_linear_26_379)"/>
<path d="M249 79L246 75L255 66L259 69L249 79Z" fill="url(#paint4_radial_26_379)"/>
<path d="M1.00006 69L5.00006 66L14.0001 75L11.0001 79L1.00006 69Z" fill="url(#paint5_radial_26_379)"/>
<path d="M255 66L255 36.5L259 33.5L259 69L255 66Z" fill="url(#paint6_radial_26_379)"/>
<path d="M83.5 75.0001L158 75.5002L161 79.5002L80.5 79.0001L82 77.0001L83.5 75.0001Z" fill="url(#paint7_radial_26_379)"/>
<path d="M14 74.9999L83.5 74.9999L80.5 79.0001L11 78.9999L12.5 76.9999L14 74.9999Z" fill="url(#paint8_radial_26_379)"/>
<path d="M158 75.5L246 75L249 79L161 79.5L159.5 77.5L158 75.5Z" fill="url(#paint9_radial_26_379)"/>
<path d="M5 35.5L5.00002 66L1.00002 69L1 38.5L5 35.5Z" fill="url(#paint10_radial_26_379)"/>
<path d="M246 4.99999L152 4.99999L149 0.999992L249 0.999985L246 4.99999Z" fill="url(#paint11_radial_26_379)"/>
<path d="M11 0.999982L14 4.99998L5 14L1 11L11 0.999982Z" fill="url(#paint12_radial_26_379)"/>
<path d="M259 11L255 14L246 4.99998L249 0.999983L259 11Z" fill="url(#paint13_radial_26_379)"/>
<path d="M152 4.99982L14 5L11 0.999994L149 1L152 4.99982Z" fill="url(#paint14_radial_26_379)"/>
<path d="M255 36.5L255 14L259 11L259 33.5L255 36.5Z" fill="url(#paint15_radial_26_379)"/>
<path d="M5 14L5 35.5L1 38.5L1 11L5 14Z" fill="url(#paint16_radial_26_379)"/>
<circle cx="105" cy="17" r="7" fill="url(#paint17_radial_26_379)" fill-opacity="0.05"/>
<ellipse cx="43.5" cy="69" rx="13.5" ry="13" fill="url(#paint18_radial_26_379)" fill-opacity="0.1"/>
<ellipse cx="237" cy="64" rx="53" ry="36" fill="url(#paint19_radial_26_379)" fill-opacity="0.1"/>
<ellipse cx="201" cy="4.5" rx="51" ry="15.5" fill="url(#paint20_radial_26_379)" fill-opacity="0.1"/>
<ellipse cy="14.5" rx="56" ry="37.5" fill="url(#paint21_radial_26_379)" fill-opacity="0.2"/>
<ellipse cx="23" cy="61" rx="53" ry="33" fill="url(#paint22_radial_26_379)" fill-opacity="0.15"/>
<ellipse cx="14.5" cy="14" rx="17.5" ry="16" fill="url(#paint23_radial_26_379)" fill-opacity="0.7"/>
<defs>
<linearGradient id="paint0_linear_26_379" x1="3" y1="70" x2="2" y2="11" gradientUnits="userSpaceOnUse">
<stop stop-color="#C4B7EB"/>
<stop offset="1" stop-color="#DAD3F2"/>
</linearGradient>
<linearGradient id="paint1_linear_26_379" x1="257" y1="70" x2="257" y2="10" gradientUnits="userSpaceOnUse">
<stop stop-color="#A69CDA"/>
<stop offset="1" stop-color="#A69CDA"/>
</linearGradient>
<linearGradient id="paint2_linear_26_379" x1="250" y1="79.9997" x2="10" y2="82.9997" gradientUnits="userSpaceOnUse">
<stop stop-color="#998AD0"/>
<stop offset="1" stop-color="#A99CDB"/>
</linearGradient>
<linearGradient id="paint3_linear_26_379" x1="244" y1="6.4999" x2="9.99999" y2="4.99982" gradientUnits="userSpaceOnUse">
<stop stop-color="#B4A8DE"/>
<stop offset="1" stop-color="#D2C9EB"/>
</linearGradient>
<radialGradient id="paint4_radial_26_379" cx="0" cy="0" r="1" gradientUnits="userSpaceOnUse" gradientTransform="translate(253 73) rotate(-135) scale(2.82843 10.2664)">
<stop stop-color="#DED7EF" stop-opacity="0.7"/>
<stop offset="0.610577" stop-color="#DED7EF" stop-opacity="0.826971"/>
<stop offset="1" stop-color="#F3EFFA" stop-opacity="0.9"/>
</radialGradient>
<radialGradient id="paint5_radial_26_379" cx="0" cy="0" r="1" gradientUnits="userSpaceOnUse" gradientTransform="translate(6.00006 74) rotate(-48.8141) scale(5.31507 7.59296)">
<stop stop-color="#CDC1EC" stop-opacity="0.7"/>
<stop offset="0.769231" stop-color="#CDC1EC" stop-opacity="0.865385"/>
<stop offset="1" stop-color="#CEC4EE" stop-opacity="0.9"/>
</radialGradient>
<radialGradient id="paint6_radial_26_379" cx="0" cy="0" r="1" gradientUnits="userSpaceOnUse" gradientTransform="translate(255.5 59) scale(4 35.7974)">
<stop stop-color="#D1C7EF"/>
<stop offset="0.423077" stop-color="#B6A9E3" stop-opacity="0.772115"/>
<stop offset="1" stop-color="#B6A9E3" stop-opacity="0.7"/>
</radialGradient>
<radialGradient id="paint7_radial_26_379" cx="0" cy="0" r="1" gradientUnits="userSpaceOnUse" gradientTransform="translate(119 75) rotate(90) scale(5.5 104.256)">
<stop stop-color="#C8BFE6" stop-opacity="0.9"/>
<stop offset="0.346154" stop-color="#B9ACE2" stop-opacity="0.7"/>
<stop offset="1" stop-color="#B9ACE2" stop-opacity="0.6"/>
</radialGradient>
<radialGradient id="paint8_radial_26_379" cx="0" cy="0" r="1" gradientUnits="userSpaceOnUse" gradientTransform="translate(44 75) rotate(90) scale(5.49996 56.6383)">
<stop stop-color="#D3C9EE" stop-opacity="0.9"/>
<stop offset="0.346154" stop-color="#B9ACE2" stop-opacity="0.865385"/>
<stop offset="1" stop-color="#B9ACE2" stop-opacity="0.6"/>
</radialGradient>
<radialGradient id="paint9_radial_26_379" cx="0" cy="0" r="1" gradientUnits="userSpaceOnUse" gradientTransform="translate(213.5 77.5) rotate(-90) scale(3.5 62.7876)">
<stop stop-color="#CAC0E9" stop-opacity="0.9"/>
<stop offset="0.375" stop-color="#B9ACE2" stop-opacity="0.7"/>
<stop offset="1" stop-color="#B9ACE2" stop-opacity="0.6"/>
</radialGradient>
<radialGradient id="paint10_radial_26_379" cx="0" cy="0" r="1" gradientUnits="userSpaceOnUse" gradientTransform="translate(5 51.5) rotate(180) scale(4.5 17.2902)">
<stop stop-color="#EBE5FA" stop-opacity="0.9"/>
<stop offset="0.298077" stop-color="#DED6F4" stop-opacity="0.876923"/>
<stop offset="1" stop-color="#DED6F4" stop-opacity="0.6"/>
</radialGradient>
<radialGradient id="paint11_radial_26_379" cx="0" cy="0" r="1" gradientUnits="userSpaceOnUse" gradientTransform="translate(201.5 4) rotate(-90.0001) scale(3.5 50.7499)">
<stop offset="0.00480769" stop-color="#F8F6FD"/>
<stop offset="0.221154" stop-color="#E1DAF4" stop-opacity="0.937256"/>
<stop offset="0.572115" stop-color="#C6BAE9" stop-opacity="0.865385"/>
<stop offset="1" stop-color="#C6BAE9" stop-opacity="0.7"/>
</radialGradient>
<radialGradient id="paint12_radial_26_379" cx="0" cy="0" r="1" gradientUnits="userSpaceOnUse" gradientTransform="translate(7 6.49998) rotate(45) scale(4.24264 8.83594)">
<stop stop-color="#E4DDF7" stop-opacity="0.6"/>
<stop offset="0.649038" stop-color="#E4DDF7" stop-opacity="0.634615"/>
<stop offset="1" stop-color="#FAF7FC" stop-opacity="0.9"/>
</radialGradient>
<radialGradient id="paint13_radial_26_379" cx="0" cy="0" r="1" gradientUnits="userSpaceOnUse" gradientTransform="translate(254 4.99981) rotate(175.236) scale(6.0208 9.94256)">
<stop stop-color="#C4B8E7" stop-opacity="0.7"/>
<stop offset="0.548077" stop-color="#C4B8E7" stop-opacity="0.9"/>
<stop offset="0.860577" stop-color="#DDD4F4" stop-opacity="0.9"/>
<stop offset="1" stop-color="#DDD4F4" stop-opacity="0.9"/>
</radialGradient>
<radialGradient id="paint14_radial_26_379" cx="0" cy="0" r="1" gradientUnits="userSpaceOnUse" gradientTransform="translate(66 4) rotate(-89.9999) scale(4.5002 105.193)">
<stop stop-color="#FBFAFE"/>
<stop offset="0.0769231" stop-color="#EDE9F9" stop-opacity="0.964816"/>
<stop offset="0.677885" stop-color="#C6BAE9" stop-opacity="0.865385"/>
<stop offset="1" stop-color="#C6BAE9" stop-opacity="0.9"/>
</radialGradient>
<radialGradient id="paint15_radial_26_379" cx="0" cy="0" r="1" gradientUnits="userSpaceOnUse" gradientTransform="translate(256 25) scale(3 20.4067)">
<stop stop-color="#EDE9F9" stop-opacity="0.8"/>
<stop offset="0.528846" stop-color="#B6A9E3" stop-opacity="0.772115"/>
<stop offset="1" stop-color="#B6A9E3" stop-opacity="0.7"/>
</radialGradient>
<radialGradient id="paint16_radial_26_379" cx="0" cy="0" r="1" gradientUnits="userSpaceOnUse" gradientTransform="translate(5.00003 15.5) rotate(-180) scale(4.00003 73.8081)">
<stop offset="0.0432692" stop-color="#EBE5FA" stop-opacity="0.9"/>
<stop offset="0.168269" stop-color="#DED6F4" stop-opacity="0.876923"/>
<stop offset="1" stop-color="#DED6F4" stop-opacity="0.6"/>
</radialGradient>
<radialGradient id="paint17_radial_26_379" cx="0" cy="0" r="1" gradientUnits="userSpaceOnUse" gradientTransform="translate(105 17) rotate(90) scale(7)">
<stop stop-color="white"/>
<stop offset="1" stop-color="white" stop-opacity="0"/>
</radialGradient>
<radialGradient id="paint18_radial_26_379" cx="0" cy="0" r="1" gradientUnits="userSpaceOnUse" gradientTransform="translate(43.5 69) rotate(90) scale(13 13.5)">
<stop stop-color="white"/>
<stop offset="1" stop-color="white" stop-opacity="0"/>
</radialGradient>
<radialGradient id="paint19_radial_26_379" cx="0" cy="0" r="1" gradientUnits="userSpaceOnUse" gradientTransform="translate(237 64.9231) rotate(90) scale(35.0769 51.641)">
<stop stop-color="white"/>
<stop offset="1" stop-color="white" stop-opacity="0"/>
</radialGradient>
<radialGradient id="paint20_radial_26_379" cx="0" cy="0" r="1" gradientUnits="userSpaceOnUse" gradientTransform="translate(201 4.89744) rotate(90) scale(15.1026 49.6923)">
<stop stop-color="white"/>
<stop offset="1" stop-color="white" stop-opacity="0"/>
</radialGradient>
<radialGradient id="paint21_radial_26_379" cx="0" cy="0" r="1" gradientUnits="userSpaceOnUse" gradientTransform="translate(-6.50455e-06 15.4615) rotate(90) scale(36.5385 54.5641)">
<stop stop-color="white"/>
<stop offset="1" stop-color="white" stop-opacity="0"/>
</radialGradient>
<radialGradient id="paint22_radial_26_379" cx="0" cy="0" r="1" gradientUnits="userSpaceOnUse" gradientTransform="translate(23 61.8462) rotate(90) scale(32.1538 51.641)">
<stop stop-color="white"/>
<stop offset="1" stop-color="white" stop-opacity="0"/>
</radialGradient>
<radialGradient id="paint23_radial_26_379" cx="0" cy="0" r="1" gradientUnits="userSpaceOnUse" gradientTransform="translate(11.5 11.5) rotate(61.5571) scale(13.6473 12.6493)">
<stop stop-color="white" stop-opacity="0.9"/>
<stop offset="0.153846" stop-color="white" stop-opacity="0.6"/>
<stop offset="1" stop-color="white" stop-opacity="0"/>
</radialGradient>
</defs>
</svg>
