<svg width="170" height="80" viewBox="0 0 170 80" fill="none" xmlns="http://www.w3.org/2000/svg">
<g clip-path="url(#clip0_62_73)">
<path d="M5.00006 14L6.0598e-05 10L10.0001 4.37114e-07L14.0001 5L5.00006 14Z" fill="#D0C6EC"/>
<path d="M14.0001 75L10.0001 80L6.0598e-05 70L5.00006 66L14.0001 75Z" fill="#B5A9E1"/>
<path d="M5 14L5.00004 66L4.52614e-05 70L0 10L5 14Z" fill="url(#paint0_linear_62_73)"/>
<path d="M14.0001 75L156 75L160 80L10.0001 80L14.0001 75Z" fill="url(#paint1_linear_62_73)"/>
<path d="M156 5.00001L14 5.00003L9.99998 2.64661e-05L160 0L156 5.00001Z" fill="url(#paint2_linear_62_73)"/>
<path d="M165 66L165 14L170 9.99998L170 70L165 66Z" fill="url(#paint3_linear_62_73)"/>
<path d="M165 66L170 70L160 80L156 75L165 66Z" fill="#A495D0"/>
<path d="M156 5L160 -4.37114e-07L170 10L165 14L156 5Z" fill="#A69CDA"/>
<path d="M1.00006 69L5.00006 66L14.0001 75L11.0001 79L1.00006 69Z" fill="url(#paint4_radial_62_73)"/>
<path d="M14 74.9999L83.5 75L80.5 79.0001L11 78.9999L12.5 76.9999L14 74.9999Z" fill="url(#paint5_radial_62_73)"/>
<path d="M5 35.5L5.00002 66L1.00002 69L1 38.5L5 35.5Z" fill="url(#paint6_radial_62_73)"/>
<path d="M11 0.999997L14 5L5 14L1 11L11 0.999997Z" fill="url(#paint7_radial_62_73)"/>
<path d="M102 4.99982L14 5L11 0.999996L99 1L102 4.99982Z" fill="url(#paint8_radial_62_73)"/>
<path d="M5 14L5 35.5L1 38.5L1 11L5 14Z" fill="url(#paint9_radial_62_73)"/>
<path d="M159 79L156 75L165 66L169 69L159 79Z" fill="url(#paint10_radial_62_73)"/>
<path d="M165 66L165 36.5L169 33.5L169 69L165 66Z" fill="url(#paint11_radial_62_73)"/>
<path d="M83.5 75L156 75L159 79L80.5 79L82 77L83.5 75Z" fill="url(#paint12_radial_62_73)"/>
<path d="M156 5L102 5.00001L99 1.00001L159 1L156 5Z" fill="url(#paint13_radial_62_73)"/>
<path d="M169 11L165 14L156 5L159 0.999998L169 11Z" fill="url(#paint14_radial_62_73)"/>
<path d="M165 36.5L165 14L169 11L169 33.5L165 36.5Z" fill="url(#paint15_radial_62_73)"/>
<ellipse cx="78.8064" cy="15.0925" rx="3.90462" ry="4.91618" fill="url(#paint16_radial_62_73)" fill-opacity="0.05"/>
<ellipse cx="44.5015" cy="51.6127" rx="7.53034" ry="9.13006" fill="url(#paint17_radial_62_73)" fill-opacity="0.1"/>
<ellipse cx="152.436" cy="48.1012" rx="29.5636" ry="25.2832" fill="url(#paint18_radial_62_73)" fill-opacity="0.1"/>
<ellipse cx="132.355" cy="6.31357" rx="28.448" ry="10.8858" fill="url(#paint19_radial_62_73)" fill-opacity="0.1"/>
<ellipse cx="20.237" cy="13.3367" rx="31.237" ry="26.3367" fill="url(#paint20_radial_62_73)" fill-opacity="0.2"/>
<ellipse cx="33.0665" cy="45.9942" rx="29.5636" ry="23.1763" fill="url(#paint21_radial_62_73)" fill-opacity="0.15"/>
<ellipse cx="30.5" cy="8" rx="11.5" ry="9" fill="url(#paint22_radial_62_73)" fill-opacity="0.7"/>
</g>
<defs>
<linearGradient id="paint0_linear_62_73" x1="3" y1="70" x2="2" y2="11" gradientUnits="userSpaceOnUse">
<stop stop-color="#C4B7EB"/>
<stop offset="1" stop-color="#DAD3F2"/>
</linearGradient>
<linearGradient id="paint1_linear_62_73" x1="250" y1="79.9997" x2="10" y2="82.9997" gradientUnits="userSpaceOnUse">
<stop stop-color="#998AD0"/>
<stop offset="1" stop-color="#A99CDB"/>
</linearGradient>
<linearGradient id="paint2_linear_62_73" x1="244" y1="6.49774" x2="9.99996" y2="4.99765" gradientUnits="userSpaceOnUse">
<stop stop-color="#B4A8DE"/>
<stop offset="1" stop-color="#D2C9EB"/>
</linearGradient>
<linearGradient id="paint3_linear_62_73" x1="167" y1="70" x2="167" y2="10" gradientUnits="userSpaceOnUse">
<stop stop-color="#A69CDA"/>
<stop offset="1" stop-color="#A69CDA"/>
</linearGradient>
<radialGradient id="paint4_radial_62_73" cx="0" cy="0" r="1" gradientUnits="userSpaceOnUse" gradientTransform="translate(6.00006 74) rotate(-48.8141) scale(5.31507 7.59296)">
<stop stop-color="#CDC1EC" stop-opacity="0.7"/>
<stop offset="0.769231" stop-color="#CDC1EC" stop-opacity="0.865385"/>
<stop offset="1" stop-color="#CEC4EE" stop-opacity="0.9"/>
</radialGradient>
<radialGradient id="paint5_radial_62_73" cx="0" cy="0" r="1" gradientUnits="userSpaceOnUse" gradientTransform="translate(44 75.0001) rotate(90) scale(5.49996 56.6383)">
<stop stop-color="#D3C9EE" stop-opacity="0.9"/>
<stop offset="0.346154" stop-color="#B9ACE2" stop-opacity="0.865385"/>
<stop offset="1" stop-color="#B9ACE2" stop-opacity="0.6"/>
</radialGradient>
<radialGradient id="paint6_radial_62_73" cx="0" cy="0" r="1" gradientUnits="userSpaceOnUse" gradientTransform="translate(5 51.5) rotate(180) scale(4.5 17.2902)">
<stop stop-color="#EBE5FA" stop-opacity="0.9"/>
<stop offset="0.298077" stop-color="#DED6F4" stop-opacity="0.876923"/>
<stop offset="1" stop-color="#DED6F4" stop-opacity="0.6"/>
</radialGradient>
<radialGradient id="paint7_radial_62_73" cx="0" cy="0" r="1" gradientUnits="userSpaceOnUse" gradientTransform="translate(7 6.5) rotate(45) scale(4.24264 8.83594)">
<stop stop-color="#E4DDF7" stop-opacity="0.6"/>
<stop offset="0.649038" stop-color="#E4DDF7" stop-opacity="0.634615"/>
<stop offset="1" stop-color="#FAF7FC" stop-opacity="0.9"/>
</radialGradient>
<radialGradient id="paint8_radial_62_73" cx="0" cy="0" r="1" gradientUnits="userSpaceOnUse" gradientTransform="translate(66 4) rotate(-89.9999) scale(2.5 43.6995)">
<stop stop-color="#FBFAFE"/>
<stop offset="0.0769231" stop-color="#EDE9F9" stop-opacity="0.964816"/>
<stop offset="0.677885" stop-color="#C6BAE9" stop-opacity="0.865385"/>
<stop offset="1" stop-color="#C6BAE9" stop-opacity="0.9"/>
</radialGradient>
<radialGradient id="paint9_radial_62_73" cx="0" cy="0" r="1" gradientUnits="userSpaceOnUse" gradientTransform="translate(5.00003 15.5) rotate(-180) scale(4.00003 73.8081)">
<stop offset="0.0432692" stop-color="#EBE5FA" stop-opacity="0.9"/>
<stop offset="0.168269" stop-color="#DED6F4" stop-opacity="0.876923"/>
<stop offset="1" stop-color="#DED6F4" stop-opacity="0.6"/>
</radialGradient>
<radialGradient id="paint10_radial_62_73" cx="0" cy="0" r="1" gradientUnits="userSpaceOnUse" gradientTransform="translate(163 73) rotate(-135) scale(2.82843 10.2664)">
<stop stop-color="#DED7EF" stop-opacity="0.7"/>
<stop offset="0.610577" stop-color="#DED7EF" stop-opacity="0.826971"/>
<stop offset="1" stop-color="#F3EFFA" stop-opacity="0.9"/>
</radialGradient>
<radialGradient id="paint11_radial_62_73" cx="0" cy="0" r="1" gradientUnits="userSpaceOnUse" gradientTransform="translate(165.5 59) scale(4 35.7974)">
<stop stop-color="#D1C7EF"/>
<stop offset="0.423077" stop-color="#B6A9E3" stop-opacity="0.772115"/>
<stop offset="1" stop-color="#B6A9E3" stop-opacity="0.7"/>
</radialGradient>
<radialGradient id="paint12_radial_62_73" cx="0" cy="0" r="1" gradientUnits="userSpaceOnUse" gradientTransform="translate(123.5 77.5) rotate(-90) scale(3.5 62.7875)">
<stop stop-color="#CAC0E9" stop-opacity="0.9"/>
<stop offset="0.375" stop-color="#B9ACE2" stop-opacity="0.7"/>
<stop offset="1" stop-color="#B9ACE2" stop-opacity="0.6"/>
</radialGradient>
<radialGradient id="paint13_radial_62_73" cx="0" cy="0" r="1" gradientUnits="userSpaceOnUse" gradientTransform="translate(124.5 4.99999) rotate(-90) scale(4.99999 45.1665)">
<stop offset="0.00480769" stop-color="#F8F6FD"/>
<stop offset="0.221154" stop-color="#E1DAF4" stop-opacity="0.937256"/>
<stop offset="0.572115" stop-color="#C6BAE9" stop-opacity="0.865385"/>
<stop offset="1" stop-color="#C6BAE9" stop-opacity="0.7"/>
</radialGradient>
<radialGradient id="paint14_radial_62_73" cx="0" cy="0" r="1" gradientUnits="userSpaceOnUse" gradientTransform="translate(164 4.99982) rotate(175.236) scale(6.0208 9.94256)">
<stop stop-color="#C4B8E7" stop-opacity="0.7"/>
<stop offset="0.548077" stop-color="#C4B8E7" stop-opacity="0.9"/>
<stop offset="0.860577" stop-color="#DDD4F4" stop-opacity="0.9"/>
<stop offset="1" stop-color="#DDD4F4" stop-opacity="0.9"/>
</radialGradient>
<radialGradient id="paint15_radial_62_73" cx="0" cy="0" r="1" gradientUnits="userSpaceOnUse" gradientTransform="translate(166 25) scale(3 20.4067)">
<stop stop-color="#EDE9F9" stop-opacity="0.8"/>
<stop offset="0.528846" stop-color="#B6A9E3" stop-opacity="0.772115"/>
<stop offset="1" stop-color="#B6A9E3" stop-opacity="0.7"/>
</radialGradient>
<radialGradient id="paint16_radial_62_73" cx="0" cy="0" r="1" gradientUnits="userSpaceOnUse" gradientTransform="translate(78.8064 15.0925) rotate(90) scale(4.91618 3.90462)">
<stop stop-color="white"/>
<stop offset="1" stop-color="white" stop-opacity="0"/>
</radialGradient>
<radialGradient id="paint17_radial_62_73" cx="0" cy="0" r="1" gradientUnits="userSpaceOnUse" gradientTransform="translate(44.5015 51.6127) rotate(90) scale(9.13006 7.53034)">
<stop stop-color="white"/>
<stop offset="1" stop-color="white" stop-opacity="0"/>
</radialGradient>
<radialGradient id="paint18_radial_62_73" cx="0" cy="0" r="1" gradientUnits="userSpaceOnUse" gradientTransform="translate(152.436 48.7495) rotate(90) scale(24.6349 28.8055)">
<stop stop-color="white"/>
<stop offset="1" stop-color="white" stop-opacity="0"/>
</radialGradient>
<radialGradient id="paint19_radial_62_73" cx="0" cy="0" r="1" gradientUnits="userSpaceOnUse" gradientTransform="translate(132.355 6.5927) rotate(90) scale(10.6067 27.7185)">
<stop stop-color="white"/>
<stop offset="1" stop-color="white" stop-opacity="0"/>
</radialGradient>
<radialGradient id="paint20_radial_62_73" cx="0" cy="0" r="1" gradientUnits="userSpaceOnUse" gradientTransform="translate(20.237 14.012) rotate(90) scale(25.6614 30.436)">
<stop stop-color="white"/>
<stop offset="1" stop-color="white" stop-opacity="0"/>
</radialGradient>
<radialGradient id="paint21_radial_62_73" cx="0" cy="0" r="1" gradientUnits="userSpaceOnUse" gradientTransform="translate(33.0665 46.5885) rotate(90) scale(22.582 28.8055)">
<stop stop-color="white"/>
<stop offset="1" stop-color="white" stop-opacity="0"/>
</radialGradient>
<radialGradient id="paint22_radial_62_73" cx="0" cy="0" r="1" gradientTransform="matrix(4.27143 6.75 -7.30903 3.38887 28.5286 6.59375)" gradientUnits="userSpaceOnUse">
<stop stop-color="white" stop-opacity="0.9"/>
<stop offset="0.153846" stop-color="white" stop-opacity="0.6"/>
<stop offset="1" stop-color="white" stop-opacity="0"/>
</radialGradient>
<clipPath id="clip0_62_73">
<rect width="170" height="80" fill="white"/>
</clipPath>
</defs>
</svg>
