<svg width="170" height="80" viewBox="0 0 170 80" fill="none" xmlns="http://www.w3.org/2000/svg">
<path d="M-1.74846e-07 70L5 66L14 75L10 80L-1.74846e-07 70Z" fill="url(#paint0_linear_26_387)"/>
<path d="M-1.74846e-07 70L5 66L14 75L10 80L-1.74846e-07 70Z" fill="#CFE3EA"/>
<path d="M10 7.2797e-06L14 5.00001L5.00002 14L1.56085e-05 10L10 7.2797e-06Z" fill="#D5E9F0"/>
<path d="M170 10L165 14L156 5.00001L160 8.15393e-06L170 10Z" fill="#C7DEE7"/>
<path d="M160 80L156 75L165 66L170 70L160 80Z" fill="#CFE5EE"/>
<path d="M5 14L5 66L0 70L0 10L5 14Z" fill="url(#paint1_linear_26_387)"/>
<path d="M14 74.9998L156 75L160 80L10 79.9998L14 74.9998Z" fill="url(#paint2_linear_26_387)"/>
<path d="M165 66L165 14L170 10L170 70L165 66Z" fill="url(#paint3_linear_26_387)"/>
<path d="M156 5.00001L13.9999 5L9.99991 1.07268e-06L160 7.62939e-06L156 5.00001Z" fill="url(#paint4_linear_26_387)"/>
<path d="M11 1L14 5L5 14L0.999998 11L11 1Z" fill="url(#paint5_radial_26_387)"/>
<path d="M169 11L165 14L156 5L159 1L169 11Z" fill="url(#paint6_radial_26_387)"/>
<path d="M159 79L156 75L165 66L169 69L159 79Z" fill="url(#paint7_radial_26_387)"/>
<path d="M0.999997 69L5 66L14 75L11 79L0.999997 69Z" fill="url(#paint8_radial_26_387)"/>
<path d="M5 14L5 66L1 69L1 11L5 14Z" fill="url(#paint9_linear_26_387)"/>
<path d="M156 5.00007L14 5.00005L11 1.00001L159 1.00002L156 5.00007Z" fill="url(#paint10_radial_26_387)"/>
<path d="M165 66L165 14L169 11L169 69L165 66Z" fill="url(#paint11_linear_26_387)"/>
<path d="M14 75L156 75L159 79L11 79L14 75Z" fill="url(#paint12_linear_26_387)"/>
<ellipse cx="13.2988" cy="44.5" rx="5.29878" ry="5.5" fill="url(#paint13_radial_26_387)" fill-opacity="0.25"/>
<ellipse cx="147.299" cy="65.5" rx="5.29878" ry="5.5" fill="url(#paint14_radial_26_387)" fill-opacity="0.25"/>
<ellipse cx="159.299" cy="54.5" rx="5.29878" ry="5.5" fill="url(#paint15_radial_26_387)" fill-opacity="0.25"/>
<ellipse cx="164.299" cy="66.5" rx="5.29878" ry="5.5" fill="url(#paint16_radial_26_387)" fill-opacity="0.25"/>
<ellipse cx="37" cy="39" rx="9" ry="8" fill="url(#paint17_radial_26_387)" fill-opacity="0.25"/>
<ellipse cx="63.5" cy="49.5" rx="6.5" ry="5.5" fill="url(#paint18_radial_26_387)" fill-opacity="0.25"/>
<ellipse cx="57" cy="35.5" rx="5" ry="4.5" fill="url(#paint19_radial_26_387)" fill-opacity="0.25"/>
<ellipse cx="35" cy="16.5" rx="8" ry="7.5" fill="url(#paint20_radial_26_387)" fill-opacity="0.25"/>
<ellipse cx="133.5" cy="14" rx="8.5" ry="7" fill="url(#paint21_radial_26_387)" fill-opacity="0.25"/>
<ellipse cx="21.0061" cy="30.5" rx="5.29878" ry="5.5" fill="url(#paint22_radial_26_387)" fill-opacity="0.25"/>
<ellipse cx="55" cy="9.5" rx="15" ry="12.5" fill="url(#paint23_radial_26_387)" fill-opacity="0.35"/>
<ellipse cx="65.0671" cy="73.5" rx="5.29878" ry="5.5" fill="url(#paint24_radial_26_387)" fill-opacity="0.25"/>
<ellipse cx="26.1951" cy="44.5" rx="21.1951" ry="19.5" fill="url(#paint25_radial_26_387)" fill-opacity="0.2"/>
<ellipse cx="157.524" cy="65.5" rx="12.5244" ry="12.5" fill="url(#paint26_radial_26_387)" fill-opacity="0.2"/>
<ellipse cx="156.524" cy="12.5" rx="12.5244" ry="12.5" fill="url(#paint27_radial_26_387)" fill-opacity="0.2"/>
<ellipse cx="13.5244" cy="12.5" rx="12.5244" ry="12.5" fill="url(#paint28_radial_26_387)" fill-opacity="0.2"/>
<ellipse cx="12.5244" cy="64.5" rx="12.5244" ry="12.5" fill="url(#paint29_radial_26_387)" fill-opacity="0.2"/>
<defs>
<linearGradient id="paint0_linear_26_387" x1="5" y1="75.5" x2="10" y2="70.5" gradientUnits="userSpaceOnUse">
<stop stop-color="#E3E5CF"/>
<stop offset="1" stop-color="#F1EEDF"/>
</linearGradient>
<linearGradient id="paint1_linear_26_387" x1="5" y1="70" x2="3" y2="10" gradientUnits="userSpaceOnUse">
<stop stop-color="#D3E4EB"/>
<stop offset="1" stop-color="#D3E5EC"/>
</linearGradient>
<linearGradient id="paint2_linear_26_387" x1="160" y1="77" x2="13" y2="77" gradientUnits="userSpaceOnUse">
<stop stop-color="#CADFE7"/>
<stop offset="1" stop-color="#D3E9EE"/>
</linearGradient>
<linearGradient id="paint3_linear_26_387" x1="167" y1="73" x2="167" y2="10" gradientUnits="userSpaceOnUse">
<stop stop-color="#CADFE7"/>
<stop offset="1" stop-color="#C6DDE5"/>
</linearGradient>
<linearGradient id="paint4_linear_26_387" x1="160" y1="3" x2="10" y2="3" gradientUnits="userSpaceOnUse">
<stop stop-color="#C1DEEA"/>
<stop offset="1" stop-color="#D5E4ED"/>
</linearGradient>
<radialGradient id="paint5_radial_26_387" cx="0" cy="0" r="1" gradientUnits="userSpaceOnUse" gradientTransform="translate(6 5.5) rotate(45) scale(5.65685 9.22488)">
<stop stop-color="#DFEDF3" stop-opacity="0.7"/>
<stop offset="0.692308" stop-color="#DFEDF3" stop-opacity="0.872115"/>
<stop offset="1" stop-color="#EFF5F8" stop-opacity="0.9"/>
</radialGradient>
<radialGradient id="paint6_radial_26_387" cx="0" cy="0" r="1" gradientUnits="userSpaceOnUse" gradientTransform="translate(165 5) rotate(135) scale(6.36396 11.9754)">
<stop stop-color="#DEEBF1" stop-opacity="0.7"/>
<stop offset="0.793269" stop-color="#DEEBF1" stop-opacity="0.780769"/>
<stop offset="1" stop-color="#FBFCFD" stop-opacity="0.8"/>
</radialGradient>
<radialGradient id="paint7_radial_26_387" cx="0" cy="0" r="1" gradientUnits="userSpaceOnUse" gradientTransform="translate(164 74) rotate(-138.814) scale(5.31507 7.59296)">
<stop stop-color="#E8F1F6" stop-opacity="0.7"/>
<stop offset="0.682692" stop-color="#E8F1F6" stop-opacity="0.865385"/>
<stop offset="0.875" stop-color="#ECF3F6" stop-opacity="0.9"/>
</radialGradient>
<radialGradient id="paint8_radial_26_387" cx="0" cy="0" r="1" gradientUnits="userSpaceOnUse" gradientTransform="translate(6.5 73) rotate(-45) scale(4.24264 8.83594)">
<stop stop-color="#ECF2F5" stop-opacity="0.6"/>
<stop offset="0.649038" stop-color="#ECF2F5" stop-opacity="0.634615"/>
<stop offset="0.947115" stop-color="#ECF2F5" stop-opacity="0.9"/>
</radialGradient>
<linearGradient id="paint9_linear_26_387" x1="0.499999" y1="40" x2="5" y2="40" gradientUnits="userSpaceOnUse">
<stop stop-color="#E3F1F8" stop-opacity="0.7"/>
<stop offset="0.730769" stop-color="#E3F1F8" stop-opacity="0.878846"/>
<stop offset="1" stop-color="#EFF5F7" stop-opacity="0.9"/>
</linearGradient>
<radialGradient id="paint10_radial_26_387" cx="0" cy="0" r="1" gradientUnits="userSpaceOnUse" gradientTransform="translate(45 1.00002) rotate(90) scale(4.5 39.798)">
<stop stop-color="#D7EBF2" stop-opacity="0.7"/>
<stop offset="0.783654" stop-color="#D7EBF2" stop-opacity="0.9"/>
<stop offset="1" stop-color="#E6F0F5" stop-opacity="0.9"/>
</radialGradient>
<linearGradient id="paint11_linear_26_387" x1="165" y1="39.5" x2="169.5" y2="40" gradientUnits="userSpaceOnUse">
<stop stop-color="#E7EFF3" stop-opacity="0.9"/>
<stop offset="0.129808" stop-color="#E4EEF4" stop-opacity="0.865385"/>
<stop offset="1" stop-color="#E4EEF4" stop-opacity="0.7"/>
</linearGradient>
<linearGradient id="paint12_linear_26_387" x1="50.5" y1="80" x2="50" y2="74" gradientUnits="userSpaceOnUse">
<stop stop-color="#E8F2F5" stop-opacity="0.7"/>
<stop offset="0.826923" stop-color="#E8F2F5" stop-opacity="0.876923"/>
<stop offset="1" stop-color="#F6F8FB" stop-opacity="0.9"/>
</linearGradient>
<radialGradient id="paint13_radial_26_387" cx="0" cy="0" r="1" gradientUnits="userSpaceOnUse" gradientTransform="translate(13.2988 44.5) rotate(90) scale(5.5 5.29878)">
<stop stop-color="white"/>
<stop offset="1" stop-color="white" stop-opacity="0"/>
</radialGradient>
<radialGradient id="paint14_radial_26_387" cx="0" cy="0" r="1" gradientUnits="userSpaceOnUse" gradientTransform="translate(147.299 65.5) rotate(90) scale(5.5 5.29878)">
<stop stop-color="white"/>
<stop offset="1" stop-color="white" stop-opacity="0"/>
</radialGradient>
<radialGradient id="paint15_radial_26_387" cx="0" cy="0" r="1" gradientUnits="userSpaceOnUse" gradientTransform="translate(159.299 54.5) rotate(90) scale(5.5 5.29878)">
<stop stop-color="white"/>
<stop offset="1" stop-color="white" stop-opacity="0"/>
</radialGradient>
<radialGradient id="paint16_radial_26_387" cx="0" cy="0" r="1" gradientUnits="userSpaceOnUse" gradientTransform="translate(164.299 66.5) rotate(90) scale(5.5 5.29878)">
<stop stop-color="white"/>
<stop offset="1" stop-color="white" stop-opacity="0"/>
</radialGradient>
<radialGradient id="paint17_radial_26_387" cx="0" cy="0" r="1" gradientUnits="userSpaceOnUse" gradientTransform="translate(37 39) rotate(90) scale(8 9)">
<stop stop-color="white"/>
<stop offset="1" stop-color="white" stop-opacity="0"/>
</radialGradient>
<radialGradient id="paint18_radial_26_387" cx="0" cy="0" r="1" gradientUnits="userSpaceOnUse" gradientTransform="translate(63.5 49.5) rotate(90) scale(5.5 6.5)">
<stop stop-color="white"/>
<stop offset="1" stop-color="white" stop-opacity="0"/>
</radialGradient>
<radialGradient id="paint19_radial_26_387" cx="0" cy="0" r="1" gradientUnits="userSpaceOnUse" gradientTransform="translate(57 35.5) rotate(90) scale(4.5 5)">
<stop stop-color="white"/>
<stop offset="1" stop-color="white" stop-opacity="0"/>
</radialGradient>
<radialGradient id="paint20_radial_26_387" cx="0" cy="0" r="1" gradientUnits="userSpaceOnUse" gradientTransform="translate(35 16.5) rotate(90) scale(7.5 8)">
<stop stop-color="white"/>
<stop offset="1" stop-color="white" stop-opacity="0"/>
</radialGradient>
<radialGradient id="paint21_radial_26_387" cx="0" cy="0" r="1" gradientUnits="userSpaceOnUse" gradientTransform="translate(133.5 14) rotate(90) scale(7 8.5)">
<stop stop-color="white"/>
<stop offset="1" stop-color="white" stop-opacity="0"/>
</radialGradient>
<radialGradient id="paint22_radial_26_387" cx="0" cy="0" r="1" gradientUnits="userSpaceOnUse" gradientTransform="translate(21.0061 30.5) rotate(90) scale(5.5 5.29878)">
<stop stop-color="white"/>
<stop offset="1" stop-color="white" stop-opacity="0"/>
</radialGradient>
<radialGradient id="paint23_radial_26_387" cx="0" cy="0" r="1" gradientUnits="userSpaceOnUse" gradientTransform="translate(55 9.5) rotate(90) scale(12.5 15)">
<stop stop-color="white"/>
<stop offset="1" stop-color="white" stop-opacity="0"/>
</radialGradient>
<radialGradient id="paint24_radial_26_387" cx="0" cy="0" r="1" gradientUnits="userSpaceOnUse" gradientTransform="translate(65.0671 73.5) rotate(90) scale(5.5 5.29878)">
<stop stop-color="white"/>
<stop offset="1" stop-color="white" stop-opacity="0"/>
</radialGradient>
<radialGradient id="paint25_radial_26_387" cx="0" cy="0" r="1" gradientUnits="userSpaceOnUse" gradientTransform="translate(26.1951 45) rotate(90) scale(19 20.6517)">
<stop stop-color="white"/>
<stop offset="1" stop-color="white" stop-opacity="0"/>
</radialGradient>
<radialGradient id="paint26_radial_26_387" cx="0" cy="0" r="1" gradientUnits="userSpaceOnUse" gradientTransform="translate(157.524 65.8205) rotate(90) scale(12.1795 12.2033)">
<stop stop-color="white"/>
<stop offset="1" stop-color="white" stop-opacity="0"/>
</radialGradient>
<radialGradient id="paint27_radial_26_387" cx="0" cy="0" r="1" gradientUnits="userSpaceOnUse" gradientTransform="translate(156.524 12.8205) rotate(90) scale(12.1795 12.2033)">
<stop stop-color="white"/>
<stop offset="1" stop-color="white" stop-opacity="0"/>
</radialGradient>
<radialGradient id="paint28_radial_26_387" cx="0" cy="0" r="1" gradientUnits="userSpaceOnUse" gradientTransform="translate(13.5244 12.8205) rotate(90) scale(12.1795 12.2033)">
<stop stop-color="white"/>
<stop offset="1" stop-color="white" stop-opacity="0"/>
</radialGradient>
<radialGradient id="paint29_radial_26_387" cx="0" cy="0" r="1" gradientUnits="userSpaceOnUse" gradientTransform="translate(12.5244 64.8205) rotate(90) scale(12.1795 12.2033)">
<stop stop-color="white"/>
<stop offset="1" stop-color="white" stop-opacity="0"/>
</radialGradient>
</defs>
</svg>
