<svg width="80" height="170" viewBox="0 0 80 170" fill="none" xmlns="http://www.w3.org/2000/svg">
<path d="M70 170L66 165L75 156L80 160L70 170Z" fill="url(#paint0_linear_26_386)"/>
<path d="M70 170L66 165L75 156L80 160L70 170Z" fill="#D9E4EA"/>
<path d="M-1.74846e-07 160L5 156L14 165L10 170L-1.74846e-07 160Z" fill="#DEE9EE"/>
<path d="M10 -3.49691e-07L14 5L5 14L3.49691e-07 10L10 -3.49691e-07Z" fill="#E1EDF1"/>
<path d="M80 10L75 14L66 5L70 -1.74846e-07L80 10Z" fill="#DDE8ED"/>
<path d="M14 165L66 165L70 170L10 170L14 165Z" fill="url(#paint1_linear_26_386)"/>
<path d="M74.9998 156L75 14L80 9.99998L79.9998 160L74.9998 156Z" fill="url(#paint2_linear_26_386)"/>
<path d="M66 5L14 5L10 -2.62268e-06L70 0L66 5Z" fill="url(#paint3_linear_26_386)"/>
<path d="M5 14L5 156L0 160L0 10L5 14Z" fill="url(#paint4_linear_26_386)"/>
<path d="M79 11L75 14L66 4.99998L69 0.999983L79 11Z" fill="url(#paint5_radial_26_386)"/>
<path d="M69 169L66 165L75 156L79 159L69 169Z" fill="url(#paint6_radial_26_386)"/>
<path d="M1 159L5 156L14 165L11 169L1 159Z" fill="url(#paint7_radial_26_386)"/>
<path d="M11 0.999982L14 4.99998L5 14L1 11L11 0.999982Z" fill="url(#paint8_radial_26_386)"/>
<path d="M66 5L14 4.99999L11 0.999992L69 0.999992L66 5Z" fill="url(#paint9_linear_26_386)"/>
<path d="M74.9999 156L75 14L79 11L79 159L74.9999 156Z" fill="url(#paint10_radial_26_386)"/>
<path d="M14 165L66 165L69 169L11 169L14 165Z" fill="url(#paint11_linear_26_386)"/>
<path d="M5 14L5 156L1 159L1 11L5 14Z" fill="url(#paint12_linear_26_386)"/>
<ellipse cx="33.5" cy="14.2988" rx="5.29878" ry="5.5" transform="rotate(90 33.5 14.2988)" fill="url(#paint13_radial_26_386)" fill-opacity="0.25"/>
<ellipse cx="12.5" cy="148.299" rx="5.29878" ry="5.5" transform="rotate(90 12.5 148.299)" fill="url(#paint14_radial_26_386)" fill-opacity="0.25"/>
<ellipse cx="23.5" cy="160.299" rx="5.29878" ry="5.5" transform="rotate(90 23.5 160.299)" fill="url(#paint15_radial_26_386)" fill-opacity="0.25"/>
<ellipse cx="11.5" cy="165.299" rx="5.29878" ry="5.5" transform="rotate(90 11.5 165.299)" fill="url(#paint16_radial_26_386)" fill-opacity="0.25"/>
<ellipse cx="39" cy="38" rx="9" ry="8" transform="rotate(90 39 38)" fill="url(#paint17_radial_26_386)" fill-opacity="0.25"/>
<ellipse cx="28.5" cy="64.5" rx="6.5" ry="5.5" transform="rotate(90 28.5 64.5)" fill="url(#paint18_radial_26_386)" fill-opacity="0.25"/>
<ellipse cx="42.5" cy="58" rx="5" ry="4.5" transform="rotate(90 42.5 58)" fill="url(#paint19_radial_26_386)" fill-opacity="0.25"/>
<ellipse cx="61.5" cy="36" rx="8" ry="7.5" transform="rotate(90 61.5 36)" fill="url(#paint20_radial_26_386)" fill-opacity="0.25"/>
<ellipse cx="64" cy="134.5" rx="8.5" ry="7" transform="rotate(90 64 134.5)" fill="url(#paint21_radial_26_386)" fill-opacity="0.25"/>
<ellipse cx="47.5" cy="22.006" rx="5.29878" ry="5.5" transform="rotate(90 47.5 22.006)" fill="url(#paint22_radial_26_386)" fill-opacity="0.25"/>
<ellipse cx="68.5" cy="56" rx="15" ry="12.5" transform="rotate(90 68.5 56)" fill="url(#paint23_radial_26_386)" fill-opacity="0.35"/>
<ellipse cx="4.5" cy="66.0671" rx="5.29878" ry="5.5" transform="rotate(90 4.5 66.0671)" fill="url(#paint24_radial_26_386)" fill-opacity="0.25"/>
<ellipse cx="33.5" cy="27.1951" rx="21.1951" ry="19.5" transform="rotate(90 33.5 27.1951)" fill="url(#paint25_radial_26_386)" fill-opacity="0.2"/>
<ellipse cx="12.5" cy="158.524" rx="12.5244" ry="12.5" transform="rotate(90 12.5 158.524)" fill="url(#paint26_radial_26_386)" fill-opacity="0.2"/>
<ellipse cx="65.5" cy="157.524" rx="12.5244" ry="12.5" transform="rotate(90 65.5 157.524)" fill="url(#paint27_radial_26_386)" fill-opacity="0.2"/>
<ellipse cx="65.5" cy="14.5244" rx="12.5244" ry="12.5" transform="rotate(90 65.5 14.5244)" fill="url(#paint28_radial_26_386)" fill-opacity="0.2"/>
<ellipse cx="13.5" cy="13.5244" rx="12.5244" ry="12.5" transform="rotate(90 13.5 13.5244)" fill="url(#paint29_radial_26_386)" fill-opacity="0.2"/>
<defs>
<linearGradient id="paint0_linear_26_386" x1="75.5" y1="165" x2="70.5" y2="160" gradientUnits="userSpaceOnUse">
<stop stop-color="#E3E5CF"/>
<stop offset="1" stop-color="#F1EEDF"/>
</linearGradient>
<linearGradient id="paint1_linear_26_386" x1="70" y1="167" x2="11.5" y2="167" gradientUnits="userSpaceOnUse">
<stop stop-color="#D6E3EA"/>
<stop offset="1" stop-color="#D6E6EC"/>
</linearGradient>
<linearGradient id="paint2_linear_26_386" x1="76.4998" y1="157.5" x2="79.6235" y2="15.0576" gradientUnits="userSpaceOnUse">
<stop stop-color="#D5E1E7"/>
<stop offset="1" stop-color="#DAE4EA"/>
</linearGradient>
<linearGradient id="paint3_linear_26_386" x1="70" y1="2.00002" x2="12" y2="2.00002" gradientUnits="userSpaceOnUse">
<stop stop-color="#E3EDF1"/>
<stop offset="1" stop-color="#DDEAF1"/>
</linearGradient>
<linearGradient id="paint4_linear_26_386" x1="5.00001" y1="160" x2="-7.42383" y2="14.641" gradientUnits="userSpaceOnUse">
<stop stop-color="#D7E8EF"/>
<stop offset="1" stop-color="#D8E5EC"/>
</linearGradient>
<radialGradient id="paint5_radial_26_386" cx="0" cy="0" r="1" gradientUnits="userSpaceOnUse" gradientTransform="translate(74.5 5.99998) rotate(135) scale(5.65685 9.22488)">
<stop stop-color="#DFEDF3" stop-opacity="0.7"/>
<stop offset="0.692308" stop-color="#DFEDF3" stop-opacity="0.872115"/>
<stop offset="1" stop-color="#EFF5F8" stop-opacity="0.9"/>
</radialGradient>
<radialGradient id="paint6_radial_26_386" cx="0" cy="0" r="1" gradientUnits="userSpaceOnUse" gradientTransform="translate(75 165) rotate(-135) scale(6.36396 11.9754)">
<stop stop-color="#DEEBF1" stop-opacity="0.7"/>
<stop offset="0.793269" stop-color="#DEEBF1" stop-opacity="0.780769"/>
<stop offset="1" stop-color="#FBFCFD" stop-opacity="0.8"/>
</radialGradient>
<radialGradient id="paint7_radial_26_386" cx="0" cy="0" r="1" gradientUnits="userSpaceOnUse" gradientTransform="translate(6 164) rotate(-48.8141) scale(5.31507 7.59296)">
<stop stop-color="#E8F1F6" stop-opacity="0.7"/>
<stop offset="0.682692" stop-color="#E8F1F6" stop-opacity="0.865385"/>
<stop offset="0.875" stop-color="#ECF3F6" stop-opacity="0.9"/>
</radialGradient>
<radialGradient id="paint8_radial_26_386" cx="0" cy="0" r="1" gradientUnits="userSpaceOnUse" gradientTransform="translate(7 6.49998) rotate(45) scale(4.24264 8.83594)">
<stop stop-color="#ECF2F5" stop-opacity="0.6"/>
<stop offset="0.649038" stop-color="#ECF2F5" stop-opacity="0.634615"/>
<stop offset="0.947115" stop-color="#ECF2F5" stop-opacity="0.9"/>
</radialGradient>
<linearGradient id="paint9_linear_26_386" x1="40" y1="0.499991" x2="40" y2="5" gradientUnits="userSpaceOnUse">
<stop stop-color="#E3F1F8" stop-opacity="0.7"/>
<stop offset="0.730769" stop-color="#E3F1F8" stop-opacity="0.878846"/>
<stop offset="1" stop-color="#EFF5F7" stop-opacity="0.9"/>
</linearGradient>
<radialGradient id="paint10_radial_26_386" cx="0" cy="0" r="1" gradientUnits="userSpaceOnUse" gradientTransform="translate(79 45) rotate(180) scale(4.5 39.798)">
<stop stop-color="#D7EBF2" stop-opacity="0.7"/>
<stop offset="0.783654" stop-color="#D7EBF2" stop-opacity="0.9"/>
<stop offset="1" stop-color="#E6F0F5" stop-opacity="0.9"/>
</radialGradient>
<linearGradient id="paint11_linear_26_386" x1="40.5" y1="165" x2="40" y2="169.5" gradientUnits="userSpaceOnUse">
<stop stop-color="#E7EFF3" stop-opacity="0.9"/>
<stop offset="0.129808" stop-color="#E4EEF4" stop-opacity="0.865385"/>
<stop offset="1" stop-color="#E4EEF4" stop-opacity="0.7"/>
</linearGradient>
<linearGradient id="paint12_linear_26_386" x1="1.403e-06" y1="50.5" x2="6" y2="50" gradientUnits="userSpaceOnUse">
<stop stop-color="#E8F2F5" stop-opacity="0.7"/>
<stop offset="0.826923" stop-color="#E8F2F5" stop-opacity="0.876923"/>
<stop offset="1" stop-color="#F6F8FB" stop-opacity="0.9"/>
</linearGradient>
<radialGradient id="paint13_radial_26_386" cx="0" cy="0" r="1" gradientUnits="userSpaceOnUse" gradientTransform="translate(33.5 14.2988) rotate(90) scale(5.5 5.29878)">
<stop stop-color="white"/>
<stop offset="1" stop-color="white" stop-opacity="0"/>
</radialGradient>
<radialGradient id="paint14_radial_26_386" cx="0" cy="0" r="1" gradientUnits="userSpaceOnUse" gradientTransform="translate(12.5 148.299) rotate(90) scale(5.5 5.29878)">
<stop stop-color="white"/>
<stop offset="1" stop-color="white" stop-opacity="0"/>
</radialGradient>
<radialGradient id="paint15_radial_26_386" cx="0" cy="0" r="1" gradientUnits="userSpaceOnUse" gradientTransform="translate(23.5 160.299) rotate(90) scale(5.5 5.29878)">
<stop stop-color="white"/>
<stop offset="1" stop-color="white" stop-opacity="0"/>
</radialGradient>
<radialGradient id="paint16_radial_26_386" cx="0" cy="0" r="1" gradientUnits="userSpaceOnUse" gradientTransform="translate(11.5 165.299) rotate(90) scale(5.5 5.29878)">
<stop stop-color="white"/>
<stop offset="1" stop-color="white" stop-opacity="0"/>
</radialGradient>
<radialGradient id="paint17_radial_26_386" cx="0" cy="0" r="1" gradientUnits="userSpaceOnUse" gradientTransform="translate(39 38) rotate(90) scale(8 9)">
<stop stop-color="white"/>
<stop offset="1" stop-color="white" stop-opacity="0"/>
</radialGradient>
<radialGradient id="paint18_radial_26_386" cx="0" cy="0" r="1" gradientUnits="userSpaceOnUse" gradientTransform="translate(28.5 64.5) rotate(90) scale(5.5 6.5)">
<stop stop-color="white"/>
<stop offset="1" stop-color="white" stop-opacity="0"/>
</radialGradient>
<radialGradient id="paint19_radial_26_386" cx="0" cy="0" r="1" gradientUnits="userSpaceOnUse" gradientTransform="translate(42.5 58) rotate(90) scale(4.5 5)">
<stop stop-color="white"/>
<stop offset="1" stop-color="white" stop-opacity="0"/>
</radialGradient>
<radialGradient id="paint20_radial_26_386" cx="0" cy="0" r="1" gradientUnits="userSpaceOnUse" gradientTransform="translate(61.5 36) rotate(90) scale(7.5 8)">
<stop stop-color="white"/>
<stop offset="1" stop-color="white" stop-opacity="0"/>
</radialGradient>
<radialGradient id="paint21_radial_26_386" cx="0" cy="0" r="1" gradientUnits="userSpaceOnUse" gradientTransform="translate(64 134.5) rotate(90) scale(7 8.5)">
<stop stop-color="white"/>
<stop offset="1" stop-color="white" stop-opacity="0"/>
</radialGradient>
<radialGradient id="paint22_radial_26_386" cx="0" cy="0" r="1" gradientUnits="userSpaceOnUse" gradientTransform="translate(47.5 22.006) rotate(90) scale(5.5 5.29878)">
<stop stop-color="white"/>
<stop offset="1" stop-color="white" stop-opacity="0"/>
</radialGradient>
<radialGradient id="paint23_radial_26_386" cx="0" cy="0" r="1" gradientUnits="userSpaceOnUse" gradientTransform="translate(68.5 56) rotate(90) scale(12.5 15)">
<stop stop-color="white"/>
<stop offset="1" stop-color="white" stop-opacity="0"/>
</radialGradient>
<radialGradient id="paint24_radial_26_386" cx="0" cy="0" r="1" gradientUnits="userSpaceOnUse" gradientTransform="translate(4.5 66.0671) rotate(90) scale(5.5 5.29878)">
<stop stop-color="white"/>
<stop offset="1" stop-color="white" stop-opacity="0"/>
</radialGradient>
<radialGradient id="paint25_radial_26_386" cx="0" cy="0" r="1" gradientUnits="userSpaceOnUse" gradientTransform="translate(33.5 27.6951) rotate(90) scale(19 20.6517)">
<stop stop-color="white"/>
<stop offset="1" stop-color="white" stop-opacity="0"/>
</radialGradient>
<radialGradient id="paint26_radial_26_386" cx="0" cy="0" r="1" gradientUnits="userSpaceOnUse" gradientTransform="translate(12.5 158.845) rotate(90) scale(12.1795 12.2033)">
<stop stop-color="white"/>
<stop offset="1" stop-color="white" stop-opacity="0"/>
</radialGradient>
<radialGradient id="paint27_radial_26_386" cx="0" cy="0" r="1" gradientUnits="userSpaceOnUse" gradientTransform="translate(65.5 157.845) rotate(90) scale(12.1795 12.2033)">
<stop stop-color="white"/>
<stop offset="1" stop-color="white" stop-opacity="0"/>
</radialGradient>
<radialGradient id="paint28_radial_26_386" cx="0" cy="0" r="1" gradientUnits="userSpaceOnUse" gradientTransform="translate(65.5 14.8449) rotate(90) scale(12.1795 12.2033)">
<stop stop-color="white"/>
<stop offset="1" stop-color="white" stop-opacity="0"/>
</radialGradient>
<radialGradient id="paint29_radial_26_386" cx="0" cy="0" r="1" gradientUnits="userSpaceOnUse" gradientTransform="translate(13.5 13.8449) rotate(90) scale(12.1795 12.2033)">
<stop stop-color="white"/>
<stop offset="1" stop-color="white" stop-opacity="0"/>
</radialGradient>
</defs>
</svg>
