<svg width="170" height="170" viewBox="0 0 170 170" fill="none" xmlns="http://www.w3.org/2000/svg">
<path d="M5.00006 14L6.0598e-05 10L10.0001 4.37114e-07L14.0001 5L5.00006 14Z" fill="#727681"/>
<path d="M14.0001 165L10.0001 170L6.0598e-05 160L5.00006 156L14.0001 165Z" fill="#91949C"/>
<path d="M165 156L170 160L160 170L156 165L165 156Z" fill="#686A78"/>
<path d="M156 5L160 -4.37114e-07L170 10L165 14L156 5Z" fill="url(#paint0_linear_26_380)"/>
<path d="M5 14L5.00004 156L4.52614e-05 160L0 10L5 14Z" fill="url(#paint1_linear_26_380)"/>
<path d="M165 156L165 14L170 10L170 160L165 156Z" fill="url(#paint2_linear_26_380)"/>
<path d="M14 165L156 165L160 170L10 170L14 165Z" fill="url(#paint3_linear_26_380)"/>
<path d="M156 5.00003L14 5.00028L10 0.000286244L160 2.66084e-05L156 5.00003Z" fill="url(#paint4_linear_26_380)"/>
<path d="M169 11.0002L165 14.0002L156 5.00018L159 1.00018L169 11.0002Z" fill="url(#paint5_radial_26_380)"/>
<path d="M159 169L156 165L165 156L169 159L159 169Z" fill="url(#paint6_radial_26_380)"/>
<path d="M1 159L5 156L14 165L11 169L1 159Z" fill="url(#paint7_radial_26_380)"/>
<path d="M11 0.999997L14 5L5 14L1 11L11 0.999997Z" fill="url(#paint8_radial_26_380)"/>
<path d="M156 5.00019L110 5.00018L107 1.00018L159 1.00018L156 5.00019Z" fill="url(#paint9_radial_26_380)"/>
<path d="M110 5L14 5.00018L11 1.00018L107 1.00018L110 5Z" fill="url(#paint10_radial_26_380)"/>
<path d="M165 156L165 53.5L169 50.5V159L165 156Z" fill="url(#paint11_radial_26_380)"/>
<path d="M165 53.5L165 14L169 11L169 50.5L165 53.5Z" fill="url(#paint12_radial_26_380)"/>
<path d="M14 165L68.5 165.5L71.5 169.5L11 169L12.5 167L14 165Z" fill="url(#paint13_radial_26_380)"/>
<path d="M5 14L5 130.5L1 133.5L1 11L5 14Z" fill="url(#paint14_radial_26_380)"/>
<path d="M68.5 165.5L156 165L159 169L71.5 169.5L70 167.5L68.5 165.5Z" fill="url(#paint15_radial_26_380)"/>
<path d="M5 130.5L5 156L1 159L1 133.5L5 130.5Z" fill="url(#paint16_radial_26_380)"/>
<ellipse cx="58.3293" cy="31.2195" rx="6.32927" ry="6.21951" fill="url(#paint17_radial_26_380)" fill-opacity="0.05"/>
<ellipse cx="2.60366" cy="147.402" rx="11.6037" ry="11.4024" fill="url(#paint18_radial_26_380)" fill-opacity="0.25"/>
<ellipse cx="153.5" cy="151.5" rx="46.5" ry="35.5" fill="url(#paint19_radial_26_380)" fill-opacity="0.1"/>
<ellipse cx="125.427" cy="2.91463" rx="27.4268" ry="25.9146" fill="url(#paint20_radial_26_380)" fill-opacity="0.1"/>
<ellipse cx="52.5" cy="41" rx="75.5" ry="64" fill="url(#paint21_radial_26_380)" fill-opacity="0.1"/>
<ellipse cx="9.41463" cy="110.427" rx="46.4146" ry="40.4268" fill="url(#paint22_radial_26_380)" fill-opacity="0.15"/>
<ellipse cx="144.604" cy="170.402" rx="11.6037" ry="11.4024" fill="url(#paint23_radial_26_380)" fill-opacity="0.1"/>
<defs>
<linearGradient id="paint0_linear_26_380" x1="164.5" y1="4.5" x2="160.5" y2="9.5" gradientUnits="userSpaceOnUse">
<stop stop-color="#6A6F7A"/>
<stop offset="1" stop-color="#6A6F7A"/>
</linearGradient>
<linearGradient id="paint1_linear_26_380" x1="2.50002" y1="10" x2="2.50002" y2="160" gradientUnits="userSpaceOnUse">
<stop stop-color="#6E737B"/>
<stop offset="1" stop-color="#8A8C96"/>
</linearGradient>
<linearGradient id="paint2_linear_26_380" x1="165" y1="160" x2="165" y2="13" gradientUnits="userSpaceOnUse">
<stop stop-color="#60626C"/>
<stop offset="1" stop-color="#6D717A"/>
</linearGradient>
<linearGradient id="paint3_linear_26_380" x1="157" y1="170" x2="11.5" y2="170" gradientUnits="userSpaceOnUse">
<stop stop-color="#5E646E"/>
<stop offset="1" stop-color="#636972"/>
</linearGradient>
<linearGradient id="paint4_linear_26_380" x1="160" y1="3.00022" x2="10" y2="3.0002" gradientUnits="userSpaceOnUse">
<stop stop-color="#787A85"/>
<stop offset="1" stop-color="#8E929B"/>
</linearGradient>
<radialGradient id="paint5_radial_26_380" cx="0" cy="0" r="1" gradientUnits="userSpaceOnUse" gradientTransform="translate(164 5.00001) rotate(150.945) scale(5.14781 8.50094)">
<stop stop-color="#979CA3" stop-opacity="0.7"/>
<stop offset="0.548077" stop-color="#979CA3" stop-opacity="0.9"/>
<stop offset="0.860577" stop-color="#979CA3" stop-opacity="0.9"/>
<stop offset="1" stop-color="#9FA2A8" stop-opacity="0.9"/>
</radialGradient>
<radialGradient id="paint6_radial_26_380" cx="0" cy="0" r="1" gradientUnits="userSpaceOnUse" gradientTransform="translate(162.5 162.5) rotate(-135) scale(2.12132 7.69983)">
<stop stop-color="#888C94" stop-opacity="0.7"/>
<stop offset="0.610577" stop-color="#888C94" stop-opacity="0.826971"/>
<stop offset="1" stop-color="#9A9DA3" stop-opacity="0.9"/>
</radialGradient>
<radialGradient id="paint7_radial_26_380" cx="0" cy="0" r="1" gradientUnits="userSpaceOnUse" gradientTransform="translate(6 164) rotate(-48.8141) scale(5.31507 7.59296)">
<stop stop-color="#898D96" stop-opacity="0.7"/>
<stop offset="0.769231" stop-color="#898D96" stop-opacity="0.865385"/>
<stop offset="1" stop-color="#8A8F95" stop-opacity="0.9"/>
</radialGradient>
<radialGradient id="paint8_radial_26_380" cx="0" cy="0" r="1" gradientUnits="userSpaceOnUse" gradientTransform="translate(6 6.5) rotate(36.8699) scale(5 10.4132)">
<stop stop-color="#A5A7AF" stop-opacity="0.6"/>
<stop offset="0.447115" stop-color="#A5A7AF" stop-opacity="0.634615"/>
<stop offset="1" stop-color="#E7E8E9" stop-opacity="0.9"/>
</radialGradient>
<radialGradient id="paint9_radial_26_380" cx="0" cy="0" r="1" gradientUnits="userSpaceOnUse" gradientTransform="translate(130 4) rotate(-90) scale(3.5 33.3875)">
<stop offset="0.00480769" stop-color="#EEEFF0"/>
<stop offset="0.504808" stop-color="#9D9FA8" stop-opacity="0.865385"/>
<stop offset="1" stop-color="#9D9FA8" stop-opacity="0.7"/>
</radialGradient>
<radialGradient id="paint10_radial_26_380" cx="0" cy="0" r="1" gradientUnits="userSpaceOnUse" gradientTransform="translate(22 4.00003) rotate(-0.729867) scale(78.5064 3.29376)">
<stop stop-color="#E3E3E6"/>
<stop offset="0.721154" stop-color="#9D9FA8" stop-opacity="0.865385"/>
<stop offset="1" stop-color="#9D9FA8" stop-opacity="0.9"/>
</radialGradient>
<radialGradient id="paint11_radial_26_380" cx="0" cy="0" r="1" gradientUnits="userSpaceOnUse" gradientTransform="translate(166.5 106) scale(3.5 75.3438)">
<stop stop-color="#A2A6AE"/>
<stop offset="0.423077" stop-color="#7B8089" stop-opacity="0.772115"/>
<stop offset="1" stop-color="#7B8089" stop-opacity="0.7"/>
</radialGradient>
<radialGradient id="paint12_radial_26_380" cx="0" cy="0" r="1" gradientUnits="userSpaceOnUse" gradientTransform="translate(166 35) scale(3.5 23.8078)">
<stop stop-color="#91959C" stop-opacity="0.8"/>
<stop offset="0.548077" stop-color="#7B8089" stop-opacity="0.772115"/>
<stop offset="1" stop-color="#7B8089" stop-opacity="0.7"/>
</radialGradient>
<radialGradient id="paint13_radial_26_380" cx="0" cy="0" r="1" gradientUnits="userSpaceOnUse" gradientTransform="translate(33 166) rotate(90) scale(3.5 66.3448)">
<stop stop-color="#8F9198" stop-opacity="0.9"/>
<stop offset="0.346154" stop-color="#6F737D" stop-opacity="0.865385"/>
<stop offset="1" stop-color="#6F737D" stop-opacity="0.7"/>
</radialGradient>
<radialGradient id="paint14_radial_26_380" cx="0" cy="0" r="1" gradientUnits="userSpaceOnUse" gradientTransform="translate(4.5 41.5) rotate(-180) scale(3.5 64.5817)">
<stop offset="0.0432692" stop-color="#DDDDE1" stop-opacity="0.9"/>
<stop offset="0.620192" stop-color="#A5A8AE" stop-opacity="0.876923"/>
<stop offset="1" stop-color="#A5A8AE" stop-opacity="0.7"/>
</radialGradient>
<radialGradient id="paint15_radial_26_380" cx="0" cy="0" r="1" gradientUnits="userSpaceOnUse" gradientTransform="translate(124 170) rotate(-90) scale(11 144.222)">
<stop stop-color="#A8AAB2" stop-opacity="0.9"/>
<stop offset="0.264423" stop-color="#6F737D" stop-opacity="0.865385"/>
<stop offset="1" stop-color="#6F737D" stop-opacity="0.7"/>
</radialGradient>
<radialGradient id="paint16_radial_26_380" cx="0" cy="0" r="1" gradientUnits="userSpaceOnUse" gradientTransform="translate(5.5 144.5) rotate(-175.236) scale(6.0208 23.1336)">
<stop stop-color="#DDDDE1" stop-opacity="0.9"/>
<stop offset="0.197115" stop-color="#A5A8AE" stop-opacity="0.876923"/>
<stop offset="1" stop-color="#A5A8AE" stop-opacity="0.7"/>
</radialGradient>
<radialGradient id="paint17_radial_26_380" cx="0" cy="0" r="1" gradientUnits="userSpaceOnUse" gradientTransform="translate(58.3293 31.2195) rotate(90) scale(6.21951 6.32927)">
<stop stop-color="white"/>
<stop offset="1" stop-color="white" stop-opacity="0"/>
</radialGradient>
<radialGradient id="paint18_radial_26_380" cx="0" cy="0" r="1" gradientUnits="userSpaceOnUse" gradientTransform="translate(2.60366 147.402) rotate(90) scale(11.4024 11.6037)">
<stop stop-color="white"/>
<stop offset="1" stop-color="white" stop-opacity="0"/>
</radialGradient>
<radialGradient id="paint19_radial_26_380" cx="0" cy="0" r="1" gradientUnits="userSpaceOnUse" gradientTransform="translate(153.5 152.41) rotate(90) scale(34.5897 45.3077)">
<stop stop-color="white"/>
<stop offset="1" stop-color="white" stop-opacity="0"/>
</radialGradient>
<radialGradient id="paint20_radial_26_380" cx="0" cy="0" r="1" gradientUnits="userSpaceOnUse" gradientTransform="translate(125.427 3.57911) rotate(90) scale(25.2502 26.7236)">
<stop stop-color="white"/>
<stop offset="1" stop-color="white" stop-opacity="0"/>
</radialGradient>
<radialGradient id="paint21_radial_26_380" cx="0" cy="0" r="1" gradientUnits="userSpaceOnUse" gradientTransform="translate(52.5 42.641) rotate(90) scale(62.359 73.5641)">
<stop stop-color="white"/>
<stop offset="1" stop-color="white" stop-opacity="0"/>
</radialGradient>
<radialGradient id="paint22_radial_26_380" cx="0" cy="0" r="1" gradientUnits="userSpaceOnUse" gradientTransform="translate(9.41463 111.463) rotate(90) scale(39.3902 45.2245)">
<stop stop-color="white"/>
<stop offset="1" stop-color="white" stop-opacity="0"/>
</radialGradient>
<radialGradient id="paint23_radial_26_380" cx="0" cy="0" r="1" gradientUnits="userSpaceOnUse" gradientTransform="translate(144.604 170.402) rotate(90) scale(11.4024 11.6037)">
<stop stop-color="white"/>
<stop offset="1" stop-color="white" stop-opacity="0"/>
</radialGradient>
</defs>
</svg>
