<svg width="80" height="80" viewBox="0 0 80 80" fill="none" xmlns="http://www.w3.org/2000/svg">
<path d="M70 80L66 75L75 66L80 70L70 80Z" fill="url(#paint0_linear_26_382)"/>
<path d="M70 80L66 75L75 66L80 70L70 80Z" fill="#D2E3E2"/>
<path d="M-1.74846e-07 70L5 66L14 75L10 80L-1.74846e-07 70Z" fill="#DDE9E9"/>
<path d="M10 -3.08673e-05L14 4.99997L5 14L3.49691e-07 9.99997L10 -3.08673e-05Z" fill="#CDE3DF"/>
<path d="M80 10L75 14L66 5.00002L70 2.27133e-05L80 10Z" fill="#BAD5D1"/>
<path d="M14 75L66 75L70 80L10 80L14 75Z" fill="url(#paint1_linear_26_382)"/>
<path d="M75 66L75 14L80 10L80 70L75 66Z" fill="url(#paint2_linear_26_382)"/>
<path d="M66 5.00002L14 5.00002L10 1.26361e-05L70 1.52588e-05L66 5.00002Z" fill="url(#paint3_linear_26_382)"/>
<path d="M5 14L5 66L0 70L0 9.99998L5 14Z" fill="url(#paint4_linear_26_382)"/>
<path d="M79 11L75 14L66 5L69 0.999998L79 11Z" fill="url(#paint5_radial_26_382)"/>
<path d="M69 79L66 75L75 66L79 69L69 79Z" fill="url(#paint6_radial_26_382)"/>
<path d="M1 69L5 66L14 75L11 79L1 69Z" fill="url(#paint7_radial_26_382)"/>
<path d="M11 0.999997L14 5L5 14L1 11L11 0.999997Z" fill="url(#paint8_radial_26_382)"/>
<path d="M66 5.00001L14 5.00001L11 1.00001L69 1.00001L66 5.00001Z" fill="url(#paint9_linear_26_382)"/>
<path d="M74.9999 66L74.9999 14L79 11L79 69L74.9999 66Z" fill="url(#paint10_linear_26_382)"/>
<path d="M14 75L66 75L69 79L11 79L14 75Z" fill="url(#paint11_linear_26_382)"/>
<path d="M5 14L5 66L1 69L1 11L5 14Z" fill="url(#paint12_linear_26_382)"/>
<circle cx="12.5" cy="57.5" r="5.5" fill="url(#paint13_radial_26_382)" fill-opacity="0.25"/>
<circle cx="26.5" cy="67.5" r="5.5" fill="url(#paint14_radial_26_382)" fill-opacity="0.25"/>
<circle cx="43" cy="75" r="4" fill="url(#paint15_radial_26_382)" fill-opacity="0.25"/>
<circle cx="39" cy="65" r="3" fill="url(#paint16_radial_26_382)" fill-opacity="0.25"/>
<circle cx="25.5" cy="51.5" r="5.5" fill="url(#paint17_radial_26_382)" fill-opacity="0.25"/>
<circle cx="65.5" cy="12.5" r="5.5" fill="url(#paint18_radial_26_382)" fill-opacity="0.25"/>
<circle cx="65.5" cy="76.5" r="5.5" fill="url(#paint19_radial_26_382)" fill-opacity="0.25"/>
<circle cx="20.5" cy="43.5" r="5.5" fill="url(#paint20_radial_26_382)" fill-opacity="0.25"/>
<ellipse cx="21" cy="57.5" rx="22" ry="19.5" fill="url(#paint21_radial_26_382)" fill-opacity="0.25"/>
<ellipse cx="63" cy="68.5" rx="13" ry="12.5" fill="url(#paint22_radial_26_382)" fill-opacity="0.3"/>
<ellipse cx="68" cy="12.5" rx="13" ry="12.5" fill="url(#paint23_radial_26_382)" fill-opacity="0.3"/>
<ellipse cx="12" cy="15.5" rx="13" ry="12.5" fill="url(#paint24_radial_26_382)" fill-opacity="0.5"/>
<defs>
<linearGradient id="paint0_linear_26_382" x1="75.5" y1="75" x2="70.5" y2="70" gradientUnits="userSpaceOnUse">
<stop stop-color="#E3E5CF"/>
<stop offset="1" stop-color="#F1EEDF"/>
</linearGradient>
<linearGradient id="paint1_linear_26_382" x1="72.5" y1="77" x2="14.5" y2="77" gradientUnits="userSpaceOnUse">
<stop stop-color="#CEDEDC"/>
<stop offset="1" stop-color="#E0E7E8"/>
</linearGradient>
<linearGradient id="paint2_linear_26_382" x1="77" y1="70" x2="77" y2="10" gradientUnits="userSpaceOnUse">
<stop stop-color="#CBDFDC"/>
<stop offset="1" stop-color="#CADCD8"/>
</linearGradient>
<linearGradient id="paint3_linear_26_382" x1="70" y1="2.99999" x2="12" y2="2.99999" gradientUnits="userSpaceOnUse">
<stop stop-color="#CDE3DE"/>
<stop offset="1" stop-color="#BDDCD8"/>
</linearGradient>
<linearGradient id="paint4_linear_26_382" x1="2.99999" y1="70" x2="3" y2="10" gradientUnits="userSpaceOnUse">
<stop stop-color="#DBE8E6"/>
<stop offset="1" stop-color="#C4E0D9"/>
</linearGradient>
<radialGradient id="paint5_radial_26_382" cx="0" cy="0" r="1" gradientUnits="userSpaceOnUse" gradientTransform="translate(73.5 5.5) rotate(138.814) scale(5.31507 8.37962)">
<stop stop-color="#D5EAE4" stop-opacity="0.7"/>
<stop offset="0.649038" stop-color="#D5EAE4" stop-opacity="0.9"/>
<stop offset="1" stop-color="#F0F8F5" stop-opacity="0.9"/>
</radialGradient>
<radialGradient id="paint6_radial_26_382" cx="0" cy="0" r="1" gradientUnits="userSpaceOnUse" gradientTransform="translate(75 75) rotate(-135) scale(6.36396 9.98473)">
<stop stop-color="#D6E7E4" stop-opacity="0.7"/>
<stop offset="0.8125" stop-color="#E4F0ED" stop-opacity="0.826971"/>
<stop offset="1" stop-color="#FAFDFB" stop-opacity="0.9"/>
</radialGradient>
<radialGradient id="paint7_radial_26_382" cx="0" cy="0" r="1" gradientUnits="userSpaceOnUse" gradientTransform="translate(6 74) rotate(-48.8141) scale(5.31507 7.59296)">
<stop stop-color="#DAEDEA" stop-opacity="0.7"/>
<stop offset="0.769231" stop-color="#DAEDEA" stop-opacity="0.865385"/>
<stop offset="1" stop-color="#F4F9F7" stop-opacity="0.9"/>
</radialGradient>
<radialGradient id="paint8_radial_26_382" cx="0" cy="0" r="1" gradientUnits="userSpaceOnUse" gradientTransform="translate(7 6.5) rotate(45) scale(4.24264 8.83594)">
<stop stop-color="#C6E5DE" stop-opacity="0.6"/>
<stop offset="0.649038" stop-color="#C6E5DE" stop-opacity="0.634615"/>
<stop offset="1" stop-color="#F8FBF9" stop-opacity="0.9"/>
</radialGradient>
<linearGradient id="paint9_linear_26_382" x1="40" y1="1.00001" x2="40" y2="5.00001" gradientUnits="userSpaceOnUse">
<stop stop-color="#D6E9E4" stop-opacity="0.7"/>
<stop offset="0.826923" stop-color="#D6E9E4" stop-opacity="0.865385"/>
<stop offset="1" stop-color="#E8F3F0" stop-opacity="0.9"/>
</linearGradient>
<linearGradient id="paint10_linear_26_382" x1="80" y1="40" x2="74" y2="40" gradientUnits="userSpaceOnUse">
<stop stop-color="#D9EAE5" stop-opacity="0.7"/>
<stop offset="0.841346" stop-color="#D9EAE5" stop-opacity="0.772115"/>
<stop offset="1" stop-color="#CEE8E2" stop-opacity="0.8"/>
</linearGradient>
<linearGradient id="paint11_linear_26_382" x1="40" y1="75" x2="40" y2="79.5" gradientUnits="userSpaceOnUse">
<stop stop-color="#D9ECE8" stop-opacity="0.9"/>
<stop offset="0.129808" stop-color="#C7E3DD" stop-opacity="0.865385"/>
<stop offset="1" stop-color="#C7E3DD" stop-opacity="0.7"/>
</linearGradient>
<linearGradient id="paint12_linear_26_382" x1="5" y1="40" x2="9.72905e-08" y2="40" gradientUnits="userSpaceOnUse">
<stop stop-color="#E7F1EF" stop-opacity="0.9"/>
<stop offset="0.115385" stop-color="#D4E8E4" stop-opacity="0.876923"/>
<stop offset="1" stop-color="#D4E8E4" stop-opacity="0.7"/>
</linearGradient>
<radialGradient id="paint13_radial_26_382" cx="0" cy="0" r="1" gradientUnits="userSpaceOnUse" gradientTransform="translate(12.5 57.5) rotate(90) scale(5.5)">
<stop stop-color="white"/>
<stop offset="1" stop-color="white" stop-opacity="0"/>
</radialGradient>
<radialGradient id="paint14_radial_26_382" cx="0" cy="0" r="1" gradientUnits="userSpaceOnUse" gradientTransform="translate(26.5 67.5) rotate(90) scale(5.5)">
<stop stop-color="white"/>
<stop offset="1" stop-color="white" stop-opacity="0"/>
</radialGradient>
<radialGradient id="paint15_radial_26_382" cx="0" cy="0" r="1" gradientUnits="userSpaceOnUse" gradientTransform="translate(43 75) rotate(90) scale(4)">
<stop stop-color="white"/>
<stop offset="1" stop-color="white" stop-opacity="0"/>
</radialGradient>
<radialGradient id="paint16_radial_26_382" cx="0" cy="0" r="1" gradientUnits="userSpaceOnUse" gradientTransform="translate(39 65) rotate(90) scale(3)">
<stop stop-color="white"/>
<stop offset="1" stop-color="white" stop-opacity="0"/>
</radialGradient>
<radialGradient id="paint17_radial_26_382" cx="0" cy="0" r="1" gradientUnits="userSpaceOnUse" gradientTransform="translate(25.5 51.5) rotate(90) scale(5.5)">
<stop stop-color="white"/>
<stop offset="1" stop-color="white" stop-opacity="0"/>
</radialGradient>
<radialGradient id="paint18_radial_26_382" cx="0" cy="0" r="1" gradientUnits="userSpaceOnUse" gradientTransform="translate(65.5 12.5) rotate(90) scale(5.5)">
<stop stop-color="white"/>
<stop offset="1" stop-color="white" stop-opacity="0"/>
</radialGradient>
<radialGradient id="paint19_radial_26_382" cx="0" cy="0" r="1" gradientUnits="userSpaceOnUse" gradientTransform="translate(65.5 76.5) rotate(90) scale(5.5)">
<stop stop-color="white"/>
<stop offset="1" stop-color="white" stop-opacity="0"/>
</radialGradient>
<radialGradient id="paint20_radial_26_382" cx="0" cy="0" r="1" gradientUnits="userSpaceOnUse" gradientTransform="translate(20.5 43.5) rotate(90) scale(5.5)">
<stop stop-color="white"/>
<stop offset="1" stop-color="white" stop-opacity="0"/>
</radialGradient>
<radialGradient id="paint21_radial_26_382" cx="0" cy="0" r="1" gradientUnits="userSpaceOnUse" gradientTransform="translate(21 58) rotate(90) scale(19 21.4359)">
<stop stop-color="white"/>
<stop offset="1" stop-color="white" stop-opacity="0"/>
</radialGradient>
<radialGradient id="paint22_radial_26_382" cx="0" cy="0" r="1" gradientUnits="userSpaceOnUse" gradientTransform="translate(63 68.8205) rotate(90) scale(12.1795 12.6667)">
<stop stop-color="white"/>
<stop offset="1" stop-color="white" stop-opacity="0"/>
</radialGradient>
<radialGradient id="paint23_radial_26_382" cx="0" cy="0" r="1" gradientUnits="userSpaceOnUse" gradientTransform="translate(68 12.8205) rotate(90) scale(12.1795 12.6667)">
<stop stop-color="white"/>
<stop offset="1" stop-color="white" stop-opacity="0"/>
</radialGradient>
<radialGradient id="paint24_radial_26_382" cx="0" cy="0" r="1" gradientUnits="userSpaceOnUse" gradientTransform="translate(12 15.8205) rotate(90) scale(12.1795 12.6667)">
<stop stop-color="white"/>
<stop offset="1" stop-color="white" stop-opacity="0"/>
</radialGradient>
</defs>
</svg>
