<svg width="80" height="170" viewBox="0 0 80 170" fill="none" xmlns="http://www.w3.org/2000/svg">
<path d="M70 170L66 165L75 156L80 160L70 170Z" fill="url(#paint0_linear_26_383)"/>
<path d="M70 170L66 165L75 156L80 160L70 170Z" fill="#D2E3E2"/>
<path d="M-1.74846e-07 160L5 156L14 165L10 170L-1.74846e-07 160Z" fill="#DDE9E9"/>
<path d="M10 -3.49691e-07L14 5L5 14L3.49691e-07 10L10 -3.49691e-07Z" fill="#CDE3DF"/>
<path d="M80 10.0001L75 14.0001L66 5.00006L70 6.08603e-05L80 10.0001Z" fill="#BAD5D1"/>
<path d="M14 165L66 165L70 170L10 170L14 165Z" fill="url(#paint1_linear_26_383)"/>
<path d="M75 156L74.9999 14L79.9999 10L80 160L75 156Z" fill="url(#paint2_linear_26_383)"/>
<path d="M66 5.00008L14 5.00008L10 7.36713e-05L70 7.62939e-05L66 5.00008Z" fill="url(#paint3_linear_26_383)"/>
<path d="M5 14L5.00001 156L3.8147e-06 160L0 9.99998L5 14Z" fill="url(#paint4_linear_26_383)"/>
<path d="M69.0002 168L66.0002 164L75.0002 155L79.0002 158L69.0002 168Z" fill="url(#paint5_radial_26_383)"/>
<path d="M1.00006 158L5.00006 155L14.0001 164L11.0001 168L1.00006 158Z" fill="url(#paint6_radial_26_383)"/>
<path d="M11.0002 2L14.0002 6L5.00018 15L1.00018 12L11.0002 2Z" fill="url(#paint7_radial_26_383)"/>
<path d="M79.0002 12L75.0002 15L66.0002 6L69.0002 2L79.0002 12Z" fill="url(#paint8_radial_26_383)"/>
<path d="M75.0002 155L75.0002 15L79.0002 12L79.0002 158L75.0002 155Z" fill="url(#paint9_linear_26_383)"/>
<path d="M14.0001 164L66.0001 164L69.0001 168L11.0001 168L14.0001 164Z" fill="url(#paint10_linear_26_383)"/>
<path d="M5.00003 15L5.00014 155L1.00014 158L1.00004 12L5.00003 15Z" fill="url(#paint11_linear_26_383)"/>
<path d="M66.0002 6L14.0002 6L11.0002 2L69.0002 2L66.0002 6Z" fill="url(#paint12_linear_26_383)"/>
<ellipse cx="23.5" cy="15.2988" rx="5.29878" ry="5.5" transform="rotate(90 23.5 15.2988)" fill="url(#paint13_radial_26_383)" fill-opacity="0.25"/>
<ellipse cx="13.5" cy="147.299" rx="5.29878" ry="5.5" transform="rotate(90 13.5 147.299)" fill="url(#paint14_radial_26_383)" fill-opacity="0.25"/>
<ellipse cx="24.5" cy="159.299" rx="5.29878" ry="5.5" transform="rotate(90 24.5 159.299)" fill="url(#paint15_radial_26_383)" fill-opacity="0.25"/>
<ellipse cx="12.5" cy="164.299" rx="5.29878" ry="5.5" transform="rotate(90 12.5 164.299)" fill="url(#paint16_radial_26_383)" fill-opacity="0.25"/>
<ellipse cx="19" cy="45" rx="9" ry="8" transform="rotate(90 19 45)" fill="url(#paint17_radial_26_383)" fill-opacity="0.25"/>
<ellipse cx="56.5" cy="78.5" rx="6.5" ry="5.5" transform="rotate(90 56.5 78.5)" fill="url(#paint18_radial_26_383)" fill-opacity="0.25"/>
<ellipse cx="15.5" cy="85" rx="5" ry="4.5" transform="rotate(90 15.5 85)" fill="url(#paint19_radial_26_383)" fill-opacity="0.25"/>
<ellipse cx="58.5" cy="26" rx="8" ry="7.5" transform="rotate(90 58.5 26)" fill="url(#paint20_radial_26_383)" fill-opacity="0.25"/>
<ellipse cx="65" cy="133.5" rx="8.5" ry="7" transform="rotate(90 65 133.5)" fill="url(#paint21_radial_26_383)" fill-opacity="0.25"/>
<ellipse cx="39.5" cy="8.29878" rx="5.29878" ry="5.5" transform="rotate(90 39.5 8.29878)" fill="url(#paint22_radial_26_383)" fill-opacity="0.25"/>
<ellipse cx="69.5" cy="110" rx="15" ry="12.5" transform="rotate(90 69.5 110)" fill="url(#paint23_radial_26_383)" fill-opacity="0.35"/>
<ellipse cx="5.5" cy="65.0671" rx="5.29878" ry="5.5" transform="rotate(90 5.5 65.0671)" fill="url(#paint24_radial_26_383)" fill-opacity="0.25"/>
<ellipse cx="34.5" cy="26.1951" rx="21.1951" ry="19.5" transform="rotate(90 34.5 26.1951)" fill="url(#paint25_radial_26_383)" fill-opacity="0.2"/>
<ellipse cx="13.5" cy="157.524" rx="12.5244" ry="12.5" transform="rotate(90 13.5 157.524)" fill="url(#paint26_radial_26_383)" fill-opacity="0.2"/>
<ellipse cx="66.5" cy="156.524" rx="12.5244" ry="12.5" transform="rotate(90 66.5 156.524)" fill="url(#paint27_radial_26_383)" fill-opacity="0.2"/>
<ellipse cx="66.5" cy="13.5244" rx="12.5244" ry="12.5" transform="rotate(90 66.5 13.5244)" fill="url(#paint28_radial_26_383)" fill-opacity="0.2"/>
<ellipse cx="14.5" cy="12.5244" rx="12.5244" ry="12.5" transform="rotate(90 14.5 12.5244)" fill="url(#paint29_radial_26_383)" fill-opacity="0.2"/>
<defs>
<linearGradient id="paint0_linear_26_383" x1="75.5" y1="165" x2="70.5" y2="160" gradientUnits="userSpaceOnUse">
<stop stop-color="#E3E5CF"/>
<stop offset="1" stop-color="#F1EEDF"/>
</linearGradient>
<linearGradient id="paint1_linear_26_383" x1="72.5" y1="167" x2="14.5" y2="167" gradientUnits="userSpaceOnUse">
<stop stop-color="#CEDEDC"/>
<stop offset="1" stop-color="#E0E7E8"/>
</linearGradient>
<linearGradient id="paint2_linear_26_383" x1="77" y1="160" x2="76.9999" y2="9.99999" gradientUnits="userSpaceOnUse">
<stop stop-color="#CBDFDC"/>
<stop offset="1" stop-color="#CADCD8"/>
</linearGradient>
<linearGradient id="paint3_linear_26_383" x1="70" y1="3.00005" x2="12" y2="3.00005" gradientUnits="userSpaceOnUse">
<stop stop-color="#CDE3DE"/>
<stop offset="1" stop-color="#BDDCD8"/>
</linearGradient>
<linearGradient id="paint4_linear_26_383" x1="2.99999" y1="160" x2="3.00001" y2="10" gradientUnits="userSpaceOnUse">
<stop stop-color="#DBE8E6"/>
<stop offset="1" stop-color="#C4E0D9"/>
</linearGradient>
<radialGradient id="paint5_radial_26_383" cx="0" cy="0" r="1" gradientUnits="userSpaceOnUse" gradientTransform="translate(74.5002 162.5) rotate(-131.186) scale(5.31507 8.37962)">
<stop stop-color="#D5EAE4" stop-opacity="0.7"/>
<stop offset="0.649038" stop-color="#D5EAE4" stop-opacity="0.9"/>
<stop offset="1" stop-color="#F0F8F5" stop-opacity="0.9"/>
</radialGradient>
<radialGradient id="paint6_radial_26_383" cx="0" cy="0" r="1" gradientUnits="userSpaceOnUse" gradientTransform="translate(5.00006 164) rotate(-45) scale(6.36396 9.98473)">
<stop stop-color="#D6E7E4" stop-opacity="0.7"/>
<stop offset="0.8125" stop-color="#E4F0ED" stop-opacity="0.826971"/>
<stop offset="1" stop-color="#FAFDFB" stop-opacity="0.9"/>
</radialGradient>
<radialGradient id="paint7_radial_26_383" cx="0" cy="0" r="1" gradientUnits="userSpaceOnUse" gradientTransform="translate(6.00018 7) rotate(41.1859) scale(5.31507 7.59296)">
<stop stop-color="#DAEDEA" stop-opacity="0.7"/>
<stop offset="0.769231" stop-color="#DAEDEA" stop-opacity="0.865385"/>
<stop offset="1" stop-color="#F4F9F7" stop-opacity="0.9"/>
</radialGradient>
<radialGradient id="paint8_radial_26_383" cx="0" cy="0" r="1" gradientUnits="userSpaceOnUse" gradientTransform="translate(73.5002 8) rotate(135) scale(4.24264 8.83594)">
<stop stop-color="#C6E5DE" stop-opacity="0.6"/>
<stop offset="0.649038" stop-color="#C6E5DE" stop-opacity="0.634615"/>
<stop offset="1" stop-color="#F8FBF9" stop-opacity="0.9"/>
</radialGradient>
<linearGradient id="paint9_linear_26_383" x1="79.0002" y1="129" x2="75.0002" y2="129" gradientUnits="userSpaceOnUse">
<stop stop-color="#D6E9E4" stop-opacity="0.7"/>
<stop offset="0.826923" stop-color="#D6E9E4" stop-opacity="0.865385"/>
<stop offset="1" stop-color="#E8F3F0" stop-opacity="0.9"/>
</linearGradient>
<linearGradient id="paint10_linear_26_383" x1="40.0001" y1="169" x2="40.0001" y2="163" gradientUnits="userSpaceOnUse">
<stop stop-color="#D9EAE5" stop-opacity="0.7"/>
<stop offset="0.841346" stop-color="#D9EAE5" stop-opacity="0.772115"/>
<stop offset="1" stop-color="#CEE8E2" stop-opacity="0.8"/>
</linearGradient>
<linearGradient id="paint11_linear_26_383" x1="5.00002" y1="129" x2="0.500019" y2="129" gradientUnits="userSpaceOnUse">
<stop stop-color="#D9ECE8" stop-opacity="0.9"/>
<stop offset="0.129808" stop-color="#C7E3DD" stop-opacity="0.865385"/>
<stop offset="1" stop-color="#C7E3DD" stop-opacity="0.7"/>
</linearGradient>
<linearGradient id="paint12_linear_26_383" x1="40.0002" y1="6" x2="40.0002" y2="0.999999" gradientUnits="userSpaceOnUse">
<stop stop-color="#E7F1EF" stop-opacity="0.9"/>
<stop offset="0.115385" stop-color="#D4E8E4" stop-opacity="0.876923"/>
<stop offset="1" stop-color="#D4E8E4" stop-opacity="0.7"/>
</linearGradient>
<radialGradient id="paint13_radial_26_383" cx="0" cy="0" r="1" gradientUnits="userSpaceOnUse" gradientTransform="translate(23.5 15.2988) rotate(90) scale(5.5 5.29878)">
<stop stop-color="white"/>
<stop offset="1" stop-color="white" stop-opacity="0"/>
</radialGradient>
<radialGradient id="paint14_radial_26_383" cx="0" cy="0" r="1" gradientUnits="userSpaceOnUse" gradientTransform="translate(13.5 147.299) rotate(90) scale(5.5 5.29878)">
<stop stop-color="white"/>
<stop offset="1" stop-color="white" stop-opacity="0"/>
</radialGradient>
<radialGradient id="paint15_radial_26_383" cx="0" cy="0" r="1" gradientUnits="userSpaceOnUse" gradientTransform="translate(24.5 159.299) rotate(90) scale(5.5 5.29878)">
<stop stop-color="white"/>
<stop offset="1" stop-color="white" stop-opacity="0"/>
</radialGradient>
<radialGradient id="paint16_radial_26_383" cx="0" cy="0" r="1" gradientUnits="userSpaceOnUse" gradientTransform="translate(12.5 164.299) rotate(90) scale(5.5 5.29878)">
<stop stop-color="white"/>
<stop offset="1" stop-color="white" stop-opacity="0"/>
</radialGradient>
<radialGradient id="paint17_radial_26_383" cx="0" cy="0" r="1" gradientUnits="userSpaceOnUse" gradientTransform="translate(19 45) rotate(90) scale(8 9)">
<stop stop-color="white"/>
<stop offset="1" stop-color="white" stop-opacity="0"/>
</radialGradient>
<radialGradient id="paint18_radial_26_383" cx="0" cy="0" r="1" gradientUnits="userSpaceOnUse" gradientTransform="translate(56.5 78.5) rotate(90) scale(5.5 6.5)">
<stop stop-color="white"/>
<stop offset="1" stop-color="white" stop-opacity="0"/>
</radialGradient>
<radialGradient id="paint19_radial_26_383" cx="0" cy="0" r="1" gradientUnits="userSpaceOnUse" gradientTransform="translate(15.5 85) rotate(90) scale(4.5 5)">
<stop stop-color="white"/>
<stop offset="1" stop-color="white" stop-opacity="0"/>
</radialGradient>
<radialGradient id="paint20_radial_26_383" cx="0" cy="0" r="1" gradientUnits="userSpaceOnUse" gradientTransform="translate(58.5 26) rotate(90) scale(7.5 8)">
<stop stop-color="white"/>
<stop offset="1" stop-color="white" stop-opacity="0"/>
</radialGradient>
<radialGradient id="paint21_radial_26_383" cx="0" cy="0" r="1" gradientUnits="userSpaceOnUse" gradientTransform="translate(65 133.5) rotate(90) scale(7 8.5)">
<stop stop-color="white"/>
<stop offset="1" stop-color="white" stop-opacity="0"/>
</radialGradient>
<radialGradient id="paint22_radial_26_383" cx="0" cy="0" r="1" gradientUnits="userSpaceOnUse" gradientTransform="translate(39.5 8.29878) rotate(90) scale(5.5 5.29878)">
<stop stop-color="white"/>
<stop offset="1" stop-color="white" stop-opacity="0"/>
</radialGradient>
<radialGradient id="paint23_radial_26_383" cx="0" cy="0" r="1" gradientUnits="userSpaceOnUse" gradientTransform="translate(69.5 110) rotate(90) scale(12.5 15)">
<stop stop-color="white"/>
<stop offset="1" stop-color="white" stop-opacity="0"/>
</radialGradient>
<radialGradient id="paint24_radial_26_383" cx="0" cy="0" r="1" gradientUnits="userSpaceOnUse" gradientTransform="translate(5.5 65.0671) rotate(90) scale(5.5 5.29878)">
<stop stop-color="white"/>
<stop offset="1" stop-color="white" stop-opacity="0"/>
</radialGradient>
<radialGradient id="paint25_radial_26_383" cx="0" cy="0" r="1" gradientUnits="userSpaceOnUse" gradientTransform="translate(34.5 26.6951) rotate(90) scale(19 20.6517)">
<stop stop-color="white"/>
<stop offset="1" stop-color="white" stop-opacity="0"/>
</radialGradient>
<radialGradient id="paint26_radial_26_383" cx="0" cy="0" r="1" gradientUnits="userSpaceOnUse" gradientTransform="translate(13.5 157.845) rotate(90) scale(12.1795 12.2033)">
<stop stop-color="white"/>
<stop offset="1" stop-color="white" stop-opacity="0"/>
</radialGradient>
<radialGradient id="paint27_radial_26_383" cx="0" cy="0" r="1" gradientUnits="userSpaceOnUse" gradientTransform="translate(66.5 156.845) rotate(90) scale(12.1795 12.2033)">
<stop stop-color="white"/>
<stop offset="1" stop-color="white" stop-opacity="0"/>
</radialGradient>
<radialGradient id="paint28_radial_26_383" cx="0" cy="0" r="1" gradientUnits="userSpaceOnUse" gradientTransform="translate(66.5 13.8449) rotate(90) scale(12.1795 12.2033)">
<stop stop-color="white"/>
<stop offset="1" stop-color="white" stop-opacity="0"/>
</radialGradient>
<radialGradient id="paint29_radial_26_383" cx="0" cy="0" r="1" gradientUnits="userSpaceOnUse" gradientTransform="translate(14.5 12.8449) rotate(90) scale(12.1795 12.2033)">
<stop stop-color="white"/>
<stop offset="1" stop-color="white" stop-opacity="0"/>
</radialGradient>
</defs>
</svg>
