<svg width="80" height="80" viewBox="0 0 80 80" fill="none" xmlns="http://www.w3.org/2000/svg">
<path d="M80 10L75 14L66 5L70 0L80 10Z" fill="#DAD7EA"/>
<path d="M70 80L66 75L75 66L80 70L70 80Z" fill="url(#paint0_linear_26_388)"/>
<path d="M-1.74846e-07 70L5 66L14 75L10 80L-1.74846e-07 70Z" fill="#E1E0E9"/>
<path d="M10 -3.49691e-07L14 5L5 14L3.49691e-07 10L10 -3.49691e-07Z" fill="#DBD8E9"/>
<path d="M66 5L14 5L10 -2.62268e-06L70 0L66 5Z" fill="url(#paint1_linear_26_388)"/>
<path d="M75 66L75 14L80 10L80 70L75 66Z" fill="url(#paint2_linear_26_388)"/>
<path d="M14 75L66 75L70 80L10 80L14 75Z" fill="url(#paint3_linear_26_388)"/>
<path d="M5 14L5 66L0 70L0 10L5 14Z" fill="url(#paint4_linear_26_388)"/>
<path d="M79 11L75 14L66 5L69 0.999998L79 11Z" fill="url(#paint5_radial_26_388)"/>
<path d="M69 79L66 75L75 66L79 69L69 79Z" fill="url(#paint6_radial_26_388)" fill-opacity="0.2"/>
<path d="M1 69L5 66L14 75L11 79L1 69Z" fill="url(#paint7_radial_26_388)"/>
<path d="M11 0.999997L14 5L5 14L1 11L11 0.999997Z" fill="url(#paint8_radial_26_388)"/>
<path d="M66 5L14 5L11 1L69 1L66 5Z" fill="url(#paint9_linear_26_388)"/>
<path d="M74.9999 66L74.9999 14L79 11L79 69L74.9999 66Z" fill="url(#paint10_radial_26_388)"/>
<path d="M14 75L66 75L69 79L11 79L14 75Z" fill="url(#paint11_linear_26_388)"/>
<path d="M5 14L5 66L1 69L1 11L5 14Z" fill="url(#paint12_linear_26_388)"/>
<circle cx="12.5" cy="55.5" r="5.5" fill="url(#paint13_radial_26_388)" fill-opacity="0.25"/>
<circle cx="26.5" cy="65.5" r="5.5" fill="url(#paint14_radial_26_388)" fill-opacity="0.25"/>
<circle cx="43" cy="73" r="4" fill="url(#paint15_radial_26_388)" fill-opacity="0.25"/>
<circle cx="39" cy="63" r="3" fill="url(#paint16_radial_26_388)" fill-opacity="0.25"/>
<circle cx="25.5" cy="49.5" r="5.5" fill="url(#paint17_radial_26_388)" fill-opacity="0.25"/>
<circle cx="65.5" cy="10.5" r="5.5" fill="url(#paint18_radial_26_388)" fill-opacity="0.25"/>
<circle cx="65.5" cy="74.5" r="5.5" fill="url(#paint19_radial_26_388)" fill-opacity="0.25"/>
<circle cx="20.5" cy="41.5" r="5.5" fill="url(#paint20_radial_26_388)" fill-opacity="0.25"/>
<ellipse cx="21" cy="55.5" rx="22" ry="19.5" fill="url(#paint21_radial_26_388)" fill-opacity="0.2"/>
<ellipse cx="63" cy="66.5" rx="13" ry="12.5" fill="url(#paint22_radial_26_388)" fill-opacity="0.2"/>
<ellipse cx="68" cy="13.5" rx="13" ry="12.5" fill="url(#paint23_radial_26_388)" fill-opacity="0.2"/>
<ellipse cx="12" cy="13.5" rx="13" ry="12.5" fill="url(#paint24_radial_26_388)" fill-opacity="0.2"/>
<defs>
<linearGradient id="paint0_linear_26_388" x1="70.5" y1="70" x2="75.5" y2="75" gradientUnits="userSpaceOnUse">
<stop stop-color="#E4E1EC"/>
<stop offset="0.879808" stop-color="#E3E1EE"/>
<stop offset="1" stop-color="#F2F1F8"/>
</linearGradient>
<linearGradient id="paint1_linear_26_388" x1="11.4" y1="5.00002" x2="69" y2="5.00002" gradientUnits="userSpaceOnUse">
<stop stop-color="#D8D8E7"/>
<stop offset="1" stop-color="#DFDEE7"/>
</linearGradient>
<linearGradient id="paint2_linear_26_388" x1="77" y1="10" x2="77" y2="70" gradientUnits="userSpaceOnUse">
<stop stop-color="#E2E1EA"/>
<stop offset="1" stop-color="#DDDBE6"/>
</linearGradient>
<linearGradient id="paint3_linear_26_388" x1="10" y1="77" x2="70" y2="77" gradientUnits="userSpaceOnUse">
<stop stop-color="#DBD8E6"/>
<stop offset="1" stop-color="#DFDDE7"/>
</linearGradient>
<linearGradient id="paint4_linear_26_388" x1="3" y1="10" x2="2.99999" y2="70" gradientUnits="userSpaceOnUse">
<stop stop-color="#D7D4E3"/>
<stop offset="1" stop-color="#DEDCE7"/>
</linearGradient>
<radialGradient id="paint5_radial_26_388" cx="0" cy="0" r="1" gradientUnits="userSpaceOnUse" gradientTransform="translate(74.5 6) rotate(135) scale(5.65685 9.22488)">
<stop stop-color="#E9E5F2" stop-opacity="0.7"/>
<stop offset="0.692308" stop-color="#EEECF6" stop-opacity="0.872115"/>
<stop offset="1" stop-color="#F6F7FA" stop-opacity="0.9"/>
</radialGradient>
<radialGradient id="paint6_radial_26_388" cx="0" cy="0" r="1" gradientUnits="userSpaceOnUse" gradientTransform="translate(75 75) rotate(-135) scale(6.36396 7.4257)">
<stop stop-color="#EDEBF4" stop-opacity="0.7"/>
<stop offset="0.769231" stop-color="#EDEBF4" stop-opacity="0.780769"/>
<stop offset="0.951923" stop-color="#FDFCFD" stop-opacity="0.9"/>
</radialGradient>
<radialGradient id="paint7_radial_26_388" cx="0" cy="0" r="1" gradientUnits="userSpaceOnUse" gradientTransform="translate(6 74) rotate(-48.8141) scale(5.31507 7.59296)">
<stop stop-color="#EBE8F4" stop-opacity="0.7"/>
<stop offset="0.649038" stop-color="#EBE8F4" stop-opacity="0.865385"/>
<stop offset="1" stop-color="#F3F2F8" stop-opacity="0.9"/>
</radialGradient>
<radialGradient id="paint8_radial_26_388" cx="0" cy="0" r="1" gradientUnits="userSpaceOnUse" gradientTransform="translate(7 6.5) rotate(45) scale(4.24264 8.83594)">
<stop stop-color="#E9E6F7" stop-opacity="0.6"/>
<stop offset="0.649038" stop-color="#E9E6F7" stop-opacity="0.634615"/>
<stop offset="0.947115" stop-color="#FCFCFE" stop-opacity="0.9"/>
</radialGradient>
<linearGradient id="paint9_linear_26_388" x1="40" y1="0.499999" x2="40" y2="5" gradientUnits="userSpaceOnUse">
<stop stop-color="#E7E5F5" stop-opacity="0.7"/>
<stop offset="0.894231" stop-color="#E7E5F5" stop-opacity="0.878846"/>
<stop offset="1" stop-color="#EFEFF6" stop-opacity="0.9"/>
</linearGradient>
<radialGradient id="paint10_radial_26_388" cx="0" cy="0" r="1" gradientUnits="userSpaceOnUse" gradientTransform="translate(79 45) rotate(180) scale(4.5 39.798)">
<stop stop-color="#DFDCEE" stop-opacity="0.7"/>
<stop offset="0.783654" stop-color="#DFDCEE" stop-opacity="0.9"/>
<stop offset="1" stop-color="#EDEBF4" stop-opacity="0.9"/>
</radialGradient>
<linearGradient id="paint11_linear_26_388" x1="40" y1="75" x2="40" y2="79.5" gradientUnits="userSpaceOnUse">
<stop stop-color="#E4E1F1" stop-opacity="0.9"/>
<stop offset="0.129808" stop-color="#DEDBED" stop-opacity="0.865385"/>
<stop offset="1" stop-color="#DEDBED" stop-opacity="0.7"/>
</linearGradient>
<linearGradient id="paint12_linear_26_388" x1="5" y1="40" x2="9.72905e-08" y2="40" gradientUnits="userSpaceOnUse">
<stop stop-color="#E7E3F3" stop-opacity="0.9"/>
<stop offset="0.115385" stop-color="#E3DDF2" stop-opacity="0.876923"/>
<stop offset="1" stop-color="#E3DDF2" stop-opacity="0.7"/>
</linearGradient>
<radialGradient id="paint13_radial_26_388" cx="0" cy="0" r="1" gradientUnits="userSpaceOnUse" gradientTransform="translate(12.5 55.5) rotate(90) scale(5.5)">
<stop stop-color="white"/>
<stop offset="1" stop-color="white" stop-opacity="0"/>
</radialGradient>
<radialGradient id="paint14_radial_26_388" cx="0" cy="0" r="1" gradientUnits="userSpaceOnUse" gradientTransform="translate(26.5 65.5) rotate(90) scale(5.5)">
<stop stop-color="white"/>
<stop offset="1" stop-color="white" stop-opacity="0"/>
</radialGradient>
<radialGradient id="paint15_radial_26_388" cx="0" cy="0" r="1" gradientUnits="userSpaceOnUse" gradientTransform="translate(43 73) rotate(90) scale(4)">
<stop stop-color="white"/>
<stop offset="1" stop-color="white" stop-opacity="0"/>
</radialGradient>
<radialGradient id="paint16_radial_26_388" cx="0" cy="0" r="1" gradientUnits="userSpaceOnUse" gradientTransform="translate(39 63) rotate(90) scale(3)">
<stop stop-color="white"/>
<stop offset="1" stop-color="white" stop-opacity="0"/>
</radialGradient>
<radialGradient id="paint17_radial_26_388" cx="0" cy="0" r="1" gradientUnits="userSpaceOnUse" gradientTransform="translate(25.5 49.5) rotate(90) scale(5.5)">
<stop stop-color="white"/>
<stop offset="1" stop-color="white" stop-opacity="0"/>
</radialGradient>
<radialGradient id="paint18_radial_26_388" cx="0" cy="0" r="1" gradientUnits="userSpaceOnUse" gradientTransform="translate(65.5 10.5) rotate(90) scale(5.5)">
<stop stop-color="white"/>
<stop offset="1" stop-color="white" stop-opacity="0"/>
</radialGradient>
<radialGradient id="paint19_radial_26_388" cx="0" cy="0" r="1" gradientUnits="userSpaceOnUse" gradientTransform="translate(65.5 74.5) rotate(90) scale(5.5)">
<stop stop-color="white"/>
<stop offset="1" stop-color="white" stop-opacity="0"/>
</radialGradient>
<radialGradient id="paint20_radial_26_388" cx="0" cy="0" r="1" gradientUnits="userSpaceOnUse" gradientTransform="translate(20.5 41.5) rotate(90) scale(5.5)">
<stop stop-color="white"/>
<stop offset="1" stop-color="white" stop-opacity="0"/>
</radialGradient>
<radialGradient id="paint21_radial_26_388" cx="0" cy="0" r="1" gradientUnits="userSpaceOnUse" gradientTransform="translate(21 56) rotate(90) scale(19 21.4359)">
<stop stop-color="white"/>
<stop offset="1" stop-color="white" stop-opacity="0"/>
</radialGradient>
<radialGradient id="paint22_radial_26_388" cx="0" cy="0" r="1" gradientUnits="userSpaceOnUse" gradientTransform="translate(63 66.8205) rotate(90) scale(12.1795 12.6667)">
<stop stop-color="white"/>
<stop offset="1" stop-color="white" stop-opacity="0"/>
</radialGradient>
<radialGradient id="paint23_radial_26_388" cx="0" cy="0" r="1" gradientUnits="userSpaceOnUse" gradientTransform="translate(68 13.8205) rotate(90) scale(12.1795 12.6667)">
<stop stop-color="white"/>
<stop offset="1" stop-color="white" stop-opacity="0"/>
</radialGradient>
<radialGradient id="paint24_radial_26_388" cx="0" cy="0" r="1" gradientUnits="userSpaceOnUse" gradientTransform="translate(12 13.8205) rotate(90) scale(12.1795 12.6667)">
<stop stop-color="white"/>
<stop offset="1" stop-color="white" stop-opacity="0"/>
</radialGradient>
</defs>
</svg>
