<svg width="448" height="448" viewBox="0 0 448 448" fill="none" xmlns="http://www.w3.org/2000/svg">
<g clip-path="url(#clip0_39_50)">
<path d="M434 5L438 -8.74228e-07L448 10L443 14L434 5Z" fill="url(#paint0_linear_39_50)"/>
<path d="M5 14L0 10L10 0L14 5L5 14Z" fill="url(#paint1_linear_39_50)"/>
<path d="M14 443L10 448L1.31134e-06 438L5 434L14 443Z" fill="url(#paint2_linear_39_50)"/>
<path d="M443 434L448 438L438 448L434 443L443 434Z" fill="url(#paint3_linear_39_50)"/>
<path d="M434 4.99997L14 5.00001L10 1.68274e-05L438 -3.05176e-05L434 4.99997Z" fill="url(#paint4_linear_39_50)"/>
<path d="M14 443L434 443L438 448L10 448L14 443Z" fill="url(#paint5_linear_39_50)"/>
<path d="M5 14L4.99993 434L-6.53049e-05 438L0 10L5 14Z" fill="url(#paint6_linear_39_50)"/>
<path d="M443 434L443 14L448 10L448 438L443 434Z" fill="url(#paint7_linear_39_50)"/>
<path d="M447 11.0001L443 14.0001L434 5.00012L437 1.00012L447 11.0001Z" fill="url(#paint8_radial_39_50)"/>
<path d="M437 447L434 443L443 434L447 437L437 447Z" fill="url(#paint9_radial_39_50)"/>
<path d="M1 437L5 434L14 443L11 447L1 437Z" fill="url(#paint10_radial_39_50)"/>
<path d="M11 0.999966L14 4.99997L5 14L1 11L11 0.999966Z" fill="url(#paint11_radial_39_50)"/>
<path d="M434 5.00016L262 5.00017L259 1.00018L437 1.00015L434 5.00016Z" fill="url(#paint12_radial_39_50)"/>
<path d="M262 4.99997L14 5.00015L11 1.00015L259 1.00015L262 4.99997Z" fill="url(#paint13_radial_39_50)"/>
<path d="M443 434L443 237L447 234L447 437L443 434Z" fill="url(#paint14_radial_39_50)"/>
<path d="M443 237L443 14L447 11L447 234L443 237Z" fill="url(#paint15_radial_39_50)"/>
<path d="M14 443L203.5 443.5L206.5 447.5L11 447L12.5 445L14 443Z" fill="url(#paint16_radial_39_50)"/>
<path d="M5 14L5 245L1 248L1 11L5 14Z" fill="url(#paint17_radial_39_50)"/>
<path d="M203.5 443.5L434 443L437 447L206.5 447.5L205 445.5L203.5 443.5Z" fill="url(#paint18_radial_39_50)"/>
<path d="M5 245L5.00001 434L1 437L1 248L5 245Z" fill="url(#paint19_radial_39_50)"/>
<ellipse cx="336.455" cy="366.1" rx="111.293" ry="87.2361" fill="url(#paint20_radial_39_50)" fill-opacity="0.1"/>
<ellipse cx="93.2933" cy="321.236" rx="111.293" ry="87.2361" fill="url(#paint21_radial_39_50)" fill-opacity="0.1"/>
<ellipse cx="44.5" cy="99" rx="10.5" ry="11" fill="url(#paint22_radial_39_50)" fill-opacity="0.25"/>
<ellipse cx="91" cy="88" rx="18" ry="16" fill="url(#paint23_radial_39_50)" fill-opacity="0.2"/>
<ellipse cx="98" cy="34" rx="27" ry="25" fill="url(#paint24_radial_39_50)" fill-opacity="0.25"/>
<ellipse cx="109" cy="117" rx="10" ry="9" fill="url(#paint25_radial_39_50)" fill-opacity="0.2"/>
<ellipse cx="87" cy="44" rx="16" ry="15" fill="url(#paint26_radial_39_50)" fill-opacity="0.25"/>
<ellipse cx="357" cy="28" rx="22" ry="18" fill="url(#paint27_radial_39_50)" fill-opacity="0.15"/>
<circle cx="59.5" cy="71.5" r="10.5" fill="url(#paint28_radial_39_50)" fill-opacity="0.25"/>
<ellipse cx="127" cy="30" rx="30" ry="25" fill="url(#paint29_radial_39_50)" fill-opacity="0.35"/>
<ellipse cx="93.5" cy="16" rx="29.5" ry="25" fill="url(#paint30_radial_39_50)" fill-opacity="0.35"/>
<ellipse cx="146.5" cy="157" rx="10.5" ry="11" fill="url(#paint31_radial_39_50)" fill-opacity="0.25"/>
<ellipse cx="58" cy="45.5" rx="42" ry="38.5" fill="url(#paint32_radial_39_50)" fill-opacity="0.5"/>
<circle cx="407.5" cy="300.5" r="52.5" fill="url(#paint33_radial_39_50)" fill-opacity="0.2"/>
<circle cx="416" cy="24" r="32" fill="url(#paint34_radial_39_50)" fill-opacity="0.15"/>
<ellipse cx="62.5" cy="16" rx="38.5" ry="31" fill="url(#paint35_radial_39_50)"/>
<circle cx="43" cy="139" r="25" fill="url(#paint36_radial_39_50)" fill-opacity="0.2"/>
<ellipse cx="33" cy="79.5" rx="25" ry="24.5" fill="url(#paint37_radial_39_50)" fill-opacity="0.2"/>
<circle cx="146" cy="95" r="25" fill="url(#paint38_radial_39_50)" fill-opacity="0.15"/>
<ellipse cx="108" cy="55.5" rx="25" ry="24.5" fill="url(#paint39_radial_39_50)" fill-opacity="0.2"/>
<circle cx="92" cy="157" r="25" fill="url(#paint40_radial_39_50)" fill-opacity="0.2"/>
<circle cx="31" cy="360" r="31" fill="url(#paint41_radial_39_50)" fill-opacity="0.2"/>
<ellipse cx="396" cy="424.5" rx="28" ry="27.5" fill="url(#paint42_radial_39_50)" fill-opacity="0.2"/>
<ellipse cx="317.5" cy="272" rx="23.5" ry="24" fill="url(#paint43_radial_39_50)" fill-opacity="0.2"/>
<circle cx="24" cy="279" r="31" fill="url(#paint44_radial_39_50)" fill-opacity="0.2"/>
<circle cx="127" cy="407" r="31" fill="url(#paint45_radial_39_50)" fill-opacity="0.15"/>
<ellipse cx="83" cy="421.5" rx="31" ry="30.5" fill="url(#paint46_radial_39_50)" fill-opacity="0.2"/>
<ellipse cx="97.5" cy="375" rx="30.5" ry="31" fill="url(#paint47_radial_39_50)" fill-opacity="0.2"/>
</g>
<defs>
<linearGradient id="paint0_linear_39_50" x1="438.5" y1="9.99993" x2="443.5" y2="4.99993" gradientUnits="userSpaceOnUse">
<stop stop-color="#84C3B1"/>
<stop offset="1" stop-color="#84C3B1"/>
</linearGradient>
<linearGradient id="paint1_linear_39_50" x1="9.99994" y1="9.49995" x2="4.99994" y2="4.99995" gradientUnits="userSpaceOnUse">
<stop stop-color="#C0E0D1"/>
<stop offset="1" stop-color="#C0E0D1"/>
</linearGradient>
<linearGradient id="paint2_linear_39_50" x1="4.99995" y1="443" x2="9.49995" y2="438" gradientUnits="userSpaceOnUse">
<stop stop-color="#86C2B0"/>
<stop offset="1" stop-color="#86C2B0"/>
</linearGradient>
<linearGradient id="paint3_linear_39_50" x1="438.5" y1="437.5" x2="444" y2="443" gradientUnits="userSpaceOnUse">
<stop stop-color="#6ABCA1"/>
<stop offset="1" stop-color="#6ABCA1"/>
</linearGradient>
<linearGradient id="paint4_linear_39_50" x1="164" y1="2.9999" x2="312" y2="2.99993" gradientUnits="userSpaceOnUse">
<stop stop-color="#C7E2D7"/>
<stop offset="1" stop-color="#90C6B4"/>
</linearGradient>
<linearGradient id="paint5_linear_39_50" x1="148.999" y1="443" x2="286.999" y2="443" gradientUnits="userSpaceOnUse">
<stop stop-color="#6FB8A3"/>
<stop offset="1" stop-color="#6DB79F"/>
</linearGradient>
<linearGradient id="paint6_linear_39_50" x1="2.99994" y1="333" x2="2.99994" y2="92.9993" gradientUnits="userSpaceOnUse">
<stop stop-color="#8FC7B6"/>
<stop offset="1" stop-color="#C1DFD2"/>
</linearGradient>
<linearGradient id="paint7_linear_39_50" x1="443" y1="104" x2="443" y2="349.5" gradientUnits="userSpaceOnUse">
<stop stop-color="#63AC97"/>
<stop offset="1" stop-color="#7BB9A8"/>
</linearGradient>
<radialGradient id="paint8_radial_39_50" cx="0" cy="0" r="1" gradientUnits="userSpaceOnUse" gradientTransform="translate(442 4.99995) rotate(175.236) scale(6.0208 9.94256)">
<stop stop-color="#8FC9BA" stop-opacity="0.7"/>
<stop offset="0.548077" stop-color="#8FC9BA" stop-opacity="0.9"/>
<stop offset="0.860577" stop-color="#8FC9BA" stop-opacity="0.9"/>
<stop offset="1" stop-color="#8FC9BA" stop-opacity="0.9"/>
</radialGradient>
<radialGradient id="paint9_radial_39_50" cx="0" cy="0" r="1" gradientUnits="userSpaceOnUse" gradientTransform="translate(440.5 440.5) rotate(-135) scale(2.12132 7.69983)">
<stop stop-color="#C4DFD8" stop-opacity="0.7"/>
<stop offset="0.610577" stop-color="#C4DFD8" stop-opacity="0.826971"/>
<stop offset="1" stop-color="#DBF0EB" stop-opacity="0.9"/>
</radialGradient>
<radialGradient id="paint10_radial_39_50" cx="0" cy="0" r="1" gradientUnits="userSpaceOnUse" gradientTransform="translate(6 442) rotate(-48.8141) scale(5.31507 7.59296)">
<stop stop-color="#9CD0C1" stop-opacity="0.7"/>
<stop offset="0.769231" stop-color="#9CD0C1" stop-opacity="0.865385"/>
<stop offset="1" stop-color="#9CD0C1" stop-opacity="0.9"/>
</radialGradient>
<radialGradient id="paint11_radial_39_50" cx="0" cy="0" r="1" gradientUnits="userSpaceOnUse" gradientTransform="translate(7 6.49997) rotate(45) scale(4.24264 8.83594)">
<stop stop-color="#CCE5DA" stop-opacity="0.6"/>
<stop offset="0.649038" stop-color="#CCE5DA" stop-opacity="0.634615"/>
<stop offset="1" stop-color="#CCE5DA" stop-opacity="0.9"/>
</radialGradient>
<radialGradient id="paint12_radial_39_50" cx="0" cy="0" r="1" gradientUnits="userSpaceOnUse" gradientTransform="translate(282 3.99996) rotate(-89.9999) scale(3.5 36.054)">
<stop offset="0.00480769" stop-color="#F5F8F4"/>
<stop offset="0.278846" stop-color="#C3E2D3" stop-opacity="0.865385"/>
<stop offset="1" stop-color="#C3E2D3" stop-opacity="0.7"/>
</radialGradient>
<radialGradient id="paint13_radial_39_50" cx="0" cy="0" r="1" gradientUnits="userSpaceOnUse" gradientTransform="translate(218 3.99996) rotate(-90) scale(4.49999 65.25)">
<stop stop-color="#C3E2D3"/>
<stop offset="0.298077" stop-color="#C3E2D3" stop-opacity="0.865385"/>
<stop offset="1" stop-color="#C3E2D3" stop-opacity="0.9"/>
</radialGradient>
<radialGradient id="paint14_radial_39_50" cx="0" cy="0" r="1" gradientUnits="userSpaceOnUse" gradientTransform="translate(444.5 289.5) scale(3.5 75.3439)">
<stop stop-color="#88C5B2"/>
<stop offset="0.423077" stop-color="#88C5B2" stop-opacity="0.772115"/>
<stop offset="1" stop-color="#88C5B2" stop-opacity="0.7"/>
</radialGradient>
<radialGradient id="paint15_radial_39_50" cx="0" cy="0" r="1" gradientUnits="userSpaceOnUse" gradientTransform="translate(444 129) scale(3.5 23.8078)">
<stop stop-color="#88C5B2" stop-opacity="0.8"/>
<stop offset="0.548077" stop-color="#88C5B2" stop-opacity="0.772115"/>
<stop offset="1" stop-color="#88C5B2" stop-opacity="0.7"/>
</radialGradient>
<radialGradient id="paint16_radial_39_50" cx="0" cy="0" r="1" gradientUnits="userSpaceOnUse" gradientTransform="translate(168 444) rotate(90) scale(3.5 66.3447)">
<stop stop-color="#92CAB9" stop-opacity="0.9"/>
<stop offset="0.346154" stop-color="#92CAB9" stop-opacity="0.865385"/>
<stop offset="1" stop-color="#92CAB9" stop-opacity="0.7"/>
</radialGradient>
<radialGradient id="paint17_radial_39_50" cx="0" cy="0" r="1" gradientUnits="userSpaceOnUse" gradientTransform="translate(5.00005 124.5) rotate(-180) scale(4.00003 73.8081)">
<stop offset="0.0432692" stop-color="#A2D4C4" stop-opacity="0.9"/>
<stop offset="0.168269" stop-color="#A2D4C4" stop-opacity="0.876923"/>
<stop offset="1" stop-color="#A2D4C4" stop-opacity="0.7"/>
</radialGradient>
<radialGradient id="paint18_radial_39_50" cx="0" cy="0" r="1" gradientUnits="userSpaceOnUse" gradientTransform="translate(259 446.5) rotate(-90) scale(9.50005 124.556)">
<stop stop-color="#92CAB9" stop-opacity="0.9"/>
<stop offset="0.129808" stop-color="#92CAB9" stop-opacity="0.865385"/>
<stop offset="1" stop-color="#92CAB9" stop-opacity="0.7"/>
</radialGradient>
<radialGradient id="paint19_radial_39_50" cx="0" cy="0" r="1" gradientUnits="userSpaceOnUse" gradientTransform="translate(4.5 294.5) rotate(180) scale(3.5 13.448)">
<stop stop-color="#A2D4C4" stop-opacity="0.9"/>
<stop offset="0.298077" stop-color="#A2D4C4" stop-opacity="0.876923"/>
<stop offset="1" stop-color="#A2D4C4" stop-opacity="0.7"/>
</radialGradient>
<radialGradient id="paint20_radial_39_50" cx="0" cy="0" r="1" gradientUnits="userSpaceOnUse" gradientTransform="translate(336.455 366.1) rotate(90) scale(87.2361 111.293)">
<stop stop-color="white"/>
<stop offset="1" stop-color="white" stop-opacity="0"/>
</radialGradient>
<radialGradient id="paint21_radial_39_50" cx="0" cy="0" r="1" gradientUnits="userSpaceOnUse" gradientTransform="translate(93.2933 321.236) rotate(90) scale(87.2361 111.293)">
<stop stop-color="white"/>
<stop offset="1" stop-color="white" stop-opacity="0"/>
</radialGradient>
<radialGradient id="paint22_radial_39_50" cx="0" cy="0" r="1" gradientUnits="userSpaceOnUse" gradientTransform="translate(44.5 99) rotate(90) scale(11 10.5)">
<stop stop-color="white"/>
<stop offset="1" stop-color="white" stop-opacity="0"/>
</radialGradient>
<radialGradient id="paint23_radial_39_50" cx="0" cy="0" r="1" gradientUnits="userSpaceOnUse" gradientTransform="translate(91 88) rotate(90) scale(16 18)">
<stop stop-color="white"/>
<stop offset="1" stop-color="white" stop-opacity="0"/>
</radialGradient>
<radialGradient id="paint24_radial_39_50" cx="0" cy="0" r="1" gradientUnits="userSpaceOnUse" gradientTransform="translate(98 34) rotate(90) scale(25 27)">
<stop stop-color="white"/>
<stop offset="1" stop-color="white" stop-opacity="0"/>
</radialGradient>
<radialGradient id="paint25_radial_39_50" cx="0" cy="0" r="1" gradientUnits="userSpaceOnUse" gradientTransform="translate(109 117) rotate(90) scale(9 10)">
<stop stop-color="white"/>
<stop offset="1" stop-color="white" stop-opacity="0"/>
</radialGradient>
<radialGradient id="paint26_radial_39_50" cx="0" cy="0" r="1" gradientUnits="userSpaceOnUse" gradientTransform="translate(87 44) rotate(90) scale(15 16)">
<stop stop-color="white"/>
<stop offset="1" stop-color="white" stop-opacity="0"/>
</radialGradient>
<radialGradient id="paint27_radial_39_50" cx="0" cy="0" r="1" gradientUnits="userSpaceOnUse" gradientTransform="translate(357 28) rotate(90) scale(18 22)">
<stop stop-color="white"/>
<stop offset="1" stop-color="white" stop-opacity="0"/>
</radialGradient>
<radialGradient id="paint28_radial_39_50" cx="0" cy="0" r="1" gradientUnits="userSpaceOnUse" gradientTransform="translate(59.5 71.5) rotate(90) scale(10.5)">
<stop stop-color="white"/>
<stop offset="1" stop-color="white" stop-opacity="0"/>
</radialGradient>
<radialGradient id="paint29_radial_39_50" cx="0" cy="0" r="1" gradientUnits="userSpaceOnUse" gradientTransform="translate(127 30) rotate(90) scale(25 30)">
<stop stop-color="white"/>
<stop offset="1" stop-color="white" stop-opacity="0"/>
</radialGradient>
<radialGradient id="paint30_radial_39_50" cx="0" cy="0" r="1" gradientUnits="userSpaceOnUse" gradientTransform="translate(93.5 16) rotate(90) scale(25 29.5)">
<stop stop-color="white"/>
<stop offset="1" stop-color="white" stop-opacity="0"/>
</radialGradient>
<radialGradient id="paint31_radial_39_50" cx="0" cy="0" r="1" gradientUnits="userSpaceOnUse" gradientTransform="translate(146.5 157) rotate(90) scale(11 10.5)">
<stop stop-color="white"/>
<stop offset="1" stop-color="white" stop-opacity="0"/>
</radialGradient>
<radialGradient id="paint32_radial_39_50" cx="0" cy="0" r="1" gradientUnits="userSpaceOnUse" gradientTransform="translate(58 46.4872) rotate(90) scale(37.5128 40.9231)">
<stop stop-color="white"/>
<stop offset="1" stop-color="white" stop-opacity="0"/>
</radialGradient>
<radialGradient id="paint33_radial_39_50" cx="0" cy="0" r="1" gradientUnits="userSpaceOnUse" gradientTransform="translate(407.5 301.846) rotate(90) scale(51.1538)">
<stop stop-color="white"/>
<stop offset="1" stop-color="white" stop-opacity="0"/>
</radialGradient>
<radialGradient id="paint34_radial_39_50" cx="0" cy="0" r="1" gradientUnits="userSpaceOnUse" gradientTransform="translate(416 24.8205) rotate(90) scale(31.1795)">
<stop stop-color="white"/>
<stop offset="1" stop-color="white" stop-opacity="0"/>
</radialGradient>
<radialGradient id="paint35_radial_39_50" cx="0" cy="0" r="1" gradientTransform="matrix(1.97436 24 -29.8064 2.51613 53.6154 15)" gradientUnits="userSpaceOnUse">
<stop stop-color="white" stop-opacity="0.9"/>
<stop offset="0.471154" stop-color="white" stop-opacity="0.826923"/>
<stop offset="1" stop-color="white" stop-opacity="0"/>
</radialGradient>
<radialGradient id="paint36_radial_39_50" cx="0" cy="0" r="1" gradientUnits="userSpaceOnUse" gradientTransform="translate(43 139.641) rotate(90) scale(24.359)">
<stop stop-color="white"/>
<stop offset="1" stop-color="white" stop-opacity="0"/>
</radialGradient>
<radialGradient id="paint37_radial_39_50" cx="0" cy="0" r="1" gradientUnits="userSpaceOnUse" gradientTransform="translate(33 80.1282) rotate(90) scale(23.8718 24.359)">
<stop stop-color="white"/>
<stop offset="1" stop-color="white" stop-opacity="0"/>
</radialGradient>
<radialGradient id="paint38_radial_39_50" cx="0" cy="0" r="1" gradientUnits="userSpaceOnUse" gradientTransform="translate(146 95.641) rotate(90) scale(24.359)">
<stop stop-color="white"/>
<stop offset="1" stop-color="white" stop-opacity="0"/>
</radialGradient>
<radialGradient id="paint39_radial_39_50" cx="0" cy="0" r="1" gradientUnits="userSpaceOnUse" gradientTransform="translate(108 56.1282) rotate(90) scale(23.8718 24.359)">
<stop stop-color="white"/>
<stop offset="1" stop-color="white" stop-opacity="0"/>
</radialGradient>
<radialGradient id="paint40_radial_39_50" cx="0" cy="0" r="1" gradientUnits="userSpaceOnUse" gradientTransform="translate(92 157.641) rotate(90) scale(24.359)">
<stop stop-color="white"/>
<stop offset="1" stop-color="white" stop-opacity="0"/>
</radialGradient>
<radialGradient id="paint41_radial_39_50" cx="0" cy="0" r="1" gradientUnits="userSpaceOnUse" gradientTransform="translate(31 360.795) rotate(90) scale(30.2051)">
<stop stop-color="white"/>
<stop offset="1" stop-color="white" stop-opacity="0"/>
</radialGradient>
<radialGradient id="paint42_radial_39_50" cx="0" cy="0" r="1" gradientUnits="userSpaceOnUse" gradientTransform="translate(396 425.205) rotate(90) scale(26.7949 27.2821)">
<stop stop-color="white"/>
<stop offset="1" stop-color="white" stop-opacity="0"/>
</radialGradient>
<radialGradient id="paint43_radial_39_50" cx="0" cy="0" r="1" gradientUnits="userSpaceOnUse" gradientTransform="translate(317.5 272.615) rotate(90) scale(23.3846 22.8974)">
<stop stop-color="white"/>
<stop offset="1" stop-color="white" stop-opacity="0"/>
</radialGradient>
<radialGradient id="paint44_radial_39_50" cx="0" cy="0" r="1" gradientUnits="userSpaceOnUse" gradientTransform="translate(24 279.795) rotate(90) scale(30.2051)">
<stop stop-color="white"/>
<stop offset="1" stop-color="white" stop-opacity="0"/>
</radialGradient>
<radialGradient id="paint45_radial_39_50" cx="0" cy="0" r="1" gradientUnits="userSpaceOnUse" gradientTransform="translate(127 407.795) rotate(90) scale(30.2051)">
<stop stop-color="white"/>
<stop offset="1" stop-color="white" stop-opacity="0"/>
</radialGradient>
<radialGradient id="paint46_radial_39_50" cx="0" cy="0" r="1" gradientUnits="userSpaceOnUse" gradientTransform="translate(83 422.282) rotate(90) scale(29.7179 30.2051)">
<stop stop-color="white"/>
<stop offset="1" stop-color="white" stop-opacity="0"/>
</radialGradient>
<radialGradient id="paint47_radial_39_50" cx="0" cy="0" r="1" gradientUnits="userSpaceOnUse" gradientTransform="translate(97.5 375.795) rotate(90) scale(30.2051 29.7179)">
<stop stop-color="white"/>
<stop offset="1" stop-color="white" stop-opacity="0"/>
</radialGradient>
<clipPath id="clip0_39_50">
<rect width="448" height="448" fill="white"/>
</clipPath>
</defs>
</svg>
