<svg width="170" height="260" viewBox="0 0 170 260" fill="none" xmlns="http://www.w3.org/2000/svg">
<g clip-path="url(#clip0_1_13)">
<path d="M156 5.00007L160 6.77903e-05L170 10.0001L165 14.0001L156 5.00007Z" fill="url(#paint0_linear_1_13)"/>
<path d="M5.00006 14L6.10352e-05 10L10.0001 4.57764e-05L14.0001 5.00005L5.00006 14Z" fill="url(#paint1_linear_1_13)"/>
<path d="M14.0001 255L10.0001 260L6.23465e-05 250L5.00006 246L14.0001 255Z" fill="url(#paint2_linear_1_13)"/>
<path d="M165 246L170 250L160 260L156 255L165 246Z" fill="url(#paint3_linear_1_13)"/>
<path d="M156 5L14.0001 5.00004L10.0001 4.63341e-05L160 7.62939e-06L156 5Z" fill="url(#paint4_linear_1_13)"/>
<path d="M14.0001 255L156 255L160 260L10.0001 260L14.0001 255Z" fill="url(#paint5_linear_1_13)"/>
<path d="M5.00007 14L5.00005 246L4.26764e-05 250L6.10352e-05 10L5.00007 14Z" fill="url(#paint6_linear_1_13)"/>
<path d="M165 246L165 14L170 9.99998L170 250L165 246Z" fill="url(#paint7_linear_1_13)"/>
<path d="M169 11.0002L165 14.0002L156 5.00018L159 1.00017L169 11.0002Z" fill="url(#paint8_radial_1_13)"/>
<path d="M159 259L156 255L165 246L169 249L159 259Z" fill="url(#paint9_radial_1_13)"/>
<path d="M1 249L5 246L14 255L11 259L1 249Z" fill="url(#paint10_radial_1_13)"/>
<path d="M11 1L14 5L5 14L1 11L11 1Z" fill="url(#paint11_radial_1_13)"/>
<path d="M156 5.00019L110 5.00019L107 1.00019L159 1.00019L156 5.00019Z" fill="url(#paint12_radial_1_13)"/>
<path d="M110 5L14 5.00018L11 1.00018L107 1.00018L110 5Z" fill="url(#paint13_radial_1_13)"/>
<path d="M165 246L165 143L169 140L169 249L165 246Z" fill="url(#paint14_radial_1_13)"/>
<path d="M165 143L165 14L169 11L169 140L165 143Z" fill="url(#paint15_radial_1_13)"/>
<path d="M14 255L68.5 255.5L71.5 259.5L11 259L12.5 257L14 255Z" fill="url(#paint16_radial_1_13)"/>
<path d="M5 14L5 162L1 165L1 11L5 14Z" fill="url(#paint17_radial_1_13)"/>
<path d="M68.5 255.5L156 255L159 259L71.5 259.5L70 257.5L68.5 255.5Z" fill="url(#paint18_radial_1_13)"/>
<path d="M5 162L5.00001 246L1 249L1 165L5 162Z" fill="url(#paint19_radial_1_13)"/>
<ellipse cx="133.5" cy="234.5" rx="59.5" ry="52.5" fill="url(#paint20_radial_1_13)" fill-opacity="0.1"/>
<ellipse cx="3.5" cy="207.5" rx="59.5" ry="52.5" fill="url(#paint21_radial_1_13)" fill-opacity="0.1"/>
<ellipse cx="18.2988" cy="54.5" rx="5.29878" ry="5.5" fill="url(#paint22_radial_1_13)" fill-opacity="0.25"/>
<ellipse cx="42" cy="49" rx="9" ry="8" fill="url(#paint23_radial_1_13)" fill-opacity="0.2"/>
<ellipse cx="45.5" cy="21.5" rx="13.5" ry="12.5" fill="url(#paint24_radial_1_13)" fill-opacity="0.25"/>
<ellipse cx="51" cy="63.5" rx="5" ry="4.5" fill="url(#paint25_radial_1_13)" fill-opacity="0.2"/>
<ellipse cx="40" cy="26.5" rx="8" ry="7.5" fill="url(#paint26_radial_1_13)" fill-opacity="0.25"/>
<ellipse cx="138.5" cy="24" rx="8.5" ry="7" fill="url(#paint27_radial_1_13)" fill-opacity="0.15"/>
<ellipse cx="26.0061" cy="40.5" rx="5.29878" ry="5.5" fill="url(#paint28_radial_1_13)" fill-opacity="0.25"/>
<ellipse cx="60" cy="19.5" rx="15" ry="12.5" fill="url(#paint29_radial_1_13)" fill-opacity="0.35"/>
<ellipse cx="43" cy="12.5" rx="15" ry="12.5" fill="url(#paint30_radial_1_13)" fill-opacity="0.35"/>
<ellipse cx="70.0671" cy="83.5" rx="5.29878" ry="5.5" fill="url(#paint31_radial_1_13)" fill-opacity="0.25"/>
<ellipse cx="25.1951" cy="27.5" rx="21.1951" ry="19.5" fill="url(#paint32_radial_1_13)" fill-opacity="0.5"/>
<circle cx="162" cy="153" r="19" fill="url(#paint33_radial_1_13)" fill-opacity="0.2"/>
<ellipse cx="161.524" cy="22.5" rx="12.5244" ry="12.5" fill="url(#paint34_radial_1_13)" fill-opacity="0.15"/>
<ellipse cx="27.5" cy="12.5" rx="19.5" ry="15.5" fill="url(#paint35_radial_1_13)"/>
<ellipse cx="17.5244" cy="74.5" rx="12.5244" ry="12.5" fill="url(#paint36_radial_1_13)" fill-opacity="0.2"/>
<ellipse cx="12.5244" cy="44.5" rx="12.5244" ry="12.5" fill="url(#paint37_radial_1_13)" fill-opacity="0.2"/>
<ellipse cx="69.5244" cy="52.5" rx="12.5244" ry="12.5" fill="url(#paint38_radial_1_13)" fill-opacity="0.15"/>
<ellipse cx="50.5244" cy="32.5" rx="12.5244" ry="12.5" fill="url(#paint39_radial_1_13)" fill-opacity="0.2"/>
<ellipse cx="42.5244" cy="83.5" rx="12.5244" ry="12.5" fill="url(#paint40_radial_1_13)" fill-opacity="0.2"/>
<ellipse cx="16.5244" cy="227.5" rx="12.5244" ry="12.5" fill="url(#paint41_radial_1_13)" fill-opacity="0.2"/>
<ellipse cx="152.524" cy="240.5" rx="12.5244" ry="12.5" fill="url(#paint42_radial_1_13)" fill-opacity="0.2"/>
<circle cx="129.5" cy="142.5" r="8.5" fill="url(#paint43_radial_1_13)" fill-opacity="0.2"/>
<ellipse cx="13.5244" cy="194.5" rx="12.5244" ry="12.5" fill="url(#paint44_radial_1_13)" fill-opacity="0.2"/>
<ellipse cx="55.5244" cy="246.5" rx="12.5244" ry="12.5" fill="url(#paint45_radial_1_13)" fill-opacity="0.15"/>
<ellipse cx="37.5244" cy="252.5" rx="12.5244" ry="12.5" fill="url(#paint46_radial_1_13)" fill-opacity="0.2"/>
<ellipse cx="43.5244" cy="233.5" rx="12.5244" ry="12.5" fill="url(#paint47_radial_1_13)" fill-opacity="0.2"/>
</g>
<defs>
<linearGradient id="paint0_linear_1_13" x1="160.5" y1="10" x2="165.5" y2="5" gradientUnits="userSpaceOnUse">
<stop stop-color="#84C3B1"/>
<stop offset="1" stop-color="#84C3B1"/>
</linearGradient>
<linearGradient id="paint1_linear_1_13" x1="10" y1="9.5" x2="5" y2="5" gradientUnits="userSpaceOnUse">
<stop stop-color="#C0E0D1"/>
<stop offset="1" stop-color="#C0E0D1"/>
</linearGradient>
<linearGradient id="paint2_linear_1_13" x1="5.00002" y1="255" x2="9.50002" y2="250" gradientUnits="userSpaceOnUse">
<stop stop-color="#86C2B0"/>
<stop offset="1" stop-color="#86C2B0"/>
</linearGradient>
<linearGradient id="paint3_linear_1_13" x1="160.5" y1="249.5" x2="166" y2="255" gradientUnits="userSpaceOnUse">
<stop stop-color="#6ABCA1"/>
<stop offset="1" stop-color="#6ABCA1"/>
</linearGradient>
<linearGradient id="paint4_linear_1_13" x1="12" y1="2.99996" x2="160" y2="2.99999" gradientUnits="userSpaceOnUse">
<stop stop-color="#C7E2D7"/>
<stop offset="1" stop-color="#90C6B4"/>
</linearGradient>
<linearGradient id="paint5_linear_1_13" x1="14" y1="255" x2="152" y2="255" gradientUnits="userSpaceOnUse">
<stop stop-color="#6FB8A3"/>
<stop offset="1" stop-color="#6DB79F"/>
</linearGradient>
<linearGradient id="paint6_linear_1_13" x1="3" y1="250" x2="3" y2="10" gradientUnits="userSpaceOnUse">
<stop stop-color="#8FC7B6"/>
<stop offset="1" stop-color="#C1DFD2"/>
</linearGradient>
<linearGradient id="paint7_linear_1_13" x1="165" y1="10" x2="165" y2="255.5" gradientUnits="userSpaceOnUse">
<stop stop-color="#63AC97"/>
<stop offset="1" stop-color="#7BB9A8"/>
</linearGradient>
<radialGradient id="paint8_radial_1_13" cx="0" cy="0" r="1" gradientUnits="userSpaceOnUse" gradientTransform="translate(164 5) rotate(175.236) scale(6.0208 9.94256)">
<stop stop-color="#8FC9BA" stop-opacity="0.7"/>
<stop offset="0.548077" stop-color="#8FC9BA" stop-opacity="0.9"/>
<stop offset="0.860577" stop-color="#8FC9BA" stop-opacity="0.9"/>
<stop offset="1" stop-color="#8FC9BA" stop-opacity="0.9"/>
</radialGradient>
<radialGradient id="paint9_radial_1_13" cx="0" cy="0" r="1" gradientUnits="userSpaceOnUse" gradientTransform="translate(162.5 252.5) rotate(-135) scale(2.12132 7.69983)">
<stop stop-color="#C4DFD8" stop-opacity="0.7"/>
<stop offset="0.610577" stop-color="#C4DFD8" stop-opacity="0.826971"/>
<stop offset="1" stop-color="#DBF0EB" stop-opacity="0.9"/>
</radialGradient>
<radialGradient id="paint10_radial_1_13" cx="0" cy="0" r="1" gradientUnits="userSpaceOnUse" gradientTransform="translate(6 254) rotate(-48.8141) scale(5.31507 7.59296)">
<stop stop-color="#9CD0C1" stop-opacity="0.7"/>
<stop offset="0.769231" stop-color="#9CD0C1" stop-opacity="0.865385"/>
<stop offset="1" stop-color="#9CD0C1" stop-opacity="0.9"/>
</radialGradient>
<radialGradient id="paint11_radial_1_13" cx="0" cy="0" r="1" gradientUnits="userSpaceOnUse" gradientTransform="translate(7 6.5) rotate(45) scale(4.24264 8.83594)">
<stop stop-color="#CCE5DA" stop-opacity="0.6"/>
<stop offset="0.649038" stop-color="#CCE5DA" stop-opacity="0.634615"/>
<stop offset="1" stop-color="#CCE5DA" stop-opacity="0.9"/>
</radialGradient>
<radialGradient id="paint12_radial_1_13" cx="0" cy="0" r="1" gradientUnits="userSpaceOnUse" gradientTransform="translate(130 4.00001) rotate(-89.9999) scale(3.5 36.054)">
<stop offset="0.00480769" stop-color="#F5F8F4"/>
<stop offset="0.278846" stop-color="#C3E2D3" stop-opacity="0.865385"/>
<stop offset="1" stop-color="#C3E2D3" stop-opacity="0.7"/>
</radialGradient>
<radialGradient id="paint13_radial_1_13" cx="0" cy="0" r="1" gradientUnits="userSpaceOnUse" gradientTransform="translate(66 3.99999) rotate(-90) scale(4.49999 65.2498)">
<stop stop-color="#C3E2D3"/>
<stop offset="0.298077" stop-color="#C3E2D3" stop-opacity="0.865385"/>
<stop offset="1" stop-color="#C3E2D3" stop-opacity="0.9"/>
</radialGradient>
<radialGradient id="paint14_radial_1_13" cx="0" cy="0" r="1" gradientUnits="userSpaceOnUse" gradientTransform="translate(166.5 195.5) scale(3.5 75.3438)">
<stop stop-color="#88C5B2"/>
<stop offset="0.423077" stop-color="#88C5B2" stop-opacity="0.772115"/>
<stop offset="1" stop-color="#88C5B2" stop-opacity="0.7"/>
</radialGradient>
<radialGradient id="paint15_radial_1_13" cx="0" cy="0" r="1" gradientUnits="userSpaceOnUse" gradientTransform="translate(166 35) scale(3.5 23.8078)">
<stop stop-color="#88C5B2" stop-opacity="0.8"/>
<stop offset="0.548077" stop-color="#88C5B2" stop-opacity="0.772115"/>
<stop offset="1" stop-color="#88C5B2" stop-opacity="0.7"/>
</radialGradient>
<radialGradient id="paint16_radial_1_13" cx="0" cy="0" r="1" gradientUnits="userSpaceOnUse" gradientTransform="translate(33 256) rotate(90) scale(3.5 66.3448)">
<stop stop-color="#92CAB9" stop-opacity="0.9"/>
<stop offset="0.346154" stop-color="#92CAB9" stop-opacity="0.865385"/>
<stop offset="1" stop-color="#92CAB9" stop-opacity="0.7"/>
</radialGradient>
<radialGradient id="paint17_radial_1_13" cx="0" cy="0" r="1" gradientUnits="userSpaceOnUse" gradientTransform="translate(5.00003 41.5) rotate(-180) scale(4.00003 73.8081)">
<stop offset="0.0432692" stop-color="#A2D4C4" stop-opacity="0.9"/>
<stop offset="0.168269" stop-color="#A2D4C4" stop-opacity="0.876923"/>
<stop offset="1" stop-color="#A2D4C4" stop-opacity="0.7"/>
</radialGradient>
<radialGradient id="paint18_radial_1_13" cx="0" cy="0" r="1" gradientUnits="userSpaceOnUse" gradientTransform="translate(124 258.5) rotate(-90) scale(9.50005 124.556)">
<stop stop-color="#92CAB9" stop-opacity="0.9"/>
<stop offset="0.129808" stop-color="#92CAB9" stop-opacity="0.865385"/>
<stop offset="1" stop-color="#92CAB9" stop-opacity="0.7"/>
</radialGradient>
<radialGradient id="paint19_radial_1_13" cx="0" cy="0" r="1" gradientUnits="userSpaceOnUse" gradientTransform="translate(4.5 211.5) rotate(180) scale(3.5 13.448)">
<stop stop-color="#A2D4C4" stop-opacity="0.9"/>
<stop offset="0.298077" stop-color="#A2D4C4" stop-opacity="0.876923"/>
<stop offset="1" stop-color="#A2D4C4" stop-opacity="0.7"/>
</radialGradient>
<radialGradient id="paint20_radial_1_13" cx="0" cy="0" r="1" gradientUnits="userSpaceOnUse" gradientTransform="translate(133.5 234.5) rotate(90) scale(52.5 59.5)">
<stop stop-color="white"/>
<stop offset="1" stop-color="white" stop-opacity="0"/>
</radialGradient>
<radialGradient id="paint21_radial_1_13" cx="0" cy="0" r="1" gradientUnits="userSpaceOnUse" gradientTransform="translate(3.5 207.5) rotate(90) scale(52.5 59.5)">
<stop stop-color="white"/>
<stop offset="1" stop-color="white" stop-opacity="0"/>
</radialGradient>
<radialGradient id="paint22_radial_1_13" cx="0" cy="0" r="1" gradientUnits="userSpaceOnUse" gradientTransform="translate(18.2988 54.5) rotate(90) scale(5.5 5.29878)">
<stop stop-color="white"/>
<stop offset="1" stop-color="white" stop-opacity="0"/>
</radialGradient>
<radialGradient id="paint23_radial_1_13" cx="0" cy="0" r="1" gradientUnits="userSpaceOnUse" gradientTransform="translate(42 49) rotate(90) scale(8 9)">
<stop stop-color="white"/>
<stop offset="1" stop-color="white" stop-opacity="0"/>
</radialGradient>
<radialGradient id="paint24_radial_1_13" cx="0" cy="0" r="1" gradientUnits="userSpaceOnUse" gradientTransform="translate(45.5 21.5) rotate(90) scale(12.5 13.5)">
<stop stop-color="white"/>
<stop offset="1" stop-color="white" stop-opacity="0"/>
</radialGradient>
<radialGradient id="paint25_radial_1_13" cx="0" cy="0" r="1" gradientUnits="userSpaceOnUse" gradientTransform="translate(51 63.5) rotate(90) scale(4.5 5)">
<stop stop-color="white"/>
<stop offset="1" stop-color="white" stop-opacity="0"/>
</radialGradient>
<radialGradient id="paint26_radial_1_13" cx="0" cy="0" r="1" gradientUnits="userSpaceOnUse" gradientTransform="translate(40 26.5) rotate(90) scale(7.5 8)">
<stop stop-color="white"/>
<stop offset="1" stop-color="white" stop-opacity="0"/>
</radialGradient>
<radialGradient id="paint27_radial_1_13" cx="0" cy="0" r="1" gradientUnits="userSpaceOnUse" gradientTransform="translate(138.5 24) rotate(90) scale(7 8.5)">
<stop stop-color="white"/>
<stop offset="1" stop-color="white" stop-opacity="0"/>
</radialGradient>
<radialGradient id="paint28_radial_1_13" cx="0" cy="0" r="1" gradientUnits="userSpaceOnUse" gradientTransform="translate(26.0061 40.5) rotate(90) scale(5.5 5.29878)">
<stop stop-color="white"/>
<stop offset="1" stop-color="white" stop-opacity="0"/>
</radialGradient>
<radialGradient id="paint29_radial_1_13" cx="0" cy="0" r="1" gradientUnits="userSpaceOnUse" gradientTransform="translate(60 19.5) rotate(90) scale(12.5 15)">
<stop stop-color="white"/>
<stop offset="1" stop-color="white" stop-opacity="0"/>
</radialGradient>
<radialGradient id="paint30_radial_1_13" cx="0" cy="0" r="1" gradientUnits="userSpaceOnUse" gradientTransform="translate(43 12.5) rotate(90) scale(12.5 15)">
<stop stop-color="white"/>
<stop offset="1" stop-color="white" stop-opacity="0"/>
</radialGradient>
<radialGradient id="paint31_radial_1_13" cx="0" cy="0" r="1" gradientUnits="userSpaceOnUse" gradientTransform="translate(70.0671 83.5) rotate(90) scale(5.5 5.29878)">
<stop stop-color="white"/>
<stop offset="1" stop-color="white" stop-opacity="0"/>
</radialGradient>
<radialGradient id="paint32_radial_1_13" cx="0" cy="0" r="1" gradientUnits="userSpaceOnUse" gradientTransform="translate(25.1951 28) rotate(90) scale(19 20.6517)">
<stop stop-color="white"/>
<stop offset="1" stop-color="white" stop-opacity="0"/>
</radialGradient>
<radialGradient id="paint33_radial_1_13" cx="0" cy="0" r="1" gradientUnits="userSpaceOnUse" gradientTransform="translate(162 153.487) rotate(90) scale(18.5128)">
<stop stop-color="white"/>
<stop offset="1" stop-color="white" stop-opacity="0"/>
</radialGradient>
<radialGradient id="paint34_radial_1_13" cx="0" cy="0" r="1" gradientUnits="userSpaceOnUse" gradientTransform="translate(161.524 22.8205) rotate(90) scale(12.1795 12.2033)">
<stop stop-color="white"/>
<stop offset="1" stop-color="white" stop-opacity="0"/>
</radialGradient>
<radialGradient id="paint35_radial_1_13" cx="0" cy="0" r="1" gradientUnits="userSpaceOnUse" gradientTransform="translate(23 12) rotate(85.2364) scale(12.0416 15.1491)">
<stop stop-color="white" stop-opacity="0.9"/>
<stop offset="0.471154" stop-color="white" stop-opacity="0.826923"/>
<stop offset="1" stop-color="white" stop-opacity="0"/>
</radialGradient>
<radialGradient id="paint36_radial_1_13" cx="0" cy="0" r="1" gradientUnits="userSpaceOnUse" gradientTransform="translate(17.5244 74.8205) rotate(90) scale(12.1795 12.2033)">
<stop stop-color="white"/>
<stop offset="1" stop-color="white" stop-opacity="0"/>
</radialGradient>
<radialGradient id="paint37_radial_1_13" cx="0" cy="0" r="1" gradientUnits="userSpaceOnUse" gradientTransform="translate(12.5244 44.8205) rotate(90) scale(12.1795 12.2033)">
<stop stop-color="white"/>
<stop offset="1" stop-color="white" stop-opacity="0"/>
</radialGradient>
<radialGradient id="paint38_radial_1_13" cx="0" cy="0" r="1" gradientUnits="userSpaceOnUse" gradientTransform="translate(69.5244 52.8205) rotate(90) scale(12.1795 12.2033)">
<stop stop-color="white"/>
<stop offset="1" stop-color="white" stop-opacity="0"/>
</radialGradient>
<radialGradient id="paint39_radial_1_13" cx="0" cy="0" r="1" gradientUnits="userSpaceOnUse" gradientTransform="translate(50.5244 32.8205) rotate(90) scale(12.1795 12.2033)">
<stop stop-color="white"/>
<stop offset="1" stop-color="white" stop-opacity="0"/>
</radialGradient>
<radialGradient id="paint40_radial_1_13" cx="0" cy="0" r="1" gradientUnits="userSpaceOnUse" gradientTransform="translate(42.5244 83.8205) rotate(90) scale(12.1795 12.2033)">
<stop stop-color="white"/>
<stop offset="1" stop-color="white" stop-opacity="0"/>
</radialGradient>
<radialGradient id="paint41_radial_1_13" cx="0" cy="0" r="1" gradientUnits="userSpaceOnUse" gradientTransform="translate(16.5244 227.821) rotate(90) scale(12.1795 12.2033)">
<stop stop-color="white"/>
<stop offset="1" stop-color="white" stop-opacity="0"/>
</radialGradient>
<radialGradient id="paint42_radial_1_13" cx="0" cy="0" r="1" gradientUnits="userSpaceOnUse" gradientTransform="translate(152.524 240.821) rotate(90) scale(12.1795 12.2033)">
<stop stop-color="white"/>
<stop offset="1" stop-color="white" stop-opacity="0"/>
</radialGradient>
<radialGradient id="paint43_radial_1_13" cx="0" cy="0" r="1" gradientUnits="userSpaceOnUse" gradientTransform="translate(129.5 142.718) rotate(90) scale(8.28205)">
<stop stop-color="white"/>
<stop offset="1" stop-color="white" stop-opacity="0"/>
</radialGradient>
<radialGradient id="paint44_radial_1_13" cx="0" cy="0" r="1" gradientUnits="userSpaceOnUse" gradientTransform="translate(13.5244 194.821) rotate(90) scale(12.1795 12.2033)">
<stop stop-color="white"/>
<stop offset="1" stop-color="white" stop-opacity="0"/>
</radialGradient>
<radialGradient id="paint45_radial_1_13" cx="0" cy="0" r="1" gradientUnits="userSpaceOnUse" gradientTransform="translate(55.5244 246.821) rotate(90) scale(12.1795 12.2033)">
<stop stop-color="white"/>
<stop offset="1" stop-color="white" stop-opacity="0"/>
</radialGradient>
<radialGradient id="paint46_radial_1_13" cx="0" cy="0" r="1" gradientUnits="userSpaceOnUse" gradientTransform="translate(37.5244 252.821) rotate(90) scale(12.1795 12.2033)">
<stop stop-color="white"/>
<stop offset="1" stop-color="white" stop-opacity="0"/>
</radialGradient>
<radialGradient id="paint47_radial_1_13" cx="0" cy="0" r="1" gradientUnits="userSpaceOnUse" gradientTransform="translate(43.5244 233.821) rotate(90) scale(12.1795 12.2033)">
<stop stop-color="white"/>
<stop offset="1" stop-color="white" stop-opacity="0"/>
</radialGradient>
<clipPath id="clip0_1_13">
<rect width="170" height="260" fill="white"/>
</clipPath>
</defs>
</svg>
