<svg width="356" height="724" viewBox="0 0 356 724" fill="none" xmlns="http://www.w3.org/2000/svg">
<g opacity="0.7" clip-path="url(#clip0_63_4)">
<path d="M342 5L346 -8.74228e-07L356 10L351 14L342 5Z" fill="url(#paint0_linear_63_4)"/>
<path d="M351 709.999L356 713.999L346 723.999L342 718.999L351 709.999Z" fill="url(#paint1_linear_63_4)"/>
<path d="M342 4.99987L14 5.00016L10 0.000169415L346 -0.00012207L342 4.99987Z" fill="url(#paint2_linear_63_4)"/>
<path d="M14 718.999L342 718.999L346 723.999L10 723.999L14 718.999Z" fill="url(#paint3_linear_63_4)"/>
<path d="M351 709.999L351 13.9998L356 9.99976L356 713.999L351 709.999Z" fill="url(#paint4_linear_63_4)"/>
<path d="M5 14.0002L0 10.0002L10 0.000244141L14 5.00024L5 14.0002Z" fill="url(#paint5_linear_63_4)"/>
<path d="M14 719L10 724L1.31134e-06 714L5 710L14 719Z" fill="url(#paint6_linear_63_4)"/>
<path d="M5.00007 13.9999L5.00003 710L3.99914e-05 714L6.10352e-05 9.99988L5.00007 13.9999Z" fill="url(#paint7_linear_63_4)"/>
<path d="M355 11.0001L351 14.0001L342 5.00012L345 1.00012L355 11.0001Z" fill="url(#paint8_radial_63_4)"/>
<path d="M345 723L342 719L351 710L355 713L345 723Z" fill="url(#paint9_radial_63_4)"/>
<path d="M342 5.00025L170 5.00027L167 1.00027L345 1.00024L342 5.00025Z" fill="url(#paint10_radial_63_4)"/>
<path d="M170 5.00006L14.5 5.00025L11.5 1.00024L167 1.00024L170 5.00006Z" fill="url(#paint11_radial_63_4)"/>
<path d="M351 710L351 357L355 354L355 713L351 710Z" fill="url(#paint12_radial_63_4)"/>
<path d="M351 357L351 13.9998L355 10.9998L355 354L351 357Z" fill="url(#paint13_radial_63_4)"/>
<path d="M14 719L154 719L157 723L11 723L12.5 721L14 719Z" fill="url(#paint14_radial_63_4)"/>
<path d="M154 719L342 719L345 723L157 723L155.5 721L154 719Z" fill="url(#paint15_radial_63_4)"/>
<path d="M1 713L5 710L14 719L11 723L1 713Z" fill="url(#paint16_radial_63_4)"/>
<path d="M11 0.999997L14 5L5 14L1 11L11 0.999997Z" fill="url(#paint17_radial_63_4)"/>
<path d="M5 14L5 390L1 393L1 11L5 14Z" fill="url(#paint18_radial_63_4)"/>
<path d="M5.00003 390L5 710L1 713L1.00003 393L3.00003 391.5L5.00003 390Z" fill="url(#paint19_radial_63_4)"/>
<ellipse cx="239.5" cy="432.5" rx="116.5" ry="296.5" fill="url(#paint20_radial_63_4)" fill-opacity="0.1"/>
<ellipse cx="111.5" cy="280.5" rx="121.5" ry="296.5" fill="url(#paint21_radial_63_4)" fill-opacity="0.1"/>
<ellipse cx="43" cy="165.5" rx="20" ry="17.5" fill="url(#paint22_radial_63_4)" fill-opacity="0.25"/>
<ellipse cx="83" cy="148.5" rx="28" ry="25.5" fill="url(#paint23_radial_63_4)" fill-opacity="0.2"/>
<ellipse cx="91" cy="52" rx="38" ry="40" fill="url(#paint24_radial_63_4)" fill-opacity="0.25"/>
<ellipse cx="91" cy="194.5" rx="15" ry="14.5" fill="url(#paint25_radial_63_4)" fill-opacity="0.2"/>
<ellipse cx="75" cy="78" rx="22" ry="24" fill="url(#paint26_radial_63_4)" fill-opacity="0.25"/>
<ellipse cx="275" cy="52.5" rx="27" ry="28.5" fill="url(#paint27_radial_63_4)" fill-opacity="0.15"/>
<ellipse cx="54.5" cy="122" rx="19.5" ry="17" fill="url(#paint28_radial_63_4)" fill-opacity="0.25"/>
<ellipse cx="116.5" cy="56" rx="42.5" ry="40" fill="url(#paint29_radial_63_4)" fill-opacity="0.35"/>
<ellipse cx="88" cy="33.5" rx="41" ry="39.5" fill="url(#paint30_radial_63_4)" fill-opacity="0.35"/>
<ellipse cx="125.5" cy="258" rx="19.5" ry="18" fill="url(#paint31_radial_63_4)" fill-opacity="0.25"/>
<ellipse cx="66" cy="80.5" rx="57" ry="61.5" fill="url(#paint32_radial_63_4)" fill-opacity="0.5"/>
<ellipse cx="318.5" cy="483.5" rx="72.5" ry="83.5" fill="url(#paint33_radial_63_4)" fill-opacity="0.2"/>
<ellipse cx="319.5" cy="41" rx="52.5" ry="51" fill="url(#paint34_radial_63_4)" fill-opacity="0.15"/>
<ellipse cx="61.5" cy="28.5" rx="54.5" ry="49.5" fill="url(#paint35_radial_63_4)"/>
<circle cx="44.5" cy="229.5" r="39.5" fill="url(#paint36_radial_63_4)" fill-opacity="0.2"/>
<ellipse cx="15" cy="135" rx="41" ry="39" fill="url(#paint37_radial_63_4)" fill-opacity="0.2"/>
<ellipse cx="137.5" cy="159" rx="43.5" ry="40" fill="url(#paint38_radial_63_4)" fill-opacity="0.15"/>
<ellipse cx="101.5" cy="96" rx="38.5" ry="39" fill="url(#paint39_radial_63_4)" fill-opacity="0.2"/>
<ellipse cx="86.5" cy="258" rx="36.5" ry="40" fill="url(#paint40_radial_63_4)" fill-opacity="0.2"/>
<ellipse cx="39.5" cy="581.5" rx="43.5" ry="49.5" fill="url(#paint41_radial_63_4)" fill-opacity="0.2"/>
<ellipse cx="331" cy="684" rx="37" ry="44" fill="url(#paint42_radial_63_4)" fill-opacity="0.2"/>
<ellipse cx="232" cy="441" rx="40" ry="38" fill="url(#paint43_radial_63_4)" fill-opacity="0.2"/>
<ellipse cx="36.5" cy="452.5" rx="46.5" ry="49.5" fill="url(#paint44_radial_63_4)" fill-opacity="0.2"/>
<ellipse cx="123" cy="656.5" rx="50" ry="49.5" fill="url(#paint45_radial_63_4)" fill-opacity="0.15"/>
<ellipse cx="83" cy="679.5" rx="45" ry="48.5" fill="url(#paint46_radial_63_4)" fill-opacity="0.2"/>
<ellipse cx="92.5" cy="605.5" rx="42.5" ry="49.5" fill="url(#paint47_radial_63_4)" fill-opacity="0.2"/>
</g>
<defs>
<linearGradient id="paint0_linear_63_4" x1="346.5" y1="9.99993" x2="351.5" y2="4.99993" gradientUnits="userSpaceOnUse">
<stop stop-color="#84C3B1"/>
<stop offset="1" stop-color="#84C3B1"/>
</linearGradient>
<linearGradient id="paint1_linear_63_4" x1="346.5" y1="713.499" x2="352" y2="718.999" gradientUnits="userSpaceOnUse">
<stop stop-color="#6ABCA1"/>
<stop offset="1" stop-color="#6ABCA1"/>
</linearGradient>
<linearGradient id="paint2_linear_63_4" x1="72" y1="2.99981" x2="220" y2="2.99984" gradientUnits="userSpaceOnUse">
<stop stop-color="#C7E2D7"/>
<stop offset="1" stop-color="#90C6B4"/>
</linearGradient>
<linearGradient id="paint3_linear_63_4" x1="56.9994" y1="718.999" x2="194.999" y2="718.999" gradientUnits="userSpaceOnUse">
<stop stop-color="#6FB8A3"/>
<stop offset="1" stop-color="#6DB79F"/>
</linearGradient>
<linearGradient id="paint4_linear_63_4" x1="351" y1="379.998" x2="351" y2="625.499" gradientUnits="userSpaceOnUse">
<stop stop-color="#63AC97"/>
<stop offset="1" stop-color="#7BB9A8"/>
</linearGradient>
<linearGradient id="paint5_linear_63_4" x1="9.99994" y1="9.5002" x2="4.99994" y2="5.0002" gradientUnits="userSpaceOnUse">
<stop stop-color="#C0E0D1"/>
<stop offset="1" stop-color="#C0E0D1"/>
</linearGradient>
<linearGradient id="paint6_linear_63_4" x1="4.99995" y1="719" x2="9.49995" y2="714" gradientUnits="userSpaceOnUse">
<stop stop-color="#86C2B0"/>
<stop offset="1" stop-color="#86C2B0"/>
</linearGradient>
<linearGradient id="paint7_linear_63_4" x1="2.99999" y1="609" x2="2.99999" y2="368.999" gradientUnits="userSpaceOnUse">
<stop stop-color="#8FC7B6"/>
<stop offset="1" stop-color="#C1DFD2"/>
</linearGradient>
<radialGradient id="paint8_radial_63_4" cx="0" cy="0" r="1" gradientUnits="userSpaceOnUse" gradientTransform="translate(350 4.99995) rotate(175.236) scale(6.0208 9.94256)">
<stop stop-color="#8FC9BA" stop-opacity="0.7"/>
<stop offset="0.548077" stop-color="#8FC9BA" stop-opacity="0.9"/>
<stop offset="0.860577" stop-color="#8FC9BA" stop-opacity="0.9"/>
<stop offset="1" stop-color="#8FC9BA" stop-opacity="0.9"/>
</radialGradient>
<radialGradient id="paint9_radial_63_4" cx="0" cy="0" r="1" gradientUnits="userSpaceOnUse" gradientTransform="translate(348.5 716.5) rotate(-135) scale(2.12132 7.69983)">
<stop stop-color="#C4DFD8" stop-opacity="0.7"/>
<stop offset="0.610577" stop-color="#C4DFD8" stop-opacity="0.826971"/>
<stop offset="1" stop-color="#DBF0EB" stop-opacity="0.9"/>
</radialGradient>
<radialGradient id="paint10_radial_63_4" cx="0" cy="0" r="1" gradientUnits="userSpaceOnUse" gradientTransform="translate(190 4.00006) rotate(-89.9999) scale(3.5 36.054)">
<stop offset="0.00480769" stop-color="#F5F8F4"/>
<stop offset="0.278846" stop-color="#C3E2D3" stop-opacity="0.865385"/>
<stop offset="1" stop-color="#C3E2D3" stop-opacity="0.7"/>
</radialGradient>
<radialGradient id="paint11_radial_63_4" cx="0" cy="0" r="1" gradientUnits="userSpaceOnUse" gradientTransform="translate(126 4.00017) rotate(-90) scale(4.49999 65.25)">
<stop stop-color="#C3E2D3"/>
<stop offset="0.298077" stop-color="#C3E2D3" stop-opacity="0.865385"/>
<stop offset="1" stop-color="#C3E2D3" stop-opacity="0.9"/>
</radialGradient>
<radialGradient id="paint12_radial_63_4" cx="0" cy="0" r="1" gradientUnits="userSpaceOnUse" gradientTransform="translate(352.5 565.5) scale(3.5 75.3439)">
<stop stop-color="#88C5B2"/>
<stop offset="0.423077" stop-color="#88C5B2" stop-opacity="0.772115"/>
<stop offset="1" stop-color="#88C5B2" stop-opacity="0.7"/>
</radialGradient>
<radialGradient id="paint13_radial_63_4" cx="0" cy="0" r="1" gradientUnits="userSpaceOnUse" gradientTransform="translate(352 129) scale(3.5 23.8078)">
<stop stop-color="#88C5B2" stop-opacity="0.8"/>
<stop offset="0.548077" stop-color="#88C5B2" stop-opacity="0.772115"/>
<stop offset="1" stop-color="#88C5B2" stop-opacity="0.7"/>
</radialGradient>
<radialGradient id="paint14_radial_63_4" cx="0" cy="0" r="1" gradientUnits="userSpaceOnUse" gradientTransform="translate(103 720) rotate(90) scale(3.5 66.3447)">
<stop stop-color="#92CAB9" stop-opacity="0.9"/>
<stop offset="0.346154" stop-color="#92CAB9" stop-opacity="0.865385"/>
<stop offset="1" stop-color="#92CAB9" stop-opacity="0.7"/>
</radialGradient>
<radialGradient id="paint15_radial_63_4" cx="0" cy="0" r="1" gradientUnits="userSpaceOnUse" gradientTransform="translate(167 722.5) rotate(-90) scale(9.50005 124.556)">
<stop stop-color="#92CAB9" stop-opacity="0.9"/>
<stop offset="0.129808" stop-color="#92CAB9" stop-opacity="0.865385"/>
<stop offset="1" stop-color="#92CAB9" stop-opacity="0.7"/>
</radialGradient>
<radialGradient id="paint16_radial_63_4" cx="0" cy="0" r="1" gradientUnits="userSpaceOnUse" gradientTransform="translate(6 718) rotate(-48.8141) scale(5.31507 7.59296)">
<stop stop-color="#9CD0C1" stop-opacity="0.7"/>
<stop offset="0.769231" stop-color="#9CD0C1" stop-opacity="0.865385"/>
<stop offset="1" stop-color="#9CD0C1" stop-opacity="0.9"/>
</radialGradient>
<radialGradient id="paint17_radial_63_4" cx="0" cy="0" r="1" gradientUnits="userSpaceOnUse" gradientTransform="translate(7 6.5) rotate(45) scale(4.24264 8.83594)">
<stop stop-color="#CCE5DA" stop-opacity="0.6"/>
<stop offset="0.649038" stop-color="#CCE5DA" stop-opacity="0.634615"/>
<stop offset="1" stop-color="#CCE5DA" stop-opacity="0.9"/>
</radialGradient>
<radialGradient id="paint18_radial_63_4" cx="0" cy="0" r="1" gradientUnits="userSpaceOnUse" gradientTransform="translate(5.00005 124.5) rotate(-180) scale(4.00003 73.8081)">
<stop offset="0.0432692" stop-color="#A2D4C4" stop-opacity="0.9"/>
<stop offset="0.168269" stop-color="#A2D4C4" stop-opacity="0.876923"/>
<stop offset="1" stop-color="#A2D4C4" stop-opacity="0.7"/>
</radialGradient>
<radialGradient id="paint19_radial_63_4" cx="0" cy="0" r="1" gradientUnits="userSpaceOnUse" gradientTransform="translate(4.49999 570.5) rotate(180) scale(3.49999 13.448)">
<stop stop-color="#A2D4C4" stop-opacity="0.9"/>
<stop offset="0.298077" stop-color="#A2D4C4" stop-opacity="0.876923"/>
<stop offset="1" stop-color="#A2D4C4" stop-opacity="0.7"/>
</radialGradient>
<radialGradient id="paint20_radial_63_4" cx="0" cy="0" r="1" gradientUnits="userSpaceOnUse" gradientTransform="translate(239.5 432.5) rotate(90) scale(296.5 116.5)">
<stop stop-color="white"/>
<stop offset="1" stop-color="white" stop-opacity="0"/>
</radialGradient>
<radialGradient id="paint21_radial_63_4" cx="0" cy="0" r="1" gradientUnits="userSpaceOnUse" gradientTransform="translate(111.5 280.5) rotate(90) scale(296.5 121.5)">
<stop stop-color="white"/>
<stop offset="1" stop-color="white" stop-opacity="0"/>
</radialGradient>
<radialGradient id="paint22_radial_63_4" cx="0" cy="0" r="1" gradientUnits="userSpaceOnUse" gradientTransform="translate(43 165.5) rotate(90) scale(17.5 20)">
<stop stop-color="white"/>
<stop offset="1" stop-color="white" stop-opacity="0"/>
</radialGradient>
<radialGradient id="paint23_radial_63_4" cx="0" cy="0" r="1" gradientUnits="userSpaceOnUse" gradientTransform="translate(83 148.5) rotate(90) scale(25.5 28)">
<stop stop-color="white"/>
<stop offset="1" stop-color="white" stop-opacity="0"/>
</radialGradient>
<radialGradient id="paint24_radial_63_4" cx="0" cy="0" r="1" gradientUnits="userSpaceOnUse" gradientTransform="translate(91 52) rotate(90) scale(40 38)">
<stop stop-color="white"/>
<stop offset="1" stop-color="white" stop-opacity="0"/>
</radialGradient>
<radialGradient id="paint25_radial_63_4" cx="0" cy="0" r="1" gradientUnits="userSpaceOnUse" gradientTransform="translate(91 194.5) rotate(90) scale(14.5 15)">
<stop stop-color="white"/>
<stop offset="1" stop-color="white" stop-opacity="0"/>
</radialGradient>
<radialGradient id="paint26_radial_63_4" cx="0" cy="0" r="1" gradientUnits="userSpaceOnUse" gradientTransform="translate(75 78) rotate(90) scale(24 22)">
<stop stop-color="white"/>
<stop offset="1" stop-color="white" stop-opacity="0"/>
</radialGradient>
<radialGradient id="paint27_radial_63_4" cx="0" cy="0" r="1" gradientUnits="userSpaceOnUse" gradientTransform="translate(275 52.5) rotate(90) scale(28.5 27)">
<stop stop-color="white"/>
<stop offset="1" stop-color="white" stop-opacity="0"/>
</radialGradient>
<radialGradient id="paint28_radial_63_4" cx="0" cy="0" r="1" gradientUnits="userSpaceOnUse" gradientTransform="translate(54.5 122) rotate(90) scale(17 19.5)">
<stop stop-color="white"/>
<stop offset="1" stop-color="white" stop-opacity="0"/>
</radialGradient>
<radialGradient id="paint29_radial_63_4" cx="0" cy="0" r="1" gradientUnits="userSpaceOnUse" gradientTransform="translate(116.5 56) rotate(90) scale(40 42.5)">
<stop stop-color="white"/>
<stop offset="1" stop-color="white" stop-opacity="0"/>
</radialGradient>
<radialGradient id="paint30_radial_63_4" cx="0" cy="0" r="1" gradientUnits="userSpaceOnUse" gradientTransform="translate(88 33.5) rotate(90) scale(39.5 41)">
<stop stop-color="white"/>
<stop offset="1" stop-color="white" stop-opacity="0"/>
</radialGradient>
<radialGradient id="paint31_radial_63_4" cx="0" cy="0" r="1" gradientUnits="userSpaceOnUse" gradientTransform="translate(125.5 258) rotate(90) scale(18 19.5)">
<stop stop-color="white"/>
<stop offset="1" stop-color="white" stop-opacity="0"/>
</radialGradient>
<radialGradient id="paint32_radial_63_4" cx="0" cy="0" r="1" gradientUnits="userSpaceOnUse" gradientTransform="translate(66 82.0769) rotate(90) scale(59.9231 55.5385)">
<stop stop-color="white"/>
<stop offset="1" stop-color="white" stop-opacity="0"/>
</radialGradient>
<radialGradient id="paint33_radial_63_4" cx="0" cy="0" r="1" gradientUnits="userSpaceOnUse" gradientTransform="translate(318.5 485.641) rotate(90) scale(81.359 70.641)">
<stop stop-color="white"/>
<stop offset="1" stop-color="white" stop-opacity="0"/>
</radialGradient>
<radialGradient id="paint34_radial_63_4" cx="0" cy="0" r="1" gradientUnits="userSpaceOnUse" gradientTransform="translate(319.5 42.3077) rotate(90) scale(49.6923 51.1538)">
<stop stop-color="white"/>
<stop offset="1" stop-color="white" stop-opacity="0"/>
</radialGradient>
<radialGradient id="paint35_radial_63_4" cx="0" cy="0" r="1" gradientTransform="matrix(2.79487 38.3226 -42.1935 4.01769 48.9231 26.9032)" gradientUnits="userSpaceOnUse">
<stop stop-color="white" stop-opacity="0.9"/>
<stop offset="0.471154" stop-color="white" stop-opacity="0.826923"/>
<stop offset="1" stop-color="white" stop-opacity="0"/>
</radialGradient>
<radialGradient id="paint36_radial_63_4" cx="0" cy="0" r="1" gradientUnits="userSpaceOnUse" gradientTransform="translate(44.5 230.513) rotate(90) scale(38.4872)">
<stop stop-color="white"/>
<stop offset="1" stop-color="white" stop-opacity="0"/>
</radialGradient>
<radialGradient id="paint37_radial_63_4" cx="0" cy="0" r="1" gradientUnits="userSpaceOnUse" gradientTransform="translate(15 136) rotate(90) scale(38 39.9487)">
<stop stop-color="white"/>
<stop offset="1" stop-color="white" stop-opacity="0"/>
</radialGradient>
<radialGradient id="paint38_radial_63_4" cx="0" cy="0" r="1" gradientUnits="userSpaceOnUse" gradientTransform="translate(137.5 160.026) rotate(90) scale(38.9744 42.3846)">
<stop stop-color="white"/>
<stop offset="1" stop-color="white" stop-opacity="0"/>
</radialGradient>
<radialGradient id="paint39_radial_63_4" cx="0" cy="0" r="1" gradientUnits="userSpaceOnUse" gradientTransform="translate(101.5 97) rotate(90) scale(38 37.5128)">
<stop stop-color="white"/>
<stop offset="1" stop-color="white" stop-opacity="0"/>
</radialGradient>
<radialGradient id="paint40_radial_63_4" cx="0" cy="0" r="1" gradientUnits="userSpaceOnUse" gradientTransform="translate(86.5 259.026) rotate(90) scale(38.9744 35.5641)">
<stop stop-color="white"/>
<stop offset="1" stop-color="white" stop-opacity="0"/>
</radialGradient>
<radialGradient id="paint41_radial_63_4" cx="0" cy="0" r="1" gradientUnits="userSpaceOnUse" gradientTransform="translate(39.5 582.769) rotate(90) scale(48.2308 42.3846)">
<stop stop-color="white"/>
<stop offset="1" stop-color="white" stop-opacity="0"/>
</radialGradient>
<radialGradient id="paint42_radial_63_4" cx="0" cy="0" r="1" gradientUnits="userSpaceOnUse" gradientTransform="translate(331 685.128) rotate(90) scale(42.8718 36.0513)">
<stop stop-color="white"/>
<stop offset="1" stop-color="white" stop-opacity="0"/>
</radialGradient>
<radialGradient id="paint43_radial_63_4" cx="0" cy="0" r="1" gradientUnits="userSpaceOnUse" gradientTransform="translate(232 441.974) rotate(90) scale(37.0256 38.9744)">
<stop stop-color="white"/>
<stop offset="1" stop-color="white" stop-opacity="0"/>
</radialGradient>
<radialGradient id="paint44_radial_63_4" cx="0" cy="0" r="1" gradientUnits="userSpaceOnUse" gradientTransform="translate(36.5 453.769) rotate(90) scale(48.2308 45.3077)">
<stop stop-color="white"/>
<stop offset="1" stop-color="white" stop-opacity="0"/>
</radialGradient>
<radialGradient id="paint45_radial_63_4" cx="0" cy="0" r="1" gradientUnits="userSpaceOnUse" gradientTransform="translate(123 657.769) rotate(90) scale(48.2308 48.7179)">
<stop stop-color="white"/>
<stop offset="1" stop-color="white" stop-opacity="0"/>
</radialGradient>
<radialGradient id="paint46_radial_63_4" cx="0" cy="0" r="1" gradientUnits="userSpaceOnUse" gradientTransform="translate(83 680.744) rotate(90) scale(47.2564 43.8462)">
<stop stop-color="white"/>
<stop offset="1" stop-color="white" stop-opacity="0"/>
</radialGradient>
<radialGradient id="paint47_radial_63_4" cx="0" cy="0" r="1" gradientUnits="userSpaceOnUse" gradientTransform="translate(92.5 606.769) rotate(90) scale(48.2308 41.4103)">
<stop stop-color="white"/>
<stop offset="1" stop-color="white" stop-opacity="0"/>
</radialGradient>
<clipPath id="clip0_63_4">
<rect width="356" height="724" fill="white"/>
</clipPath>
</defs>
</svg>
